<svg width="279" height="243" viewBox="0 0 279 243" fill="none" xmlns="http://www.w3.org/2000/svg">
<g opacity="0.9" clip-path="url(#clip0_423_464)">
<path d="M254.414 121.495H0.505859" stroke="#0F0F0F" stroke-miterlimit="10" stroke-linecap="round"/>
<path d="M137.855 25.3924C144.189 13.6954 156.766 4.56501 173.308 1.32879C175.969 0.882418 178.691 0.608507 181.443 0.537493C186.957 0.38532 192.623 1.02445 198.279 2.54618C214.63 6.60412 225.952 19.7925 229.048 33.5387C229.544 35.1924 229.928 36.8866 230.221 38.6213C231.041 43.8054 230.798 48.8981 229.979 53.9198C229.695 55.6343 229.351 57.3488 228.947 59.1038C225.962 78.6327 208.347 100.951 229.999 116.727C231.577 117.751 233.368 118.664 235.412 119.405C239.499 120.886 244.579 121.667 250.831 121.545C256.265 121.434 278.494 121.576 278.494 121.576" stroke="#0F0F0F" stroke-miterlimit="10" stroke-linecap="round"/>
<path d="M137.855 217.607C144.189 229.304 156.766 238.435 173.308 241.671C175.969 242.117 178.691 242.391 181.443 242.462C186.957 242.614 192.623 241.975 198.279 240.454C214.63 236.396 225.952 223.207 229.048 209.461C229.544 207.807 229.928 206.113 230.221 204.378C231.041 199.194 230.798 194.102 229.979 189.08C229.695 187.365 229.351 185.651 228.947 183.896C225.962 164.367 208.347 142.048 229.999 126.273C231.577 125.248 233.368 124.335 235.412 123.595C239.499 122.114 244.579 121.333 250.831 121.454C256.265 121.566 278.494 121.424 278.494 121.424" stroke="#0F0F0F" stroke-miterlimit="10" stroke-linecap="round"/>
</g>
<defs>
<clipPath id="clip0_423_464">
<rect width="279" height="243" fill="white"/>
</clipPath>
</defs>
</svg>
