<svg width="279" height="243" viewBox="0 0 279 243" fill="none" xmlns="http://www.w3.org/2000/svg">
<g opacity="0.9" clip-path="url(#clip0_407_414)">
<path d="M24.5865 121.505L278.494 121.505" stroke="#0F0F0F" stroke-miterlimit="10" stroke-linecap="round"/>
<path d="M141.145 217.608C134.811 229.305 122.234 238.435 105.692 241.671C103.031 242.118 100.309 242.391 97.5568 242.463C92.0426 242.615 86.3766 241.976 80.7207 240.454C64.3702 236.396 53.0483 223.208 49.9523 209.461C49.4565 207.808 49.072 206.113 48.7786 204.379C47.959 199.195 48.2019 194.102 49.0214 189.08C49.3047 187.366 49.6487 185.651 50.0534 183.896C53.0382 164.367 70.6534 142.049 49.0012 126.273C47.4228 125.249 45.6319 124.336 43.5881 123.595C39.5005 122.114 34.4213 121.333 28.1685 121.455C22.7352 121.566 0.506279 121.424 0.506279 121.424" stroke="#0F0F0F" stroke-miterlimit="10" stroke-linecap="round"/>
<path d="M141.145 25.3927C134.811 13.6956 122.234 4.56527 105.692 1.32905C103.031 0.88268 100.309 0.60877 97.5568 0.537755C92.0426 0.385582 86.3766 1.0247 80.7207 2.54643C64.3702 6.60438 53.0483 19.7927 49.9523 33.539C49.4565 35.1926 49.072 36.8868 48.7786 38.6216C47.959 43.8056 48.2019 48.8983 49.0214 53.92C49.3047 55.6345 49.6487 57.349 50.0534 59.1041C53.0382 78.6329 70.6534 100.952 49.0012 116.727C47.4228 117.752 45.6319 118.665 43.5881 119.405C39.5005 120.886 34.4213 121.667 28.1685 121.546C22.7352 121.434 0.506279 121.576 0.506279 121.576" stroke="#0F0F0F" stroke-miterlimit="10" stroke-linecap="round"/>
</g>
<defs>
<clipPath id="clip0_407_414">
<rect width="279" height="243" fill="white" transform="matrix(-1 0 0 -1 279 243)"/>
</clipPath>
</defs>
</svg>
