<svg width="25" height="26" viewBox="0 0 25 26" fill="none" xmlns="http://www.w3.org/2000/svg">
<g clip-path="url(#clip0_407_421)">
<path d="M19.4334 10.2862C17.9737 10.2862 16.73 9.93793 15.7324 9.4309C16.6652 11.0181 17.503 13.1124 17.7535 15.5286C18.1897 14.8937 18.9368 14.2896 19.9603 14.2896C21.5754 14.2896 22.7587 15.4624 22.7587 17.2084C22.7587 19.0514 21.7309 19.9376 20.241 20.9869C17.4426 22.9534 16.6955 26.0044 14.0223 26.0044C12.839 26.0044 11.6298 25.3078 11.6298 23.9719C11.6298 23.2091 12.1264 22.5742 12.934 22.5742C13.6163 22.5742 14.1778 23.0504 14.1778 23.7514C14.1778 24.1306 14.1173 24.1967 14.1173 24.5142C14.1173 24.8007 14.3332 24.9595 14.5837 24.9595C15.5467 24.9595 16.0779 24.0071 16.0779 23.0856C16.0779 22.0054 15.0501 21.3397 14.0871 20.4182C13.2493 19.6554 12.3769 18.7031 12.3769 17.3715C12.3769 15.9122 13.4954 14.8319 15.0501 14.8319C15.8577 14.8319 16.4795 15.2111 16.9459 15.6564C16.6652 13.1168 15.672 10.7977 14.6744 9.40444C14.4239 13.183 11.2541 15.6917 7.70859 15.6917C4.56901 15.6917 2.63862 13.9149 2.63862 11.7545C2.63862 9.59403 4.53446 7.91419 6.62031 7.91419C8.33045 7.91419 9.60442 9.08699 9.60442 10.8021C9.60442 12.041 8.79686 13.4387 7.58335 13.4387C6.86647 13.4387 6.2446 12.8655 6.2446 12.1072C6.2446 11.4723 6.711 11.1857 7.0824 10.8991C7.45379 10.6125 7.79927 10.2951 7.79927 9.75716C7.79927 9.25013 7.45811 8.77395 6.49508 8.77395C5.06564 8.77395 4.13284 10.1055 4.13284 11.7589C4.13284 13.4122 5.16065 14.8364 7.92883 14.8364C10.697 14.8364 13.4954 12.5833 13.4954 9.59844C13.4954 8.70782 13.0593 7.53502 12.5324 6.93098C12.3769 7.24843 12.4719 7.50415 12.4719 7.78633C12.4719 8.04206 12.4417 8.23164 12.256 8.57996C11.9148 9.18399 11.0425 9.43531 10.2954 9.37358C9.88945 8.80041 9.67352 7.84806 10.0147 7.27929C10.2004 6.93098 10.4206 6.77226 10.792 6.5474C10.9777 6.4504 11.0727 6.32695 11.0727 5.94336C11.0727 4.67356 10.0147 3.94167 8.98687 3.94167C8.0843 3.94167 7.49266 4.47957 6.84056 5.05274C6.09345 5.68764 5.25566 6.38426 3.76144 6.38426C0.993263 6.37985 0 4.60302 0 2.91877C0 1.45939 0.993263 0 2.42702 0C3.17412 0 3.79599 0.445311 3.79599 1.23894C3.79599 2.03256 3.26913 2.44701 2.67749 2.6366C2.08585 2.82618 1.71446 3.14363 1.71446 3.84467C1.71446 4.76615 2.36656 5.52891 3.79599 5.52891C4.66834 5.52891 5.91207 5.02188 5.91207 3.9108C5.91207 3.75208 5.85162 3.56249 5.85162 3.56249C5.44567 3.81821 4.94904 3.72121 4.60788 3.46549C4.8238 2.38528 5.75661 1.40207 7.77768 1.40207C10.5156 1.40207 12.1912 3.46549 13.8107 5.52891C15.3049 7.46447 16.7948 9.43531 19.4377 9.43531C21.8647 9.43531 23.5101 7.84806 23.5101 5.78464C23.5101 3.53163 22.3268 2.92759 21.8302 2.92759C21.1133 2.92759 20.8024 3.69035 19.9646 4.35611C19.3729 4.83229 18.5654 5.2776 17.1359 5.2776C14.6182 5.2776 13.1543 3.65949 12.7526 2.2001C12.5972 1.6622 13.3443 1.40648 13.5602 1.91352C13.8409 2.57928 14.398 3.24504 15.7065 3.24504C16.6393 3.24504 17.2914 2.83059 17.8528 2.45142C18.5049 1.97524 19.1268 1.40207 20.3705 1.40207C22.2966 1.40207 25.0043 3.33763 25.0043 5.78464C25.0043 8.23164 22.3311 10.2907 19.4377 10.2907L19.4334 10.2862Z" fill="#0F0F0F"/>
</g>
<defs>
<clipPath id="clip0_407_421">
<rect width="25" height="26" fill="white"/>
</clipPath>
</defs>
</svg>
