<svg width="290" height="114" viewBox="0 0 290 114" fill="none" xmlns="http://www.w3.org/2000/svg">
<g clip-path="url(#clip0_407_402)">
<path d="M212.964 114C207.876 114 203.131 111.577 198.046 106.373C195.984 106.747 193.289 107.16 190.46 107.16C183.545 107.16 176.942 103.519 172.347 97.1743C171.205 95.6113 171.523 93.7063 172.344 92.5141C174.53 89.1324 176.061 84.1046 176.061 80.2913C176.061 75.4777 174.323 72.959 172.605 72.959C171.841 72.959 171.307 72.1855 171.307 71.0732C171.307 69.9608 171.841 69.1873 172.605 69.1873C175.52 69.1873 178.657 72.6617 178.657 80.2882C178.657 84.926 177.019 90.4493 174.371 94.7611C178.549 100.246 184.401 103.385 190.463 103.385C192.051 103.385 193.582 103.206 195.026 103.001C191.134 97.9255 188.91 91.9579 188.91 86.5465C188.91 81.1352 191.395 77.5329 195.399 77.5329C203.096 77.5329 209.53 90.2383 211.564 94.7387C213.562 93.1597 216.486 90.5324 218.654 88.5858L218.819 88.4356C215.271 80.8539 207.615 74.2855 197.235 69.9161C196.305 69.507 195.414 69.1074 194.555 68.7207C188.923 66.1892 184.474 64.1883 178.928 64.118L178.533 64.1116C177.362 64.0956 176.035 64.0764 175.023 64.233C174.632 64.2938 174.225 64.3577 174.11 64.0285C173.992 63.696 174.253 63.5394 175.125 63.028C175.59 62.7531 176.172 62.4111 176.707 62.0276C176.923 61.8709 177.114 61.7303 177.286 61.6025C178.151 60.96 178.626 60.6084 179.567 60.6084C186.775 60.6084 191.29 61.6568 198.151 64.9298C208.798 70.0056 217.123 77.8046 221.066 86.3708C230.79 77.7663 240.041 70.696 254.055 70.696C260.381 70.696 267.273 73.7581 272.498 78.8882C278.271 84.5584 281.45 92.0538 281.45 99.9967C281.45 107.94 278.245 112.951 273.653 112.951C269.062 112.951 266.589 108.122 264.202 103.858C263.894 103.308 263.592 102.765 263.289 102.244C260.903 98.1428 256.912 91.2739 251.805 91.2739C246.698 91.2739 244.645 95.915 244.645 100.227C244.645 103.634 246.462 106.514 248.61 106.514C250.758 106.514 252.648 103.474 252.648 99.8784C252.648 98.5839 253.32 97.9926 253.946 97.9926C254.573 97.9926 255.245 98.5839 255.245 99.8784C255.245 105.712 252.33 110.282 248.61 110.282C244.89 110.282 242.049 105.808 242.049 99.8784C242.049 93.9492 245.1 87.5023 251.802 87.5023C257.74 87.5023 261.876 93.8693 265.288 99.8337C265.498 100.211 265.708 100.598 265.921 100.994C267.897 104.641 270.354 109.177 273.65 109.177C276.947 109.177 278.85 105.571 278.85 99.9903C278.85 93.0447 275.897 86.4826 270.532 81.5187C265.755 77.0982 259.595 74.4613 254.051 74.4613C243.118 74.4613 235.232 81.8224 227.608 88.9406C226.116 90.3342 224.7 91.6543 223.264 92.92C223.589 94.4383 223.958 96.746 223.958 99.4117C223.958 107.994 219.439 113.99 212.97 113.99L212.964 114ZM198.266 105.683L198.383 105.804C203.386 110.957 208.019 113.357 212.964 113.357C219.058 113.357 223.315 107.626 223.315 99.4181C223.315 96.7013 222.924 94.3615 222.596 92.8785L222.555 92.6931L222.698 92.5684C224.178 91.2707 225.629 89.9155 227.169 88.4771C234.526 81.6082 242.863 73.8252 254.048 73.8252C259.747 73.8252 266.07 76.5261 270.958 81.0521C276.454 86.1406 279.48 92.8657 279.48 99.9935C279.48 105.961 277.189 109.819 273.644 109.819C270.099 109.819 267.413 105.095 265.358 101.301C265.144 100.904 264.934 100.521 264.728 100.147C261.409 94.3392 257.393 88.1383 251.795 88.1383C245.53 88.1383 242.679 94.2209 242.679 99.8752C242.679 105.53 245.282 109.64 248.604 109.64C251.926 109.64 254.602 105.351 254.602 99.8752C254.602 99.057 254.268 98.6286 253.94 98.6286C253.612 98.6286 253.278 99.057 253.278 99.8752C253.278 103.887 251.181 107.15 248.604 107.15C246.026 107.15 244.002 103.979 244.002 100.224C244.002 95.6017 246.443 90.6314 251.799 90.6314C257.154 90.6314 261.377 97.6953 263.833 101.918C264.139 102.442 264.441 102.988 264.753 103.541C267.054 107.652 269.663 112.309 273.65 112.309C277.867 112.309 280.81 107.246 280.81 99.9935C280.81 92.2232 277.698 84.8909 272.05 79.342C266.942 74.327 260.215 71.3321 254.051 71.3321C240.107 71.3321 230.908 78.4886 221.161 87.1315L220.836 87.4191L220.661 87.0196C216.859 78.4343 208.557 70.5905 197.877 65.502C191.115 62.2769 186.664 61.2445 179.567 61.2445C178.836 61.2445 178.492 61.5002 177.665 62.1139C177.49 62.2449 177.295 62.3887 177.076 62.5454C176.551 62.9225 175.994 63.255 175.532 63.5266C176.478 63.4403 177.566 63.4563 178.543 63.4723L178.937 63.4787C184.617 63.549 189.117 65.5755 194.816 68.1389C195.675 68.5257 196.563 68.9252 197.486 69.3312C208.108 73.8028 215.926 80.5694 219.497 88.3844L219.595 88.5986L219.08 89.0621C216.789 91.1205 213.648 93.9428 211.637 95.4931L211.316 95.7392L211.15 95.3684C209.362 91.3346 202.937 78.169 195.399 78.169C191.736 78.169 189.547 81.2982 189.547 86.5434C189.547 91.7885 191.85 97.9798 195.866 103.036L196.213 103.471L195.663 103.551C194.037 103.788 192.296 104.018 190.463 104.018C184.137 104.018 178.04 100.719 173.731 94.9625L173.601 94.7867L173.719 94.6013C176.376 90.3598 178.024 84.8717 178.024 80.2818C178.024 73.0932 175.217 69.8202 172.608 69.8202C172.179 69.8202 171.946 70.4627 171.946 71.0668C171.946 71.6709 172.179 72.3133 172.608 72.3133C175.017 72.3133 176.7 75.5896 176.7 80.285C176.7 84.21 175.128 89.3817 172.875 92.8625C172.179 93.8757 171.908 95.4771 172.866 96.7876C177.343 102.966 183.758 106.511 190.466 106.511C193.321 106.511 196.048 106.079 198.103 105.705L198.269 105.677L198.266 105.683ZM212.964 110.867C208.579 110.867 204.986 108.755 200.935 105.584L200.461 105.213L201.031 105.028C205.129 103.692 208.362 102.301 211.204 100.649L211.526 100.463L211.659 100.809C212.334 102.531 212.938 104.305 213.409 105.939C213.505 106.287 213.629 106.444 213.718 106.514C213.798 106.581 213.88 106.597 213.976 106.572C214.374 106.463 214.8 105.667 214.542 104.721C214.262 103.644 213.845 102.416 213.403 101.115C213.279 100.745 213.148 100.367 213.021 99.9839L212.942 99.741L213.161 99.6099C215.525 98.1812 218.151 96.3177 220.967 94.0707L221.361 93.7543L221.473 94.2497C221.759 95.4994 221.988 97.82 221.988 99.4213C221.988 106.162 218.275 110.871 212.961 110.871L212.964 110.867ZM201.801 105.446C205.553 108.329 208.929 110.228 212.964 110.228C217.985 110.228 221.355 105.884 221.355 99.4181C221.355 98.0533 221.183 96.1547 220.957 94.8921C218.361 96.9442 215.926 98.6702 213.708 100.022C213.81 100.323 213.909 100.617 214.008 100.908C214.453 102.218 214.87 103.455 215.156 104.551C215.51 105.84 214.908 106.974 214.144 107.185C213.855 107.265 213.562 107.204 213.32 107.009C213.088 106.821 212.91 106.517 212.798 106.108C212.366 104.606 211.815 102.979 211.201 101.384C208.531 102.902 205.521 104.2 201.798 105.443L201.801 105.446ZM198.205 102.912L198.068 102.765C193.559 97.9223 190.87 91.862 190.87 86.5497C190.87 82.8644 192.563 80.6653 195.399 80.6653C200.951 80.6653 206.501 88.8479 209.845 96.5063L209.947 96.7396L209.744 96.8898C205.97 99.7122 202.259 101.662 198.396 102.851L198.205 102.909V102.912ZM195.399 81.3046C191.885 81.3046 191.507 84.9708 191.507 86.5497C191.507 91.6511 194.081 97.4812 198.399 102.183C202.052 101.032 205.578 99.1784 209.161 96.5319C205.89 89.126 200.592 81.3078 195.402 81.3078L195.399 81.3046Z" fill="#0F0F0F"/>
<path d="M244.811 109.525H241.078V84.4373C241.078 77.3734 239.98 67.6694 234.778 61.3502C234.062 61.7626 233.225 61.916 232.372 61.7498C231.993 62.584 231.761 63.495 231.513 64.4571C231.039 66.3109 230.549 68.2287 228.954 70.0282C227.863 71.2588 226.396 72.662 223.802 73.7136L223.51 73.8319L223.389 73.5378C221.467 68.82 221.82 64.7799 224.413 61.8553C225.616 60.4968 227.796 59.7904 229.661 59.3334C229.553 58.9882 229.495 58.6302 229.495 58.2658C229.495 57.8694 229.559 57.4859 229.686 57.1151C229.638 57.0831 229.594 57.048 229.546 57.016C227.408 56.4407 226.192 56.5142 224.509 56.6197C223.78 56.6644 222.95 56.7156 221.941 56.7156C218.905 56.7156 214.81 55.8174 213.25 53.2891L213.158 53.1389L213.238 52.9791C215.045 49.3129 217.68 47.4558 221.072 47.4558C224.464 47.4558 228.063 51.7517 229.858 53.8165C230.16 54.1649 230.405 54.4462 230.574 54.6252C230.825 54.8074 231.07 54.9864 231.312 55.1685C231.43 55.1014 231.554 55.0407 231.678 54.9895C231.083 53.8836 230.533 52.5188 230.533 50.7225C230.533 46.6344 232.843 43.5148 237.215 41.6992L237.511 41.5778L237.632 41.875C238.762 44.6526 238.914 46.8038 238.914 48.5426C238.914 51.2307 237.571 52.6051 236.385 53.8133C235.885 54.3215 235.411 54.8074 235.058 55.3603C235.996 56.022 236.569 57.1087 236.569 58.269C236.569 58.7516 236.474 59.2215 236.283 59.6658C238.692 62.3954 240.464 65.5374 241.568 69.0374V42.3769C240.493 42.0253 239.599 41.2358 239.115 40.213C238.103 40.149 237.129 40.2034 236.101 40.2577C235.287 40.3025 234.443 40.3504 233.467 40.3504C230.431 40.3504 226.335 39.4522 224.776 36.9271L224.684 36.7769L224.763 36.6171C226.571 32.9509 229.206 31.0939 232.598 31.0939C234.583 31.0939 236.973 32.5514 239.894 35.5495C240.362 35.0701 240.932 34.7153 241.571 34.5075V33.7947C241.046 32.9222 236.83 25.7432 236.83 20.2839C236.83 17.062 238.412 11.0785 242.765 7.80546L242.956 7.66162L243.147 7.80546C247.503 11.0785 249.081 17.0588 249.081 20.2839C249.081 25.7432 244.865 32.9222 244.337 33.7947V34.581C244.935 34.8144 245.466 35.1851 245.899 35.6646C248.871 32.5897 251.299 31.0907 253.31 31.0907C256.702 31.0907 259.34 32.9477 261.145 36.6139L261.224 36.7737L261.132 36.9239C259.573 39.4522 255.474 40.3504 252.442 40.3504C251.465 40.3504 250.621 40.3025 249.807 40.2577C248.661 40.1938 247.662 40.1394 246.567 40.2289C246.115 41.1782 245.317 41.9198 244.34 42.3002V69.0374C245.406 65.6589 247.092 62.6128 249.377 59.9534C249.097 59.4356 248.951 58.8571 248.951 58.269C248.951 56.9873 249.641 55.8142 250.736 55.1877C250.395 54.7051 249.972 54.2704 249.524 53.8165C248.34 52.6051 246.994 51.2339 246.994 48.5458C246.994 46.807 247.146 44.6558 248.276 41.8782L248.397 41.581L248.693 41.7024C253.065 43.518 255.375 46.6376 255.375 50.7257C255.375 52.5731 254.806 53.9475 254.147 55.1398C254.239 55.1909 254.332 55.2453 254.421 55.3028C254.749 55.0535 255.045 54.8329 255.331 54.6284C255.503 54.4494 255.745 54.1713 256.047 53.8197C257.838 51.7549 261.571 47.459 264.833 47.459C268.094 47.459 270.863 49.3193 272.667 52.9823L272.747 53.1421L272.654 53.2923C271.095 55.8206 266.997 56.7156 263.964 56.7156C262.955 56.7156 262.125 56.6644 261.396 56.6197C259.716 56.5142 258.497 56.4407 256.359 57.0192C256.206 57.1279 256.05 57.2334 255.894 57.3388C255.977 57.6457 256.018 57.9557 256.018 58.269C256.018 58.6014 255.971 58.9306 255.881 59.2502C257.998 59.7521 260.254 60.4648 261.492 61.8616C264.085 64.7863 264.438 68.8232 262.516 73.5442L262.395 73.8383L262.103 73.72C259.509 72.6684 258.042 71.2684 256.951 70.0346C255.356 68.2383 254.866 66.3173 254.392 64.4634C254.138 63.4726 253.899 62.5297 253.495 61.6731C252.677 61.9192 251.783 61.8553 251.016 61.5005C245.905 67.8292 244.827 77.4533 244.827 84.4469V109.535L244.811 109.525ZM241.715 108.886H244.174V84.4373C244.174 77.2647 245.301 67.3593 250.669 60.8868L250.838 60.6822L251.067 60.8101C251.808 61.2224 252.718 61.2895 253.52 60.9731L253.788 60.8676L253.921 61.1233C254.43 62.111 254.704 63.1721 254.99 64.2972C255.445 66.0776 255.916 67.9187 257.409 69.6031C258.411 70.7314 259.741 72.01 262.029 72.9976C263.235 69.894 263.961 65.6205 260.998 62.2836C259.811 60.9475 257.492 60.2731 255.379 59.7904L255.013 59.7073L255.153 59.3589C255.293 59.0105 255.366 58.6429 255.366 58.2658C255.366 57.943 255.312 57.6233 255.204 57.3101L255.121 57.0768L255.328 56.9393C255.56 56.7859 255.792 56.6261 256.018 56.4631L256.066 56.4311L256.12 56.4151C258.395 55.795 259.729 55.8749 261.418 55.9804C262.141 56.0252 262.958 56.0763 263.948 56.0763C266.214 56.0763 270.405 55.4466 272.002 53.1005C270.316 49.7795 267.9 48.0951 264.817 48.0951C261.733 48.0951 258.243 52.2439 256.512 54.2384C256.19 54.6092 255.936 54.9033 255.751 55.0918L255.706 55.1302C255.363 55.3763 255.013 55.6384 254.602 55.9516L254.408 56.0987L254.214 55.9516C254.007 55.795 253.788 55.6672 253.562 55.5745L253.224 55.437L253.406 55.1206C254.087 53.9348 254.717 52.5795 254.717 50.7225C254.717 46.075 251.528 43.649 248.725 42.4152C247.745 44.9467 247.611 46.9284 247.611 48.5394C247.611 50.9654 248.804 52.1832 249.956 53.3626C250.516 53.9348 251.048 54.4749 251.449 55.143L251.636 55.4562L251.306 55.6032C250.249 56.0667 249.568 57.1151 249.568 58.269C249.568 58.8155 249.724 59.3525 250.017 59.8192L250.144 60.0206L249.988 60.1996C247.175 63.4183 245.269 67.2315 244.314 71.5241L243.684 74.3593V41.8399L243.904 41.7696C244.868 41.4563 245.648 40.7372 246.042 39.8006L246.115 39.6248L246.303 39.6057C247.519 39.4906 248.636 39.5513 249.823 39.6184C250.631 39.6632 251.465 39.7079 252.422 39.7079C254.688 39.7079 258.879 39.0783 260.476 36.7322C258.79 33.4112 256.375 31.7267 253.294 31.7267C251.436 31.7267 249.014 33.2865 246.096 36.3614L245.839 36.6331L245.613 36.3326C245.177 35.7509 244.585 35.3258 243.904 35.1052L243.684 35.0349V33.6094L243.732 33.5326C243.78 33.4559 248.429 25.7944 248.429 20.2775C248.429 17.2314 246.962 11.6219 242.94 8.45751C238.918 11.6187 237.451 17.2314 237.451 20.2775C237.451 25.7944 242.1 33.4559 242.147 33.5326L242.195 33.6094V34.9902L241.956 35.0509C241.234 35.2395 240.607 35.6422 240.136 36.2144L239.91 36.4924L239.662 36.2335C236.798 33.245 234.418 31.7267 232.585 31.7267C229.505 31.7267 227.09 33.4112 225.4 36.7322C227 39.0751 231.191 39.7079 233.454 39.7079C234.412 39.7079 235.249 39.6632 236.054 39.6184C237.164 39.5577 238.214 39.5002 239.338 39.5865L239.532 39.6025L239.608 39.7847C240.025 40.7915 240.903 41.5554 241.953 41.8271L242.192 41.8878V74.3593L241.562 71.5241C240.582 67.11 238.596 63.2105 235.656 59.9343L235.509 59.7712L235.608 59.5763C235.815 59.1639 235.92 58.7229 235.92 58.269C235.92 57.227 235.36 56.2585 234.453 55.7407L234.179 55.5841L234.332 55.3092C234.739 54.5676 235.312 53.9859 235.917 53.3658C237.069 52.1864 238.262 50.9686 238.262 48.5426C238.262 46.9284 238.125 44.9499 237.148 42.4184C234.345 43.6522 231.156 46.0782 231.156 50.7257C231.156 52.5572 231.786 53.922 232.404 55.0119L232.604 55.3635L232.216 55.4754C231.945 55.5553 231.688 55.6704 231.452 55.8238L231.265 55.9453L231.086 55.811C230.787 55.5841 230.482 55.3571 230.167 55.1302L230.122 55.0918C229.938 54.9033 229.683 54.6092 229.362 54.2384C227.631 52.2439 224.028 48.0951 221.056 48.0951C218.084 48.0951 215.561 49.7795 213.874 53.1005C215.475 55.4434 219.666 56.0763 221.928 56.0763C222.918 56.0763 223.736 56.0252 224.458 55.9804C226.148 55.8749 227.481 55.7918 229.756 56.4151L229.81 56.4311L229.858 56.4663C229.985 56.5558 230.113 56.6452 230.24 56.7347L230.456 56.8818L230.351 57.1247C230.195 57.4891 230.119 57.8726 230.119 58.269C230.119 58.6653 230.202 59.0649 230.364 59.4356L230.517 59.7872L230.144 59.8735C228.302 60.3082 226.036 60.9763 224.875 62.2836C221.912 65.6237 222.641 69.8972 223.844 72.9976C226.135 72.01 227.462 70.7314 228.464 69.6031C229.957 67.9219 230.428 66.0776 230.883 64.2972C231.16 63.2137 231.42 62.1941 231.895 61.2384L232.009 61.005L232.261 61.0722C233.12 61.3055 233.963 61.1393 234.647 60.6694L234.883 60.5064L235.067 60.7238C240.547 67.1835 241.696 77.1848 241.696 84.4373V108.886H241.715Z" fill="#0F0F0F"/>
<path d="M123.275 109.362H118.648L112.09 98.6256L105.532 109.362H100.905L94.3497 98.7535L87.9536 109.362H83.3236L76.7684 98.6256L70.2101 109.362H65.5833L59.0281 98.7535L52.632 109.362H48.002L47.9097 109.209L34.7675 87.5344C31.5854 82.2125 30.2871 78.7125 30.2871 75.4555C30.2871 71.7414 32.0023 68.1263 34.7675 63.5044L48.0052 42.0571H52.632L59.0281 52.5443L65.5833 42.0571H70.2069L76.7653 52.6721L83.3236 42.0571H87.9504L94.3465 52.5443L100.902 42.0571H105.525L112.084 52.6721L118.642 42.0571H123.266L136.5 63.5012C139.269 68.1295 140.984 71.7414 140.984 75.4587C140.984 78.7189 139.685 82.2189 136.503 87.5376L123.269 109.365L123.275 109.362ZM119.005 108.723H122.919L135.966 87.2052C139.084 81.9952 140.354 78.5879 140.354 75.4555C140.354 72.3231 139.164 69.1811 135.962 63.8337L122.916 42.6964H118.998L112.087 53.8835L105.175 42.6964H101.258L94.3433 53.7557L87.5972 42.6964H83.68L76.7684 53.8835L69.8569 42.6964H65.9397L59.0249 53.7557L52.2788 42.6964H48.3616L35.3149 63.8401C32.1168 69.1843 30.9267 72.3359 30.9267 75.4587C30.9267 78.5815 32.1996 81.9952 35.3181 87.2084L48.3648 108.726H52.2788L59.0249 97.5325L65.9397 108.726H69.8569L76.7684 97.4078L83.68 108.726H87.594L94.3402 97.5325L101.255 108.726H105.172L112.087 97.4078L118.998 108.726L119.005 108.723ZM103.221 106.23L96.1126 94.7229L100.644 87.2116L103.237 82.35L103.508 82.9221C104.1 84.1782 104.876 85.5367 105.952 87.1924L110.327 94.5951L103.221 106.226V106.23ZM96.8572 94.7197L103.218 105.012L109.583 94.5919L105.411 87.5344C104.485 86.1056 103.772 84.8878 103.209 83.7627L101.194 87.5376L96.8604 94.7197H96.8572ZM67.903 106.23L60.7942 94.7229L65.3255 87.2116L67.9189 82.35L68.1894 82.9221C68.7877 84.191 69.5418 85.5111 70.6333 87.1924L75.0087 94.5951L67.903 106.226V106.23ZM61.5388 94.7197L67.8999 105.012L74.2641 94.5919L70.0923 87.5344C69.1504 86.0801 68.4535 84.891 67.8871 83.7627L65.8728 87.5376L61.5388 94.7197ZM50.3218 106.23L38.7166 87.4129C35.7317 82.6856 34.3984 78.997 34.3984 75.4587C34.3984 71.9204 35.649 68.6122 38.7197 63.7538L50.325 45.1991L57.437 56.5716L52.8961 63.8369C49.6981 69.1843 48.508 72.3359 48.508 75.4555C48.508 78.5751 49.7808 81.992 52.8993 87.2052L57.4338 94.7229L50.325 106.226L50.3218 106.23ZM50.3218 46.4009L39.2575 64.0958C36.26 68.8455 35.0348 72.1377 35.0348 75.4587C35.0348 78.7797 36.3363 82.4522 39.2575 87.0741L50.325 105.018L56.686 94.7229L52.352 87.5408C49.1699 82.2189 47.8715 78.7189 47.8715 75.4619C47.8715 71.7478 49.5867 68.1359 52.352 63.5108V63.5044L56.686 56.578L50.3281 46.4041L50.3218 46.4009ZM120.959 106.226L113.681 94.5983L118.219 87.2052C121.334 81.9952 122.607 78.5911 122.607 75.4587C122.607 72.3263 121.417 69.1875 118.216 63.8369L113.675 56.7027L120.952 45.2023L132.554 63.7538C135.622 68.6122 136.876 72.0035 136.876 75.4587C136.876 78.9139 135.542 82.6856 132.554 87.4161L120.952 106.226H120.959ZM114.432 94.5951L120.955 105.018L132.02 87.0741C134.941 82.449 136.242 78.866 136.242 75.4555C136.242 72.045 135.02 68.8423 132.02 64.0926L120.952 46.3945L114.432 56.6963L118.76 63.4949C121.531 68.1263 123.247 71.7414 123.247 75.4555C123.247 78.7125 121.948 82.2125 118.766 87.5344L114.432 94.5919V94.5951ZM85.6402 106.226L78.3627 94.5983L82.8972 87.2116L85.4907 82.3532L85.7611 82.9253C86.3594 84.1974 87.1135 85.5143 88.205 87.1956L92.7459 94.7229L85.6402 106.223V106.226ZM79.1137 94.5951L85.637 105.021L92.0013 94.7229L87.6672 87.5408C86.7253 86.0865 86.0253 84.8942 85.462 83.7659L83.4477 87.5408L79.1169 94.5951H79.1137ZM94.337 92.0412L91.6067 87.4097C88.6251 82.6856 87.2917 79.0002 87.2917 75.4587V74.698C87.4668 71.4217 88.7619 68.1551 91.6131 63.7506L94.3338 59.2693L97.2391 63.7506C100.31 68.6154 101.56 72.0067 101.56 75.4587V76.2194C101.395 79.3934 100.103 82.7367 97.2422 87.4129L94.3338 92.0412H94.337ZM94.3529 60.4679L92.1508 64.0894C89.3569 68.4012 88.0936 71.5752 87.925 74.7139V75.4587C87.925 78.8692 89.2265 82.4522 92.1477 87.0741L94.3497 90.817L96.7013 87.0773C99.5016 82.5002 100.765 79.2495 100.924 76.2034V75.4587C100.924 72.1377 99.702 68.8455 96.7013 64.0958L94.3497 60.4679H94.3529ZM59.0185 92.0412L56.2883 87.4097C53.3066 82.6856 51.9733 78.997 51.9733 75.4587C51.9733 71.9204 53.2239 68.6154 56.2946 63.7538L59.0185 59.2693L61.9238 63.7506C64.8323 68.5035 66.0829 71.6678 66.2451 74.682V74.698V75.4587C66.2451 78.997 64.9118 82.6856 61.9238 87.4161L59.0185 92.0412ZM59.0344 60.4679L56.8324 64.0894C53.8317 68.8423 52.6066 72.1345 52.6066 75.4555C52.6066 78.7765 53.908 82.449 56.8292 87.0709L59.0344 90.8106L61.386 87.0709C64.3072 82.4458 65.6087 78.866 65.6087 75.4555V74.7044C65.4496 71.8085 64.2245 68.7336 61.386 64.0894L59.0376 60.4647L59.0344 60.4679ZM112.087 91.9165L109.35 87.4129C106.502 83.0212 105.21 79.6746 105.032 76.2354V75.4587C105.032 72.0035 106.283 68.6122 109.353 63.7538L112.087 59.3972L114.82 63.7538C117.888 68.6154 119.142 72.0067 119.142 75.4587C119.142 78.9107 117.808 82.6856 114.82 87.4161L112.087 91.9133V91.9165ZM112.087 60.5958L109.891 64.0958C106.894 68.8455 105.669 72.1377 105.669 75.4587V76.2194C105.84 79.5212 107.1 82.7719 109.888 87.0709L112.087 90.6892L114.279 87.0805C117.201 82.4522 118.505 78.8692 118.505 75.4587C118.505 72.0482 117.283 68.8455 114.283 64.0958L112.087 60.5958ZM76.7684 91.9165L74.0318 87.4129C71.187 83.0212 69.8919 79.6746 69.7137 76.2354V74.698C69.8887 71.4217 71.1806 68.1551 74.035 63.7506L76.7653 59.3972L79.4987 63.757C82.5663 68.6154 83.82 72.0067 83.82 75.4619C83.82 78.9171 82.4867 82.6888 79.4987 87.4193L76.7653 91.9165H76.7684ZM76.7684 60.5958L74.5728 64.0958C71.7821 68.4044 70.5187 71.5784 70.3501 74.7171V76.2194C70.5219 79.5212 71.7852 82.7719 74.5696 87.0709L76.7684 90.6892L78.9609 87.0805C81.8821 82.4522 83.1836 78.8692 83.1836 75.4587C83.1836 72.0482 81.9617 68.8455 78.9609 64.0958L76.7653 60.5958H76.7684ZM67.9158 68.6921L65.3191 63.8241L60.7878 56.5748L67.8999 45.1991L75.0087 56.7027L70.6333 63.8401C70.4201 64.1948 70.2164 64.5337 70.016 64.8597C69.3064 66.0295 68.6922 67.0396 68.1862 68.1167L67.9158 68.6889V68.6921ZM61.5388 56.5748L65.8665 63.5012L67.8839 67.2825C68.3454 66.3811 68.8736 65.5085 69.4718 64.5273C69.6691 64.2012 69.876 63.8624 70.0892 63.5076L74.2577 56.7027L67.8967 46.4041L61.5388 56.5748ZM85.4907 68.6921L82.894 63.8241L78.3627 56.7027L85.6402 45.2023L92.7491 56.5748L88.2082 63.8433C87.9982 64.1949 87.7913 64.5369 87.594 64.8629C86.8844 66.0327 86.2703 67.0428 85.7643 68.1199L85.4938 68.6921H85.4907ZM79.1169 56.7027L83.4445 63.5012L85.4652 67.2857C85.9266 66.3843 86.4548 65.5149 87.0531 64.5305C87.2504 64.2044 87.4572 63.8656 87.6704 63.5108L92.0013 56.578L85.6402 46.4041L79.12 56.7059L79.1169 56.7027ZM103.234 68.6921L100.634 63.8241L96.1031 56.5748L103.215 45.1991L110.321 56.7027L105.945 63.8401C105.735 64.1917 105.529 64.5305 105.331 64.8565C104.618 66.0295 104.004 67.0396 103.498 68.1199L103.228 68.6921H103.234ZM96.8572 56.5748L101.185 63.5012L103.202 67.2825C103.664 66.3811 104.195 65.5053 104.793 64.5209C104.991 64.198 105.194 63.8592 105.408 63.5044L109.576 56.6995L103.215 46.4009L96.8572 56.5716V56.5748Z" fill="#0F0F0F"/>
<path d="M270.987 107.828L270.774 107.633C268.2 105.306 267.671 102.343 267.681 100.269C267.687 98.6066 267.974 97.2961 268.55 96.2605C268.744 95.9792 268.74 95.813 268.721 95.781H268.655C268.515 95.7491 268.231 96.4363 268.094 96.7655C267.687 97.9353 267.245 98.8303 266.322 99.6262C265.431 100.416 263.035 102.03 260.101 99.8979L259.955 99.7924L259.967 99.6134C260.222 96.4586 261.329 94.0774 263.347 92.3354C264.037 91.7984 265.281 91.2678 266.675 91.3765C265.838 87.1446 262.752 82.3245 260.795 82.3053H260.776C260.257 82.3053 259.796 82.5035 259.404 82.8902C258.793 83.4975 258.408 84.53 258.402 85.5879C258.395 86.7418 258.659 87.445 259.064 88.3847C259.525 89.7559 259.729 90.571 259.722 91.8304C259.716 93.4733 259.235 94.8317 258.373 95.65C257.778 96.2157 257.027 96.4938 256.184 96.4522C255.436 96.4778 254.745 96.1774 254.131 95.586C252.874 94.365 252.107 91.9326 252.082 89.0815C252.111 83.0884 255.589 77.9935 259.678 77.9519C262.628 78.0574 265.663 81.2601 268.025 86.7418C268.581 87.9788 269.033 89.2989 269.431 90.4687C269.905 91.8591 270.554 93.7577 270.958 93.7577C270.958 93.7577 270.962 93.7577 270.968 93.7577C271.49 93.7577 272.206 91.7281 272.779 90.098C273.141 89.0687 273.552 87.9021 274.02 86.8089C276.457 81.3209 279.512 78.1821 282.408 78.1821C282.42 78.1821 282.433 78.1821 282.449 78.1821C286.513 78.2236 289.968 83.4208 289.994 89.5322C289.981 92.2107 289.189 94.6495 287.926 95.8993C287.302 96.5162 286.554 96.8326 285.809 96.8326C283.684 96.8102 282.265 94.8956 282.277 92.0637C282.284 90.7212 282.532 89.8838 283.019 88.7171L283.13 88.4007C283.413 87.5984 283.661 86.908 283.709 85.914C283.668 84.2902 282.805 82.5323 281.291 82.5163H281.278C279.2 82.5163 276.225 87.5121 275.337 91.4692C276.712 91.4085 277.981 91.9934 278.691 92.5623C280.718 94.365 281.781 96.7431 281.959 99.8435L281.969 100.026L281.819 100.128C278.774 102.212 276.333 100.409 275.658 99.8084C274.771 98.9869 274.389 98.1367 273.861 96.8326C273.676 96.3372 273.491 95.8897 273.288 95.7778C273.269 95.8385 273.237 96.0527 273.393 96.286C273.816 97.0691 274.303 98.3668 274.293 100.259C274.201 103.356 273.154 105.837 271.188 107.639L270.974 107.834L270.987 107.828ZM268.76 95.1481C268.989 95.1609 269.183 95.2856 269.288 95.487C269.441 95.7874 269.367 96.1901 269.087 96.5961C268.581 97.5102 268.324 98.7184 268.317 100.269C268.308 102.154 268.772 104.82 270.984 106.955C272.68 105.293 273.584 103.033 273.67 100.24C273.676 98.4915 273.234 97.2993 272.861 96.6089C272.623 96.2605 272.575 95.8002 272.756 95.4646C272.874 95.244 273.078 95.113 273.307 95.113H273.313L273.377 95.1194C273.921 95.2376 274.169 95.8034 274.465 96.5897C274.955 97.8011 275.312 98.5938 276.098 99.3225C276.67 99.8308 278.726 101.352 281.323 99.6869C281.125 96.855 280.132 94.6815 278.29 93.0418C277.749 92.6103 276.432 91.9199 274.993 92.1372L274.548 92.2043L274.631 91.76C275.369 87.8573 278.557 81.8642 281.284 81.8642H281.304C283.238 81.8834 284.301 83.9131 284.352 85.9076C284.298 87.0199 284.024 87.787 283.735 88.6021L283.617 88.9313C283.146 90.0628 282.923 90.8107 282.917 92.0541C282.904 94.544 284.043 96.1646 285.819 96.1806H285.838C286.427 96.1806 286.98 95.9281 287.48 95.4326C288.626 94.2979 289.345 92.0349 289.357 89.5226C289.332 83.7533 286.163 78.8469 282.443 78.8117C279.837 78.799 276.909 81.8674 274.605 87.0551C274.147 88.1226 273.74 89.2797 273.38 90.2993C272.514 92.7573 271.942 94.3874 270.993 94.3874H270.984C270.968 94.3874 270.952 94.3874 270.936 94.3874C270.099 94.3874 269.59 92.8979 268.83 90.6637C268.435 89.5098 267.989 88.2025 267.442 86.9879C265.18 81.7396 262.348 78.6775 259.668 78.5784C255.999 78.6168 252.744 83.5167 252.718 89.0687C252.744 91.7089 253.454 94.0262 254.574 95.1162C255.057 95.586 255.608 95.829 256.19 95.8034C256.887 95.8418 257.46 95.6276 257.934 95.1769C258.659 94.4865 259.076 93.2623 259.083 91.8176C259.089 90.6413 258.905 89.9094 258.469 88.6021C258.055 87.6432 257.759 86.8505 257.765 85.5752C257.772 84.3542 258.227 83.1492 258.955 82.4268C259.471 81.9154 260.104 81.6437 260.801 81.6565C263.35 81.682 266.669 87.3299 267.379 91.6865L267.452 92.1276L267.013 92.0509C265.73 91.8304 264.451 92.2778 263.751 92.8212C261.918 94.4066 260.887 96.5865 260.62 99.476C263.022 101.119 264.954 99.9778 265.905 99.134C266.631 98.5075 267.048 97.8267 267.499 96.5258C267.824 95.7459 268.123 95.0267 268.76 95.1386V95.1481ZM270.79 81.9314C270.764 81.9314 270.736 81.9314 270.71 81.9314C269.619 81.9218 269.281 80.5154 269.011 79.3871C268.906 78.9428 268.728 78.2044 268.572 78.1213C268.419 78.1213 268.324 78.3131 268.155 78.7191C267.945 79.2273 267.655 79.9209 266.812 79.9209H266.796C265.676 79.8154 264.973 78.8181 264.979 77.3766C264.986 76.2451 265.262 75.1743 265.507 74.2282C265.717 73.4132 265.918 72.6428 265.921 71.946C265.905 71.6999 265.842 71.3451 265.619 71.1502C265.469 71.0223 265.256 70.968 264.979 70.9935H264.973C264.333 70.9935 263.509 71.8725 262.682 73.4036L262.663 73.4355C261.829 74.6342 260.887 75.9926 259.165 76.0629H259.146H259.127C258.084 75.9702 256.995 75.2319 257.068 73.4259C257.075 72.3296 257.536 71.9173 257.877 71.6168C258.119 71.4027 258.265 71.2716 258.268 70.9264C258.284 70.5397 257.972 70.3447 257.415 70.0315C256.709 69.6351 255.741 69.0917 255.748 67.6694C255.719 66.1831 256.722 65.6717 257.45 65.2977C258.061 64.9845 258.309 64.8214 258.3 64.4762C258.3 64.1183 258.154 63.9808 257.912 63.7571C257.568 63.4406 257.1 63.0059 257.072 61.8585C257.075 61.0242 257.317 60.353 257.765 59.9087C258.141 59.5379 258.64 59.343 259.213 59.343H259.239C260.916 59.3589 261.918 60.8452 262.723 62.0407L262.742 62.0694C263.557 63.626 264.378 64.521 264.986 64.5274C265.336 64.5274 265.565 64.4507 265.714 64.2941C265.867 64.1342 265.934 63.8785 265.912 63.5365C265.937 62.8365 265.749 62.0598 265.549 61.2352C265.323 60.3082 265.068 59.2567 265.071 58.1443C265.04 57.2653 265.297 56.495 265.775 56.0443C266.099 55.7375 266.503 55.5905 266.943 55.6384C267.77 55.6448 268.053 56.348 268.26 56.8626C268.425 57.2749 268.521 57.4667 268.69 57.4699C268.83 57.4571 269.049 56.5877 269.154 56.169C269.431 55.0567 269.778 53.6759 270.904 53.6279C272.021 53.6375 272.362 55.0343 272.639 56.1562C272.74 56.5717 272.947 57.4188 273.119 57.5051C273.243 57.4667 273.326 57.2909 273.46 56.9489C273.657 56.4567 273.953 55.7151 274.882 55.7151H274.901C275.948 55.7247 276.661 56.7188 276.715 58.2466C276.712 59.3941 276.416 60.4457 276.155 61.3726C275.932 62.1685 275.722 62.9196 275.719 63.6132C275.76 64.3164 276.075 64.6393 276.747 64.6457C276.763 64.6457 276.779 64.6457 276.794 64.6457C277.539 64.6457 278.608 62.8845 278.965 62.2996L279.136 62.047C279.973 60.8324 280.839 59.5763 282.405 59.5763H282.433C283.741 59.5891 284.578 60.5895 284.572 62.1238C284.6 63.2936 284.113 63.6963 283.757 63.9904C283.512 64.195 283.375 64.3068 283.372 64.6361C283.372 65.0612 283.703 65.2721 284.288 65.6077C285.03 66.0329 285.953 66.5634 285.946 67.973C285.94 69.4242 284.934 69.9388 284.199 70.3159C283.652 70.5972 283.343 70.7698 283.34 71.1022C283.321 71.505 283.48 71.6488 283.747 71.8885C284.094 72.2018 284.572 72.6301 284.568 73.7168C284.505 75.3182 283.665 76.3026 282.376 76.3026H282.347C280.763 76.2867 279.907 75.0049 279.076 73.7648L278.917 73.5282C278.548 72.9049 277.456 71.0639 276.737 71.1182C276.336 71.1118 276.072 71.1949 275.913 71.3515C275.754 71.5082 275.674 71.7671 275.674 72.1282C275.693 72.7323 275.872 73.4323 276.063 74.1739C276.314 75.1552 276.6 76.2707 276.565 77.4277C276.562 78.3707 276.301 79.1314 275.833 79.5565C275.528 79.8346 275.143 79.9688 274.72 79.9305C273.826 79.9688 273.555 79.2305 273.38 78.7446C273.227 78.3227 273.151 78.1789 273.005 78.1789C272.826 78.1789 272.597 79.0738 272.486 79.5054C272.206 80.5953 271.859 81.9441 270.783 81.9441L270.79 81.9314ZM268.581 77.4821H268.591C269.211 77.4885 269.406 78.2971 269.628 79.2337C269.848 80.1446 270.118 81.2825 270.729 81.2889C271.305 81.3209 271.582 80.461 271.872 79.3327C272.12 78.3611 272.343 77.5108 273.011 77.5268C273.622 77.5332 273.826 78.099 273.978 78.5113C274.182 79.0738 274.303 79.2976 274.71 79.2784H274.732H274.755C275.009 79.3008 275.226 79.2305 275.404 79.0707C275.735 78.7702 275.923 78.1629 275.929 77.4022C275.964 76.3282 275.7 75.3054 275.448 74.3177C275.248 73.541 275.06 72.8091 275.038 72.1218C275.038 71.5753 275.184 71.1629 275.467 70.8817C275.754 70.6004 276.177 70.463 276.715 70.4662C277.67 70.3799 278.596 71.7159 279.455 73.1702L279.604 73.3908C280.378 74.5447 281.106 75.6346 282.354 75.6442H282.373C283.311 75.6442 283.881 74.9314 283.932 73.6848C283.935 72.8986 283.639 72.6301 283.324 72.3488C283.019 72.0739 282.669 71.7607 282.704 71.0671C282.707 70.3447 283.346 70.0155 283.91 69.7278C284.626 69.3602 285.303 69.015 285.31 67.9538C285.313 66.915 284.664 66.5411 283.973 66.1447C283.391 65.8123 282.732 65.4351 282.739 64.6169C282.739 63.9872 283.082 63.7059 283.356 63.479C283.681 63.2137 283.961 62.9804 283.938 62.1142C283.945 60.9219 283.378 60.2092 282.43 60.1996H282.408C281.173 60.1996 280.438 61.2671 279.662 62.3954L279.499 62.632C278.637 64.0543 277.698 65.3712 276.712 65.2657C275.735 65.2561 275.146 64.6712 275.086 63.6132C275.086 62.8142 275.312 62.0215 275.547 61.184C275.808 60.2539 276.078 59.2918 276.082 58.2434C276.04 57.0991 275.576 56.348 274.898 56.3416H274.885C274.408 56.3416 274.255 56.658 274.051 57.1726C273.889 57.5786 273.689 58.0868 273.138 58.1347H273.11H273.081C272.457 58.074 272.257 57.2494 272.021 56.2937C271.786 55.338 271.522 54.2576 270.914 54.2512C270.281 54.2768 270.01 55.3571 269.771 56.3064C269.539 57.2398 269.336 58.0421 268.712 58.09C268.075 58.0836 267.853 57.5306 267.671 57.0864C267.445 56.527 267.299 56.2649 266.911 56.2617C266.628 56.2361 266.405 56.316 266.214 56.4982C265.873 56.8179 265.686 57.4284 265.711 58.1252C265.708 59.1704 265.943 60.1356 266.169 61.0722C266.379 61.9384 266.58 62.7598 266.548 63.5205C266.577 64.016 266.453 64.4315 266.176 64.7256C265.899 65.0164 265.485 65.1539 264.982 65.1571C264.095 65.1475 263.156 64.211 262.188 62.3731C261.396 61.1968 260.572 59.9854 259.232 59.9726C258.809 59.963 258.472 60.1005 258.214 60.3562C257.886 60.679 257.711 61.1936 257.708 61.8457C257.73 62.7151 258.029 62.99 258.344 63.2808C258.624 63.5397 258.94 63.8306 258.936 64.4603C258.965 65.2338 258.316 65.5662 257.743 65.8603C257.033 66.2246 256.365 66.5666 256.387 67.6598C256.381 68.7146 257.037 69.0821 257.73 69.4689C258.3 69.7885 258.943 70.1497 258.908 70.936C258.908 71.5561 258.583 71.8406 258.303 72.0899C258.001 72.3584 257.714 72.6109 257.711 73.4355C257.663 74.6054 258.195 75.3246 259.169 75.4173C260.556 75.3501 261.361 74.1963 262.138 73.0775C263.118 71.2684 264.063 70.3511 264.947 70.3511H264.96C265.383 70.3159 265.759 70.4182 266.042 70.6643C266.357 70.936 266.532 71.3611 266.564 71.9269C266.564 72.7228 266.351 73.5314 266.128 74.388C265.88 75.3405 265.625 76.3282 265.619 77.3798C265.616 78.4633 266.09 79.2113 266.831 79.2816H266.838C267.191 79.2816 267.34 79.0227 267.569 78.4729C267.754 78.0318 267.98 77.4853 268.585 77.4853L268.581 77.4821ZM270.796 71.6776H270.771C269.227 71.6616 267.98 69.8812 267.993 67.7045C268.002 65.6173 269.259 63.8594 270.793 63.7858H270.812C272.384 63.8018 273.657 65.6205 273.644 67.8388C273.638 69.0981 273.224 70.2264 272.505 70.9392C272.015 71.425 271.423 71.6808 270.796 71.6808V71.6776ZM270.815 64.4251C269.638 64.4922 268.635 65.9913 268.629 67.7077C268.62 69.6862 269.733 71.0287 270.777 71.0383C271.235 71.0447 271.684 70.8497 272.059 70.4821C272.658 69.8908 273.005 68.9255 273.011 67.8356C273.02 65.9721 272.037 64.4443 270.818 64.4251H270.815Z" fill="#0F0F0F"/>
<path d="M189.493 110.391C187.291 110.391 185.496 108.295 185.496 105.715C185.496 102.797 187.1 101.947 188.802 101.049L188.946 100.972C190.263 100.265 190.934 99.4919 190.934 97.2097C190.934 94.9276 189.356 92.3449 185.897 92.3449C183.918 92.3449 180.78 93.6938 180.78 97.3152C180.78 97.5518 180.818 97.7116 180.857 97.8778C180.86 97.8906 180.863 97.9034 180.866 97.9193C182.199 97.2481 183.533 98.1782 184.001 98.5043L184.163 98.6193L184.131 98.8175C183.593 102.206 181.213 105.827 176.141 105.827C168.287 105.827 164.014 98.8974 159.88 92.1947L159.775 92.0221C156.068 85.9107 152.237 79.5916 145.681 79.5916C139.798 79.5916 135.527 84.4724 135.527 91.1975C135.527 97.9225 138.222 100.211 139.527 100.211C140.663 100.211 141.545 99.1084 142.658 97.7116C143.148 97.1011 143.699 96.4075 144.332 95.7458C146.334 93.697 148.615 92.7445 151.517 92.7445C158.302 92.7445 161.99 97.9065 163.18 102.736C163.364 103.449 163.221 104.107 162.785 104.536C162.426 104.891 161.917 105.031 161.452 104.9C160.978 104.769 160.625 104.376 160.485 103.826C159.781 101.09 158.203 99.8147 155.517 99.8147C153.719 99.8147 151.963 100.588 150.295 102.116C149.993 102.369 149.71 102.615 149.424 102.864C147.753 104.322 146.028 105.83 143.043 105.83C137.382 105.83 131.053 99.5718 131.053 91.1975C131.053 82.8231 137.888 76.1524 145.681 76.1524H145.971C144.937 74.7172 143.839 74.5095 142.884 74.5095C141.446 74.5095 140.752 74.8483 139.947 75.2382C139.05 75.6761 138.032 76.1684 135.849 76.1684C130.56 76.1684 126.258 70.5812 126.258 63.7155C126.258 61.1776 127.034 59.6626 128.336 59.6626C129.834 59.6626 130.028 61.2799 130.092 61.8105C130.394 64.8598 131.607 66.4036 133.694 66.4036C134.436 66.4036 134.938 66.052 135.514 65.6429C136.25 65.1251 137.083 64.537 138.569 64.537C143.435 64.537 147.482 70.5237 149.373 76.5168C152.014 77.1848 154.391 78.2524 156.615 79.7706C155.61 75.6889 154.015 72.1346 151.495 68.3534C148.701 64.1726 144.373 60.0206 139.919 57.2461C132.956 52.864 123.699 45.1449 123.699 28.7669C123.699 15.2848 131.81 4.69223 139.852 0.175825C140.132 -0.00636574 140.45 -0.0479179 140.759 0.0671496C141.01 0.163039 141.242 0.361211 141.424 0.642488C141.936 1.43837 141.946 2.68813 141.14 3.21233C134.162 7.28125 131.693 19.2419 131.693 28.2491C131.693 34.8176 132.899 40.6828 135.177 45.2152C137.351 49.5494 140.969 52.6211 144.472 55.5936C145.936 56.8338 147.317 58.0069 148.548 59.2375C151.909 62.7438 153.649 65.2785 155.4 68.5196C155.161 65.2817 155.043 61.9639 155.043 58.6333V57.6329C152.956 57.0224 151.766 55.7343 151.766 54.069C151.766 52.4037 153.21 51.0964 155.387 50.5914C155.412 50.3517 155.435 50.1024 155.46 49.8499C155.584 48.5841 155.715 47.2768 155.89 46.1549C154.954 45.5987 154.404 44.4704 154.404 43.0769C154.404 42.5111 154.283 41.7791 153.703 41.4979C152.921 41.1079 152.523 41.37 152.017 42.0285C151.323 42.9266 151.034 44.5919 150.754 46.2029C150.474 47.8234 150.206 49.3512 149.538 50.2206C148.86 51.0996 148.332 51.4544 147.362 51.6845L147.161 51.7325L147.037 51.5695C146.098 50.3517 146.07 48.7951 146.238 47.6316C145.309 48.3092 144.02 48.9613 143.167 48.875C142.747 48.8334 142.518 48.6289 142.397 48.4595C141.656 47.5677 142.467 44.9978 143.136 43.5211C141.885 43.8152 140.768 43.4412 139.998 42.444L139.915 42.3385L139.934 42.2043C140.106 40.9897 140.374 40.3216 141.039 39.4618C141.723 38.5732 142.977 38.2089 144.189 37.8541C145.411 37.4961 146.677 37.1253 147.352 36.2495C147.75 35.7317 148.147 34.8975 147.782 33.8555C147.432 32.855 146.849 32.7208 146.324 32.7208C145.366 32.7208 144.275 33.6221 143.222 34.4915C142.127 35.3929 141.096 36.2463 140.09 36.2463C139.085 36.2463 138.458 35.9778 137.707 35.2171L137.615 35.1244V34.9934C137.615 33.2098 138.509 32.0623 139.292 31.4007C137.968 30.9596 136.017 29.8569 136.017 28.5656C136.017 27.2742 137.968 26.1715 139.292 25.7304C138.509 25.0656 137.615 23.9181 137.615 22.1346V22.0035L137.707 21.9108C138.458 21.1533 139.082 20.8848 140.09 20.8848C141.099 20.8848 142.13 21.7382 143.222 22.6396C144.278 23.509 145.369 24.4103 146.324 24.4103C146.849 24.4103 147.432 24.2761 147.782 23.2756C148.147 22.2336 147.75 21.3994 147.352 20.8816C146.674 20.0026 145.411 19.6318 144.186 19.2738C142.973 18.9191 141.72 18.5515 141.035 17.6661C140.37 16.8031 140.103 16.1383 139.931 14.9237L139.912 14.7894L139.995 14.6839C140.765 13.6867 141.882 13.3127 143.132 13.6068C142.464 12.1333 141.65 9.56342 142.394 8.66845C142.515 8.49905 142.747 8.29448 143.164 8.25293C144.014 8.16663 145.303 8.81868 146.235 9.4963C146.063 8.33284 146.092 6.77623 147.034 5.55843L147.158 5.39542L147.358 5.44336C148.329 5.6735 148.857 6.02829 149.535 6.90728C150.203 7.77668 150.47 9.30452 150.75 10.9251C151.031 12.536 151.32 14.2013 152.014 15.0994C152.822 16.1478 153.468 15.7675 153.678 15.6428C154.493 15.2017 154.559 14.409 154.559 13.6355C154.559 12.3218 153.853 10.8803 153.172 9.48671C152.488 8.09311 151.842 6.77623 151.842 5.54564C151.842 4.31506 152.042 3.52237 152.606 2.57946L152.698 2.42603H152.879C153.961 2.42603 154.913 3.11324 155.616 4.38218C155.953 2.8064 156.733 0.351622 157.837 0.351622C158.941 0.351622 159.721 2.8064 160.058 4.38218C160.761 3.11324 161.713 2.42603 162.795 2.42603H162.976L163.068 2.57946C163.635 3.52237 163.835 4.29908 163.835 5.54564C163.835 6.79221 163.189 8.09311 162.505 9.48671C161.821 10.8803 161.118 12.3186 161.118 13.6355C161.118 14.7031 161.398 15.3552 161.974 15.6268C162.76 16.02 163.161 15.7547 163.667 15.0994C164.36 14.2013 164.65 12.536 164.93 10.9251C165.21 9.30452 165.477 7.77668 166.146 6.90728C166.823 6.02829 167.352 5.6735 168.322 5.44336L168.523 5.39542L168.647 5.55843C169.585 6.77623 169.614 8.33284 169.445 9.4963C170.375 8.81868 171.66 8.16663 172.516 8.25293C172.933 8.29448 173.165 8.49905 173.286 8.66845C174.031 9.56022 173.216 12.1301 172.548 13.6068C173.799 13.3127 174.916 13.6867 175.686 14.6839L175.768 14.7894L175.749 14.9237C175.581 16.1383 175.31 16.8063 174.648 17.6661C173.964 18.5547 172.71 18.9191 171.498 19.2738C170.276 19.6318 169.01 20.0026 168.335 20.8816C167.918 21.4218 167.543 22.0546 167.908 23.2916C168.122 24.1163 168.895 24.4103 169.363 24.4103C170.321 24.4103 171.412 23.509 172.465 22.6396C173.56 21.7382 174.591 20.8848 175.597 20.8848C176.602 20.8848 177.229 21.1533 177.98 21.9108L178.072 22.0035V22.1346C178.072 23.9181 177.178 25.0656 176.395 25.7304C177.719 26.1715 179.67 27.2742 179.67 28.5656C179.67 29.8569 177.719 30.9628 176.395 31.4007C177.178 32.0655 178.072 33.213 178.072 34.9934V35.1244L177.98 35.2171C177.229 35.9746 176.605 36.2463 175.597 36.2463C174.588 36.2463 173.557 35.3929 172.465 34.4915C171.409 33.6221 170.317 32.7208 169.363 32.7208C168.838 32.7208 168.255 32.855 167.905 33.8555C167.536 35.0029 167.944 35.7381 168.338 36.2495C169.016 37.1285 170.279 37.4993 171.501 37.8541C172.714 38.2089 173.967 38.5764 174.651 39.4618C175.316 40.3248 175.584 40.9897 175.752 42.2043L175.772 42.3385L175.689 42.444C174.919 43.4412 173.802 43.8184 172.551 43.5211C173.219 44.9978 174.034 47.5645 173.289 48.4595C173.169 48.6289 172.936 48.8334 172.519 48.875C171.663 48.9549 170.381 48.3092 169.452 47.6316C169.624 48.7951 169.595 50.3517 168.653 51.5695L168.529 51.7325L168.329 51.6845C167.358 51.4544 166.83 51.0996 166.152 50.2206C165.484 49.3544 165.216 47.8234 164.936 46.2029C164.656 44.5919 164.367 42.9266 163.673 42.0285C163.167 41.37 162.766 41.1079 161.987 41.4979C161.334 41.8047 161.283 42.3481 161.283 43.08C161.283 44.822 160.303 45.9248 159.333 46.4106C159.218 47.1298 159.123 47.8873 159.021 48.6864C158.941 49.3257 158.855 49.9873 158.763 50.6298C160.761 51.253 162.082 52.6115 162.082 54.0722C162.082 55.7471 160.679 57.1311 158.483 57.6489V58.6365C158.483 63.4406 158.668 67.4424 159.065 71.1086C161.051 66.6881 163.635 62.894 167.129 59.2438C168.367 58.0101 169.748 56.837 171.212 55.5936C174.712 52.6211 178.333 49.5494 180.507 45.2152C182.785 40.6828 183.991 34.8144 183.991 28.2459C183.991 18.8072 181.512 7.27485 174.556 3.21872C173.738 2.68813 173.748 1.43837 174.257 0.642488C174.438 0.361211 174.667 0.159843 174.922 0.0671496C175.231 -0.0479179 175.549 -0.00636576 175.848 0.185414C183.911 4.7114 192.064 15.3136 192.064 28.7669C192.064 41.2358 186.731 50.553 175.762 57.2493C174.706 57.9685 173.617 58.7069 172.596 59.474C174.155 58.9913 175.819 58.7324 177.436 58.7324C183.915 58.7324 189.187 64.5529 189.187 71.7031C189.187 78.8533 183.533 84.5715 178.476 84.5715C174.012 84.5715 170.642 80.509 170.642 75.1264C170.642 70.709 173.235 65.7835 176.955 65.7835C179.157 65.7835 180.952 67.8803 180.952 70.4597C180.952 73.5634 179.059 74.4296 177.808 75.0017C176.217 75.7241 175.597 76.6031 175.597 78.1341C175.597 79.5181 176.351 81.1323 178.476 81.1323C182.091 81.1323 184.713 77.1656 184.713 71.7031C184.713 65.6461 181.713 62.1717 176.478 62.1717C171.243 62.1717 161.287 67.3369 161.287 79.2752C161.287 81.5925 162.028 84.7217 163.307 86.6907C163.065 84.6738 163.444 82.7848 164.389 81.4711C165.385 79.9432 167.008 79.1601 169.204 79.1601H169.398L169.487 79.3327C170.273 80.8606 170.722 82.5386 170.722 83.9386C170.722 85.9299 169.63 87.6847 168.94 88.3208L168.806 88.4486C168.029 89.1742 167.603 89.5737 167.603 91.3029C167.603 94.6463 170.168 96.8933 172.561 96.8933C174.613 96.8933 176.017 95.4006 177.636 93.6714L177.926 93.3646C179.625 91.5299 181.951 89.0112 186.231 89.0112C193.369 89.0112 195.902 95.2728 195.902 100.636C195.902 106 192.914 110.395 189.509 110.395L189.493 110.391ZM185.894 91.7057C189.792 91.7057 191.568 94.56 191.568 97.2097C191.568 99.8595 190.715 100.748 189.241 101.538L189.098 101.614C187.44 102.49 186.133 103.184 186.133 105.715C186.133 107.94 187.641 109.752 189.493 109.752C192.56 109.752 195.249 105.491 195.249 100.633C195.249 95.3239 192.875 89.6473 186.215 89.6473C182.514 89.6473 180.475 91.5267 178.375 93.7961L178.085 94.1029C176.433 95.8641 174.874 97.5262 172.545 97.5262C169.843 97.5262 166.951 95.0235 166.951 91.2966C166.951 89.2893 167.539 88.7395 168.354 87.9756L168.488 87.8477C169.003 87.3683 170.066 85.7861 170.066 83.9322C170.066 82.6825 169.675 81.1834 168.99 79.793C167.097 79.8345 165.757 80.4994 164.895 81.8259C163.87 83.2514 163.584 85.5336 164.138 87.7966L164.411 88.9089L163.606 88.1002C161.745 86.2368 160.634 82.1455 160.634 79.2656C160.634 67.842 169.993 61.5228 176.462 61.5228C182.018 61.5228 185.334 65.3264 185.334 71.6935C185.334 77.5268 182.444 81.7619 178.46 81.7619C176.032 81.7619 174.944 79.9336 174.944 78.1245C174.944 76.3154 175.717 75.235 177.528 74.4104C179.043 73.7168 180.3 72.9401 180.3 70.4501C180.3 68.2255 178.791 66.4132 176.939 66.4132C173.69 66.4132 171.262 71.0095 171.262 75.1168C171.262 80.1382 174.356 83.9226 178.46 83.9226C183.218 83.9226 188.535 78.6935 188.535 71.6935C188.535 64.6936 183.549 59.3621 177.42 59.3621C175.205 59.3621 172.898 59.8671 170.919 60.7845L170.578 60.2507C172.033 58.9945 173.748 57.8279 175.406 56.7028C186.333 50.032 191.415 41.1559 191.415 28.7573C191.415 15.5629 183.425 5.17168 175.507 0.722396C175.323 0.604132 175.205 0.626506 175.132 0.655273C175.011 0.700021 174.884 0.815089 174.779 0.978101C174.48 1.44476 174.365 2.33334 174.874 2.66256C182.053 6.84655 184.615 18.6186 184.615 28.2363C184.615 34.9039 183.386 40.8714 181.063 45.4933C178.833 49.9426 175.164 53.059 171.613 56.0731C170.158 57.3069 168.787 58.4703 167.574 59.6817C163.854 63.5653 161.181 67.6182 159.17 72.4383L158.709 73.5474L158.563 72.3552C158.069 68.3406 157.84 63.9776 157.84 58.627V57.1215L158.095 57.0703C160.125 56.6644 161.436 55.485 161.436 54.0658C161.436 52.832 160.182 51.6654 158.314 51.1603L158.038 51.0868L158.082 50.8024C158.193 50.08 158.289 49.3289 158.381 48.6001C158.489 47.7339 158.594 46.9156 158.722 46.1325L158.75 45.9599L158.909 45.8896C159.743 45.5284 160.634 44.5983 160.634 43.0737C160.634 42.4536 160.634 41.418 161.697 40.9161C163.078 40.2257 163.81 41.175 164.163 41.6321C164.952 42.6549 165.255 44.4001 165.547 46.0878C165.802 47.5581 166.066 49.0827 166.639 49.8243C167.177 50.5211 167.562 50.812 168.255 51.0037C169.159 49.6581 168.889 47.8617 168.637 46.8837L168.354 45.7841L169.165 46.5736C169.904 47.2896 171.584 48.3188 172.44 48.2325C172.644 48.2133 172.72 48.1334 172.758 48.0759L172.78 48.0471C173.302 47.4462 172.44 44.5408 171.625 43.128L171.142 42.2906L172.026 42.6741C172.749 42.9874 174.091 43.323 175.084 42.1499C174.931 41.1367 174.696 40.5837 174.13 39.8454C173.573 39.123 172.472 38.8002 171.304 38.4582C169.983 38.0714 168.618 37.6719 167.813 36.6299C167.361 36.0449 166.814 35.0956 167.282 33.6381C167.654 32.5801 168.325 32.0687 169.344 32.0687C170.527 32.0687 171.711 33.0436 172.85 33.9865C173.808 34.7792 174.801 35.5975 175.577 35.5975C176.354 35.5975 176.831 35.4121 177.417 34.8527C177.363 33.0116 176.192 31.976 175.485 31.519L174.801 31.0747L175.606 30.9372C176.758 30.7391 179.021 29.5372 179.021 28.556C179.021 27.5747 176.761 26.3729 175.606 26.1747L174.801 26.0341L175.485 25.5898C176.192 25.1327 177.363 24.0971 177.417 22.256C176.834 21.6935 176.37 21.5113 175.577 21.5113C174.785 21.5113 173.808 22.3295 172.85 23.1222C171.708 24.0651 170.527 25.04 169.344 25.04C168.519 25.04 167.546 24.4934 167.275 23.4514C166.849 22.0067 167.278 21.1693 167.813 20.4789C168.618 19.4369 169.983 19.0373 171.304 18.6506C172.472 18.3086 173.573 17.9857 174.13 17.2634C174.699 16.525 174.931 15.972 175.084 14.9588C174.091 13.7858 172.752 14.1214 172.026 14.4346L171.142 14.8182L171.625 13.9807C172.44 12.5712 173.302 9.6657 172.78 9.0616L172.758 9.03283C172.72 8.9753 172.64 8.89539 172.44 8.87621C171.581 8.7963 169.904 9.81913 169.165 10.5351L168.354 11.3246L168.637 10.2251C168.889 9.24698 169.159 7.45065 168.255 6.105C167.562 6.29678 167.177 6.58765 166.639 7.28444C166.066 8.02599 165.802 9.54744 165.547 11.0209C165.255 12.7086 164.949 14.4538 164.163 15.4766C163.81 15.9337 163.078 16.883 161.691 16.1894C160.886 15.809 160.475 14.946 160.475 13.6227C160.475 12.1588 161.213 10.6502 161.929 9.19265C162.578 7.86617 163.193 6.61641 163.193 5.53286C163.193 4.44931 163.043 3.82602 162.613 3.0621C161.312 3.18676 160.555 4.65387 160.211 5.54564L159.597 5.46254C159.4 3.53516 158.394 0.978101 157.834 0.978101C157.274 0.978101 156.268 3.53516 156.071 5.46254L155.457 5.54564C155.113 4.65387 154.356 3.18676 153.054 3.0621C152.625 3.82922 152.475 4.47807 152.475 5.53286C152.475 6.58765 153.089 7.86617 153.738 9.19265C154.454 10.6502 155.193 12.1588 155.193 13.6227C155.193 14.2908 155.193 15.5341 153.987 16.1862C153.131 16.6912 152.249 16.4419 151.505 15.4798C150.715 14.457 150.413 12.7118 150.12 11.0241C149.866 9.55383 149.602 8.02919 149.029 7.28764C148.491 6.59084 148.106 6.29998 147.412 6.1082C146.509 7.45385 146.779 9.25018 147.031 10.2283L147.314 11.3278L146.502 10.5383C145.764 9.82232 144.087 8.8027 143.228 8.87941C143.024 8.89859 142.948 8.97849 142.91 9.03603L142.887 9.06479C142.366 9.6657 143.228 12.5712 144.043 13.9839L144.526 14.8214L143.642 14.4378C142.919 14.1246 141.576 13.789 140.584 14.962C140.74 15.9752 140.972 16.5282 141.538 17.2666C142.095 17.9889 143.196 18.3118 144.364 18.6538C145.685 19.0405 147.05 19.4401 147.855 20.4821C148.351 21.1245 148.844 22.1665 148.383 23.4802C148.014 24.5318 147.342 25.0432 146.324 25.0432C145.14 25.0432 143.957 24.0683 142.817 23.1254C141.86 22.3327 140.867 21.5145 140.09 21.5145C139.314 21.5145 138.837 21.6999 138.251 22.2592C138.305 24.1003 139.476 25.1359 140.183 25.593L140.867 26.0373L140.062 26.1779C138.91 26.3761 136.647 27.5779 136.647 28.5592C136.647 29.5404 138.907 30.7422 140.062 30.9404L140.867 31.0779L140.183 31.5222C139.476 31.9792 138.305 33.0148 138.251 34.8559C138.833 35.4185 139.298 35.6007 140.09 35.6007C140.883 35.6007 141.86 34.7824 142.817 33.9897C143.96 33.0468 145.14 32.0719 146.324 32.0719C147.342 32.0719 148.014 32.5833 148.383 33.6349C148.844 34.9486 148.351 35.9906 147.855 36.6331C147.05 37.6751 145.685 38.0746 144.364 38.4614C143.196 38.8034 142.095 39.1262 141.538 39.8486C140.969 40.5869 140.736 41.1399 140.584 42.1531C141.576 43.3262 142.916 42.9906 143.642 42.6773L144.526 42.2938L144.043 43.1312C143.228 44.5408 142.366 47.4462 142.887 48.0503L142.91 48.0791C142.948 48.1366 143.024 48.2165 143.228 48.2357C144.087 48.322 145.764 47.2928 146.502 46.5768L147.314 45.7873L147.031 46.8869C146.779 47.8649 146.509 49.6613 147.412 51.0069C148.106 50.812 148.491 50.5211 149.029 49.8275C149.602 49.0859 149.866 47.5645 150.12 46.091C150.413 44.4033 150.719 42.6581 151.505 41.6353C151.855 41.1782 152.587 40.2289 153.977 40.9225C154.668 41.2581 155.034 42.0029 155.034 43.0769C155.034 44.3202 155.533 45.2951 156.37 45.6914L156.59 45.7937L156.551 46.0335C156.361 47.1809 156.224 48.5713 156.093 49.9138C156.061 50.2462 156.026 50.5722 155.995 50.8887L155.969 51.122L155.74 51.1667C153.742 51.5663 152.399 52.7297 152.399 54.069C152.399 56.0028 154.302 56.7827 155.438 57.0799L155.676 57.1407V58.6333C155.676 62.4785 155.839 66.3077 156.154 70.0154L155.555 70.188C153.557 66.3013 151.855 63.61 148.093 59.6849C146.884 58.4799 145.513 57.3133 144.058 56.0827C140.507 53.0686 136.838 49.9553 134.608 45.5029C132.285 40.881 131.056 34.9134 131.056 28.2459C131.056 18.6282 133.618 6.85614 140.81 2.66576C141.303 2.34613 141.191 1.45435 140.892 0.98769C140.787 0.824678 140.663 0.70961 140.539 0.664862C140.466 0.636095 140.348 0.613721 140.183 0.722396C132.288 5.15889 124.339 15.5405 124.339 28.7669C124.339 44.8284 133.424 52.4037 140.259 56.706C144.784 59.5251 149.185 63.7475 152.027 67.9986C154.757 72.0995 156.424 75.9382 157.43 80.4482L157.614 81.2793L156.93 80.7775C154.531 79.0131 151.953 77.8081 149.048 77.0953L148.873 77.0538L148.819 76.8811C147.024 71.0574 143.158 65.1794 138.569 65.1794C137.284 65.1794 136.571 65.6844 135.88 66.1703C135.269 66.6018 134.636 67.0461 133.694 67.0461C131.998 67.0461 129.885 66.1511 129.459 61.884C129.293 60.4968 128.822 60.305 128.336 60.305C127.273 60.305 126.894 62.1429 126.894 63.7187C126.894 70.2328 130.91 75.5323 135.849 75.5323C137.885 75.5323 138.792 75.0912 139.67 74.6661C140.472 74.2761 141.3 73.8734 142.884 73.8734C144.606 73.8734 145.825 74.6245 146.833 76.309L147.123 76.7948H145.681C138.229 76.7948 131.69 83.5263 131.69 91.2007C131.69 98.875 137.685 105.194 143.043 105.194C145.79 105.194 147.352 103.829 149.003 102.385C149.29 102.132 149.579 101.883 149.875 101.637C151.654 100.01 153.554 99.1787 155.514 99.1787C158.496 99.1787 160.322 100.649 161.099 103.67C161.181 103.999 161.369 104.216 161.621 104.286C161.866 104.354 162.139 104.277 162.337 104.082C162.493 103.925 162.731 103.567 162.559 102.896C161.43 98.2965 157.933 93.387 151.514 93.387C147.941 93.387 145.965 94.9883 144.787 96.1965C144.176 96.8358 143.654 97.4878 143.152 98.1175C141.977 99.5878 140.962 100.854 139.524 100.854C138.321 100.854 134.888 99.0796 134.888 91.2007C134.888 84.1048 139.425 78.9556 145.678 78.9556C152.59 78.9556 156.516 85.4313 160.316 91.6929L160.421 91.8655C164.647 98.7184 168.64 105.194 176.137 105.194C180.039 105.194 182.763 102.854 183.463 98.923C182.359 98.1974 181.534 98.1335 180.812 98.712L180.297 99.1243V98.4627C180.297 98.3029 180.268 98.1846 180.233 98.0344C180.188 97.8458 180.137 97.6349 180.137 97.3216C180.137 93.6778 183.103 91.7121 185.891 91.7121L185.894 91.7057ZM157.834 39.9732C152.94 39.9732 148.962 34.8527 148.962 28.556C148.962 22.2592 152.943 17.1387 157.834 17.1387C162.725 17.1387 166.706 22.2592 166.706 28.556C166.706 34.8527 162.725 39.9732 157.834 39.9732ZM157.834 17.7812C153.293 17.7812 149.599 22.6172 149.599 28.5592C149.599 34.5011 153.293 39.3372 157.834 39.3372C162.375 39.3372 166.069 34.5043 166.069 28.5592C166.069 22.614 162.375 17.7812 157.834 17.7812ZM157.834 36.5532C154.397 36.5532 151.6 32.9669 151.6 28.5592C151.6 24.1514 154.397 20.5652 157.834 20.5652C161.271 20.5652 164.068 24.1514 164.068 28.5592C164.068 32.9669 161.271 36.5532 157.834 36.5532ZM157.834 21.2044C154.747 21.2044 152.237 24.503 152.237 28.5592C152.237 32.6153 154.747 35.9139 157.834 35.9139C160.921 35.9139 163.431 32.6153 163.431 28.5592C163.431 24.503 160.921 21.2044 157.834 21.2044ZM157.834 33.9609C155.498 33.9609 153.598 31.5381 153.598 28.5592C153.598 25.5802 155.498 23.1574 157.834 23.1574C160.17 23.1574 162.069 25.5802 162.069 28.5592C162.069 31.5381 160.17 33.9609 157.834 33.9609ZM157.834 23.7966C155.848 23.7966 154.235 25.9318 154.235 28.5592C154.235 31.1865 155.848 33.3217 157.834 33.3217C159.82 33.3217 161.433 31.1865 161.433 28.5592C161.433 25.9318 159.82 23.7966 157.834 23.7966Z" fill="#0F0F0F"/>
<path d="M213.699 110.887C209.085 110.887 205.187 107.262 205.187 102.969C205.187 99.869 206.806 97.7882 209.222 97.7882C212.016 97.7882 212.62 100.697 212.913 102.094C213.269 103.807 214.303 104.676 215.98 104.676C218.173 104.676 220.391 102.733 220.391 99.0188C220.391 94.3362 216.56 91.5394 212.856 91.5394C211.121 91.5394 209.708 92.1563 208.442 92.8212C207.984 93.0481 207.526 93.0193 207.137 92.7508C206.628 92.3929 206.323 91.6449 206.399 90.9289C206.463 90.3121 206.8 89.8326 207.325 89.612C209.174 88.7682 210.561 88.2696 212.569 88.0682C213.502 87.9947 213.973 87.4865 213.973 86.5628C213.973 85.1052 212.477 84.45 210.997 84.45C208.49 84.45 205.591 86.4189 203.872 88.1066C202.151 89.9029 200.359 90.4751 198.555 89.7974L198.396 89.7367L198.358 89.5705C197.97 87.9404 198.307 86.144 199.258 84.6354C197.158 84.7313 195.704 83.44 195.141 82.8263L195.017 82.692L195.068 82.5194C195.586 80.7806 196.509 79.4893 197.82 78.6742C196.277 77.7697 195.332 76.1715 195.061 74.8802L195.033 74.7428L195.112 74.6277C196.051 73.2948 198.501 71.9907 200.659 73.004C202.221 73.8254 203.16 75.0752 203.987 76.1811C205.063 77.6131 205.992 78.85 207.955 78.85C208.315 78.85 208.655 78.6519 208.872 78.5112C208.55 76.8683 208.054 75.6985 207.395 75.04C206.673 74.3272 205.928 74.0236 205.069 73.672C204.318 73.3652 203.468 73.02 202.536 72.3391C200.461 70.888 199.612 68.446 199.704 66.7967L199.71 66.6657L199.809 66.5762C200.939 65.5597 203.204 65.2561 205.346 66.6465C205.667 66.8734 205.928 67.094 206.16 67.2889C206.571 67.6373 206.892 67.909 207.331 68.0401C207.195 67.3433 206.873 66.752 206.402 66.3492C205.349 65.4191 203.472 64.9077 201.12 64.9077C198.574 64.9077 196.916 63.2232 196.27 61.7817L196.213 61.6538L196.267 61.526C196.732 60.4105 197.912 59.0297 199.774 58.5278C198.259 56.9776 198.017 54.9703 198.017 53.8516V53.6694L198.173 53.5767C198.66 53.2827 200.305 52.4676 202.386 53.19C201.699 50.6681 202.434 48.7183 202.692 48.1462L202.768 47.9768L202.956 47.9608C204.318 47.8521 206.291 48.664 207.736 51.2626C209.145 54.216 210.065 57.3292 210.561 60.794C211.163 65.125 211.408 69.5711 211.408 76.1332C211.408 78.1532 212.079 79.3583 213.202 79.3583C214.326 79.3583 215.08 78.1213 215.08 76.1332C215.08 69.7277 214.354 63.8401 212.98 59.1064C211.732 54.6219 209.877 50.5562 207.761 46.0877C206.606 43.5275 206.892 40.9928 207.688 39.612L207.78 39.4522H207.965C209.575 39.4522 211.631 40.4398 212.572 43.2143C212.658 43.4476 212.741 43.764 212.83 44.0996C213.043 44.9147 213.327 46.0046 213.839 46.3786C214.237 45.9951 214.319 45.49 214.319 44.7389C214.319 43.8759 213.982 43.064 213.591 42.1243C213.062 40.8522 212.461 39.4074 212.461 37.3458C212.461 34.3509 213.801 32.4171 215.058 31.6084L215.223 31.5029L215.392 31.6052C216.308 32.155 217.438 33.523 217.867 35.6709C219.159 33.9641 220.805 33.686 221.731 33.686H221.944L222.027 33.881C222.424 34.8367 222.953 36.6906 222.345 38.8896C224.337 38.1513 225.867 38.912 226.469 39.3052L226.602 39.3946L226.612 39.5577C226.669 40.6029 226.52 43.243 223.866 45.2024C219.786 47.8521 217.661 53.6502 217.661 58.01C217.661 58.5342 217.699 59.5411 217.95 60.5191C218.154 60.6054 218.501 60.7301 218.781 60.7301C220.385 60.7301 221.53 58.1187 222.641 55.5936C222.886 55.0374 223.137 54.4621 223.392 53.9219C224.585 51.4735 226.704 50.2749 228.098 50.3996L228.257 50.4124L228.34 50.5498C228.951 51.5598 229.361 53.3626 228.83 55.5616C230.723 54.7722 232.372 55.6831 232.951 56.0059L233.116 56.0986V56.2872C233.116 58.2657 232.512 59.8351 231.318 60.9634C233.689 61.5643 234.621 63.3798 234.863 63.9616L234.924 64.1054L234.847 64.2397C234.052 65.6716 232.308 67.3401 230.007 67.3401C228.922 67.3401 228.181 67.0844 227.398 66.8159C226.558 66.525 225.686 66.2278 224.264 66.2278C219.917 66.2278 218.033 69.0693 217.995 75.7208C218.345 75.8615 218.533 75.9222 219.198 75.9222C220.184 75.9222 221.298 75.235 222.587 74.4359C224.362 73.3364 226.571 71.9716 229.333 71.9716C231.907 71.9716 233.527 73.5346 234.182 74.9953L234.24 75.1231L234.185 75.251C233.66 76.5071 232.407 77.8464 230.695 78.2683C232.123 79.777 232.353 81.7939 232.353 82.9254V83.0788L232.232 83.1747C231.525 83.7404 229.858 84.2742 228.076 83.6126C228.696 85.8915 228.162 87.6431 227.761 88.5253L227.684 88.6947L227.497 88.7107C225.982 88.829 223.71 87.5952 222.704 85.3865C222.583 85.0797 222.478 84.7824 222.377 84.4852C221.877 83.0564 221.447 81.8258 220.124 81.8258C218.892 81.8258 218.246 83.245 218.246 84.645C218.246 86.4029 218.548 88.7714 218.968 90.3344C220.435 91.5075 223.315 93.9175 223.315 99.6357C223.315 106.591 218.329 110.893 213.705 110.893L213.699 110.887ZM209.222 98.4275C207.188 98.4275 205.823 100.253 205.823 102.969C205.823 106.847 209.502 110.248 213.699 110.248C217.896 110.248 222.672 106.188 222.672 99.6293C222.672 94.1125 219.844 91.8495 218.485 90.7627L218.405 90.6988L218.377 90.5997C217.922 88.9664 217.603 86.5148 217.603 84.6386C217.603 82.6345 218.66 81.1802 220.117 81.1802C221.893 81.1802 222.44 82.7496 222.972 84.2678C223.073 84.5555 223.175 84.8463 223.287 85.1308C224.209 87.1637 226.122 88.0586 227.255 88.0746C227.643 87.1349 228.066 85.3769 227.255 83.1299L226.968 82.3372L227.707 82.74C229.358 83.6413 230.975 83.2546 231.713 82.7591C231.687 81.5925 231.392 79.6076 229.804 78.3067L229.209 77.8176L229.975 77.7409C231.7 77.5683 232.992 76.3249 233.543 75.1263C232.932 73.883 231.528 72.6044 229.333 72.6044C226.752 72.6044 224.715 73.8638 222.918 74.9729C221.546 75.8199 220.362 76.5519 219.194 76.5519C218.361 76.5519 218.119 76.4528 217.68 76.2738L217.355 76.1428V75.9254C217.355 71.1085 218.141 65.5789 224.26 65.5789C225.791 65.5789 226.752 65.9113 227.602 66.2022C228.333 66.4547 229.024 66.6912 230.004 66.6912C231.955 66.6912 233.466 65.3008 234.208 64.0543C233.889 63.3798 232.9 61.7785 230.551 61.4525L229.778 61.347L230.405 60.8803C231.732 59.8927 232.429 58.4096 232.47 56.4662C231.484 55.9484 230.052 55.4594 228.483 56.447L227.738 56.9137L228.012 56.0763C228.731 53.8676 228.403 52.0137 227.872 51.0197C226.825 51.0356 225.027 51.9818 223.955 54.1904C223.707 54.7178 223.455 55.29 223.21 55.8429C222.017 58.5534 220.785 61.3598 218.768 61.3598C218.192 61.3598 217.552 61.0337 217.524 61.021L217.4 60.957L217.362 60.8228C217.056 59.7296 217.011 58.5854 217.011 58.0004C217.011 53.4649 219.239 47.4302 223.49 44.6654C225.75 42.9969 225.995 40.7787 225.969 39.7462C225.212 39.2924 223.783 38.7905 221.95 39.7462L221.209 40.133L221.505 39.3499C222.319 37.202 221.893 35.3449 221.505 34.3189C220.563 34.37 219.029 34.7728 217.941 36.6842L217.451 37.544L217.349 36.5595C217.129 34.4467 216.149 32.9093 215.22 32.2509C214.198 33.0084 213.085 34.7376 213.085 37.3362C213.085 39.27 213.658 40.6508 214.167 41.8686C214.568 42.8307 214.943 43.7384 214.943 44.7293C214.943 45.5124 214.873 46.3978 214.055 47.0115L213.912 47.117L213.747 47.0498C212.837 46.6855 212.483 45.3366 212.2 44.2531C212.117 43.9334 212.038 43.633 211.961 43.422C211.163 41.0695 209.498 40.165 208.14 40.0914C207.494 41.3604 207.312 43.5658 208.327 45.8129C210.456 50.3037 212.321 54.395 213.581 58.9242C214.969 63.7123 215.704 69.6606 215.704 76.1268C215.704 78.9779 214.405 79.9911 213.19 79.9911C211.669 79.9911 210.759 78.5464 210.759 76.1268C210.759 69.5935 210.514 65.1762 209.919 60.8771C209.432 57.4794 208.531 54.4269 207.16 51.5503C205.938 49.3544 204.299 48.5873 203.182 48.5841C202.883 49.3288 202.316 51.2434 203.182 53.6311L203.452 54.3758L202.743 54.0274C200.837 53.0909 199.265 53.6982 198.641 54.0274C198.67 55.1749 198.991 57.1087 200.633 58.4543L201.19 58.9114L200.477 59.0169C198.59 59.2981 197.387 60.5735 196.894 61.6347C197.502 62.8716 198.937 64.2556 201.104 64.2556C202.88 64.2556 205.308 64.5337 206.803 65.8538C207.491 66.4419 207.92 67.3465 208.009 68.3981L208.041 68.7784L207.662 68.7433C206.79 68.6634 206.3 68.2478 205.734 67.7684C205.505 67.5734 205.266 67.372 204.977 67.1675C203.176 65.9976 201.301 66.1734 200.318 66.9565C200.289 68.43 201.066 70.53 202.889 71.8085C203.764 72.4478 204.544 72.7642 205.295 73.0711C206.18 73.4323 207.016 73.7743 207.831 74.5766C208.627 75.3692 209.18 76.6829 209.527 78.5975L209.565 78.8149L209.374 78.9299C209.352 78.9427 209.327 78.9619 209.295 78.9843C209.053 79.1473 208.547 79.4829 207.946 79.4829C205.664 79.4829 204.598 78.0637 203.468 76.5615C202.641 75.4587 201.785 74.3208 200.366 73.5729C198.596 72.7419 196.569 73.7743 195.704 74.8802C196.006 76.1012 197.021 77.6706 198.612 78.3642L199.246 78.6391L198.625 78.9427C197.241 79.6204 196.264 80.8254 195.72 82.5226C196.356 83.1683 197.82 84.3221 199.86 83.913L200.709 83.7436L200.172 84.4244C198.593 86.4285 198.775 88.4614 198.927 89.2509C200.436 89.7431 201.903 89.2189 203.408 87.6527C205.219 85.8756 208.286 83.8075 210.985 83.8075C213.11 83.8075 214.596 84.939 214.596 86.5596C214.596 87.8189 213.874 88.602 212.614 88.7011C210.689 88.8929 209.403 89.3531 207.567 90.1938C207.163 90.3632 207.048 90.7212 207.02 90.9929C206.969 91.4723 207.172 91.9997 207.491 92.2234C207.685 92.3609 207.898 92.3705 208.143 92.249C209.476 91.549 210.972 90.9002 212.843 90.9002C216.859 90.9002 221.015 93.9367 221.015 99.0188C221.015 103.152 218.475 105.316 215.968 105.316C214.004 105.316 212.693 104.219 212.276 102.225C211.895 100.387 211.309 98.4275 209.209 98.4275H209.222Z" fill="#0F0F0F"/>
<path d="M9.37472 113.466C4.45833 113.466 0.926172 110.868 0.0638151 106.377C0.035176 106.22 0.0160832 106.083 0.00653681 105.955C-0.139841 103.574 1.6326 100.032 3.31277 98.3412C6.45671 95.4261 9.6993 92.4184 14.2625 95.8544L14.2975 95.8832C15.4271 97.0179 17.26 99.2777 16.8304 101.646C16.8018 101.796 16.7763 101.953 16.7509 102.116C16.4613 103.909 16.0222 106.62 11.4049 105.884C10.6126 105.76 10.0716 105.482 9.75339 105.041C9.26334 104.353 9.4129 103.452 9.57201 102.493C9.70566 101.691 9.84249 100.86 9.5911 100.163C9.40018 99.7955 9.03105 99.5718 8.59828 99.5654C5.54662 100.093 4.18785 103.273 4.16876 104.785C4.13376 107.435 5.09794 109.132 7.11541 109.976C16.595 113.936 45.1705 97.5868 54.405 89.091C54.3668 88.8353 54.8632 88.2888 57.2785 85.6262L57.9372 84.8974C58.2808 84.2166 58.5704 83.4943 58.8791 82.7272C59.7892 80.4514 60.9252 77.6162 64.3873 73.429C64.7565 72.9848 65.1033 72.5245 65.4438 72.0291C64.6387 71.1756 64.1996 70.0729 64.1996 68.8935C64.1996 66.493 66.0548 64.5177 68.4 64.3387C67.754 64.0351 67.229 63.53 66.9044 62.9004C66.3984 63.709 65.5043 64.23 64.5178 64.23C62.9617 64.23 61.6984 62.9579 61.6984 61.3981C61.6984 59.8383 62.9649 58.5662 64.5178 58.5662C65.5043 58.5662 66.3984 59.084 66.9044 59.8926C67.3594 59.0104 68.2027 58.3776 69.1987 58.2018C69.1828 56.9073 69.1001 55.7278 69.0332 54.7689C68.9823 54.005 68.9346 53.3466 68.9346 52.8352C68.9346 49.5429 68.9346 48.6576 68.0213 47.542C67.6172 47.0498 66.9171 46.8612 66.1025 46.6471C65.1351 46.3882 64.0373 46.0973 63.1177 45.2055C61.342 43.4859 61.6953 42.8371 63.0858 41.0439L64.3746 39.27C64.6546 38.8832 65.011 38.6723 65.4279 38.6435C66.7898 38.554 68.6387 40.4718 71.1939 43.1311C71.6935 43.6489 72.2154 44.1923 72.7627 44.7517C75.3084 47.3471 74.8438 48.7886 74.0737 51.1731C73.8573 51.8443 73.6187 52.589 73.4055 53.468C73.5678 53.4425 73.7332 53.4265 73.8955 53.4265C74.8374 53.4265 75.7189 53.8676 76.2949 54.5899C77.8796 49.511 78.8596 44.2818 79.2097 39.0366C80.0625 26.2322 72.855 16.8829 68.7819 14.6935C68.5082 14.6103 68.2122 14.6711 67.9863 14.8597C67.6713 15.1218 67.5408 15.5852 67.6204 16.1638V16.1893V16.2149C67.5726 18.7432 69.1573 22.5404 69.1733 22.5788L69.3451 22.9911L68.9028 23.0231C67.0349 23.1573 64.7628 22.3806 63.8877 20.3286C63.159 18.6793 62.7581 16.0775 63.6077 14.2779C64.0405 13.3638 64.7342 12.7725 65.6697 12.5168C70.1756 11.6538 74.2615 14.4537 77.835 20.8368C80.263 25.2925 81.6726 30.2595 82.029 35.6006C82.1404 37.2691 82.15 38.9887 82.0545 40.7051C81.6599 44.3905 80.9758 48.0918 80.0148 51.7612C83.1842 45.5348 90.3567 33.2065 99.2444 26.2098C110.862 17.0619 116.651 12.9706 116.708 12.9323L117.672 12.2515L117.179 13.3254C117.153 13.3798 114.678 18.7592 109.901 26.6285C108.282 29.2974 107.505 31.9951 106.754 34.6065C105.284 39.7143 103.766 44.9978 95.9222 50.1758C92.1928 52.637 88.6829 54.5388 85.1921 55.9899L85.1444 56.1785C95.0058 53.7141 108.469 51.7292 117.688 55.8525C131.285 61.9351 135.107 71.9651 135.142 72.0642L135.291 72.4702L134.862 72.4957C134.805 72.4957 128.908 72.8186 119.753 72.2592C116.647 72.0674 113.908 72.6428 111.26 73.1989C111.123 73.2277 110.983 73.2564 110.846 73.2852C111.982 74.324 113.02 75.4843 113.936 76.7372C115.244 78.7637 116.498 80.8701 117.822 83.1011L118.016 83.4303C119.492 85.9139 120.829 88.1481 122.251 90.328L122.343 90.4846C126.137 97.0371 131.868 106.939 138.334 108.355C140.45 108.819 142.544 108.33 144.558 106.901C145.942 105.92 147.212 103.593 147.447 101.608C147.543 100.815 147.514 99.706 146.843 98.9357C146.575 98.6001 145.831 98.9325 145.115 99.2521C144.214 99.6549 143.285 100.074 142.563 99.6421C142.076 99.3512 141.802 98.7343 141.723 97.7563L141.716 97.6923L141.735 97.6316C142.047 96.6823 142.655 96.027 143.495 95.7362C144.577 95.3622 146.028 95.6275 147.199 96.4106L147.209 96.417C150.155 98.5681 152.131 102.969 150.181 106.322C148.695 108.87 146.489 110.385 143.629 110.826C138.515 111.616 132.714 108.774 129.23 105.61C126.455 103.021 124.574 99.8498 122.754 96.7846C122.149 95.7681 121.526 94.7166 120.889 93.7257C120.491 93.0673 120.103 92.4152 119.715 91.7631C119.136 90.7947 118.557 89.8262 117.971 88.8641C114.722 83.5358 111.712 79.2687 107.585 75.7815C106.897 75.187 106.204 74.6277 105.516 74.1195C101.135 74.4263 97.1123 73.4195 92.4887 70.8656C92.1196 70.661 91.7568 70.4597 91.4068 70.2551C87.8587 70.9998 84.2597 73.1062 80.7053 76.5167C78.4046 85.0349 75.843 91.1431 73.0936 94.675C65.7334 104.123 59.7892 102.404 59.541 102.327L59.2355 102.231L59.3309 101.924C59.3468 101.87 61.1002 96.2636 64.3269 88.1098C65.4279 85.329 66.042 82.4906 66.6371 79.745C66.6371 79.7386 66.6371 79.7322 66.6403 79.7258C63.8336 83.5902 60.7024 87.234 57.323 90.5741C55.3692 92.5015 53.3326 94.3202 51.2706 95.9887C39.4522 105.236 26.7237 110.855 12.3564 113.175C11.3095 113.377 10.3039 113.473 9.35244 113.473L9.37472 113.466ZM10.3007 94.9659C8.12414 94.9659 6.14804 96.5832 3.75508 98.8046C2.36449 100.201 0.499767 103.593 0.642962 105.916C0.649326 106.016 0.665237 106.127 0.687512 106.255C1.84581 112.3 7.43044 113.463 12.2673 112.539C26.5359 110.235 39.169 104.657 50.8951 95.4805C52.9349 93.8312 54.9555 92.0221 56.8966 90.1107C60.6165 86.4349 64.0309 82.3883 67.0444 78.0829L67.964 76.766L67.614 78.3354C67.4995 78.8468 67.3881 79.3582 67.2767 79.8728C66.6753 82.644 66.0548 85.5079 64.9378 88.3367C62.1694 95.3366 60.4892 100.444 60.066 101.771C61.3643 101.966 66.4939 102.129 72.6131 94.2723C75.3179 90.7979 77.8509 84.7344 80.1357 76.2546L80.2852 75.6984C81.2081 72.2176 82.08 68.3629 82.8755 64.2428L82.9773 63.7218L83.3878 64.0542C85.3385 65.6268 87.55 67.1707 89.9621 68.6378L90.5349 68.9862L89.9016 69.2099C87.0091 70.2391 84.3934 71.9843 82.2391 74.3048C85.2875 71.7925 88.3678 70.2104 91.4195 69.5935L91.5372 69.5711L91.6423 69.6318C92.0241 69.8524 92.4155 70.0729 92.8196 70.2967C97.3701 72.809 101.316 73.7838 105.612 73.4642L105.73 73.4546L105.825 73.5249C106.557 74.0619 107.298 74.6564 108.024 75.2861C112.215 78.8276 115.257 83.1395 118.538 88.5221C119.123 89.4842 119.702 90.4527 120.285 91.4243C120.673 92.0764 121.061 92.7252 121.452 93.3773C122.089 94.3714 122.716 95.4261 123.324 96.449C125.118 99.4759 126.977 102.605 129.681 105.13C132.94 108.093 138.671 110.938 143.555 110.187C146.219 109.774 148.271 108.365 149.656 105.993C151.422 102.95 149.582 98.9229 146.862 96.9316C145.853 96.2572 144.618 96.0206 143.724 96.3339C143.088 96.5544 142.636 97.0339 142.381 97.7626C142.445 98.4722 142.623 98.9165 142.906 99.0859C143.345 99.348 144.157 98.9836 144.873 98.6608C145.812 98.2389 146.782 97.8042 147.349 98.517C147.991 99.2553 148.252 100.352 148.096 101.675C147.839 103.855 146.483 106.322 144.943 107.416C142.776 108.95 140.513 109.474 138.216 108.972C131.479 107.495 125.659 97.4494 121.812 90.8011L121.729 90.6572C120.31 88.4805 118.97 86.2399 117.491 83.75L117.297 83.4207C115.976 81.1961 114.725 79.0929 113.433 77.0952C112.428 75.7208 111.26 74.4519 109.971 73.3364L109.481 72.9112L110.118 72.7802C110.461 72.7099 110.808 72.6364 111.152 72.566C113.841 72.0035 116.619 71.4186 119.814 71.6135C127.486 72.0802 132.851 71.9332 134.394 71.8692C133.525 69.9451 129.23 61.6985 117.449 56.4278C108.237 52.3046 94.6144 54.4205 84.807 56.9201L84.2915 57.0511L84.6766 55.5105L84.8261 55.4497C88.3265 54.0082 91.8491 52.1032 95.5976 49.6292C103.244 44.5823 104.664 39.6439 106.165 34.418C106.929 31.7682 107.715 29.0258 109.379 26.2865C112.864 20.5459 115.117 16.1382 116.084 14.1725C113.965 15.7099 108.504 19.7404 99.658 26.7052C87.986 35.8947 79.3083 54.3502 78.8947 55.7023L78.8597 55.8013L78.2582 55.5968C79.8366 50.6585 80.9089 45.6274 81.4435 40.6476C81.5358 38.9727 81.5263 37.2787 81.4149 35.6357C81.0649 30.3874 79.6775 25.5098 77.2972 21.1372C73.8733 15.0227 70.0133 12.3314 65.8288 13.1273C65.1033 13.3254 64.5464 13.8049 64.1996 14.54C63.4677 16.0871 63.7923 18.4875 64.4892 20.0601C65.1701 21.6582 66.9267 22.3582 68.4318 22.387C68.0086 21.2971 66.968 18.3884 66.9999 16.2181C66.863 15.1473 67.3117 14.5944 67.5949 14.361C67.9959 14.0286 68.5273 13.9231 69.0205 14.0893L69.0682 14.1085C71.6267 15.467 74.4747 18.7624 76.5017 22.7034C78.2964 26.1938 80.3362 31.8641 79.8557 39.0718C79.4865 44.5982 78.4269 50.1023 76.7022 55.437L76.454 56.2073L76.1103 55.4753C75.7093 54.6155 74.8438 54.0625 73.9019 54.0625C73.6282 54.0625 73.3546 54.1105 73.0905 54.2032L72.5527 54.395L72.6736 53.8356C72.9186 52.6945 73.2146 51.7804 73.4755 50.9717C74.2169 48.6703 74.5892 47.5165 72.314 45.1959C71.7635 44.6366 71.2416 44.09 70.742 43.569C68.4891 41.2261 66.5416 39.206 65.4756 39.2764C65.2465 39.2923 65.0619 39.4074 64.8933 39.6407L63.5982 41.4243C62.3094 43.0832 62.1121 43.3389 63.5632 44.7421C64.3651 45.5188 65.3356 45.7777 66.2712 46.027C67.1526 46.2603 67.9863 46.4841 68.5177 47.1361C69.5774 48.4306 69.5774 49.5397 69.5774 52.8352C69.5774 53.3274 69.6219 53.973 69.6728 54.7274C69.7429 55.763 69.832 57.0543 69.8415 58.4831V58.7771L69.5519 58.8027C68.4255 58.9018 67.4995 59.7104 67.2481 60.8164L67.1144 61.4013L67.2481 61.9862C67.4645 62.9291 68.1741 63.6707 69.1064 63.92L69.3928 63.9967L69.3355 64.2908C69.3069 64.4346 69.2783 64.5816 69.2464 64.7255L69.1892 64.9876L68.8455 64.9716C68.8169 64.9716 68.785 64.9684 68.7532 64.9684C66.5989 64.9684 64.8424 66.7296 64.8424 68.8967C64.8424 69.9898 65.2815 71.0062 66.0802 71.7574L66.2775 71.9428L66.1248 72.1697C65.7238 72.7642 65.3197 73.3108 64.8837 73.8382C61.4821 77.9486 60.3715 80.7295 59.4741 82.9669C59.4169 83.1107 59.3596 83.2514 59.3055 83.3888C61.7684 80.6463 64.1232 77.9391 65.657 75.8614L66.1725 76.2354C63.595 79.9048 60.6229 83.5358 57.3389 87.0326L57.078 86.8057L56.833 87.0773C56.3938 87.56 55.9961 88.0043 55.6874 88.3559L55.8783 88.5572C48.6867 95.9375 23.0197 111.194 10.568 111.194C9.15197 111.194 7.90776 110.995 6.87993 110.567C4.62699 109.627 3.50369 107.678 3.54188 104.779C3.56734 102.727 5.35887 99.4631 8.53146 98.9325H8.58237C9.26971 98.9293 9.88068 99.3001 10.1798 99.8946L10.1925 99.9265C10.5139 100.786 10.3548 101.752 10.2116 102.602C10.0748 103.423 9.9475 104.2 10.2816 104.67C10.4948 104.967 10.899 105.159 11.5163 105.258C15.5067 105.894 15.8408 103.832 16.1336 102.017C16.159 101.851 16.1877 101.691 16.2131 101.538C16.5886 99.4663 14.9148 97.4079 13.8711 96.3563C12.5759 95.3846 11.4176 94.9659 10.3103 94.9659H10.3007ZM83.4005 64.8821C82.7355 68.2702 82.0227 71.4761 81.2717 74.4359C83.4387 71.93 86.1054 70.0186 89.0743 68.8423C87.0218 67.567 85.1157 66.2373 83.4005 64.8821ZM64.5146 59.2054C63.3118 59.2054 62.3317 60.1899 62.3317 61.3981C62.3317 62.6063 63.3118 63.5908 64.5146 63.5908C65.4979 63.5908 66.3634 62.9259 66.6212 61.9702L66.7739 61.3981L66.6212 60.826C66.3634 59.8703 65.4979 59.2054 64.5146 59.2054ZM67.0667 74.9249L66.5353 74.5765C66.9139 73.9724 67.2512 73.4195 67.5663 72.8825L67.6808 72.6843L68.435 72.8409L68.1836 73.2341C67.8304 73.7838 67.4549 74.3528 67.0667 74.9281V74.9249ZM71.9926 66.6688L71.684 66.314C71.4994 66.0999 71.2862 65.9049 71.0571 65.7355L70.8757 65.6013L70.9393 65.3871C71.1239 64.7734 71.2926 64.131 71.4389 63.4725L71.4612 63.3766L71.5344 63.3095C72.0722 62.8077 72.3681 62.1301 72.3681 61.3981C72.3681 60.9698 72.2631 60.5415 72.0594 60.1675L72.0117 60.078L72.0213 59.9789C72.0626 59.605 72.1008 59.2278 72.1294 58.841L72.1708 58.32L72.6131 58.5949C73.3164 59.0328 74.2042 59.0808 74.952 58.7164L75.6775 58.3616L75.3848 59.1191C74.4619 61.5164 73.3896 63.9136 72.1995 66.2469L71.9863 66.6656L71.9926 66.6688ZM71.6139 65.3583C71.6935 65.4223 71.7699 65.4894 71.8431 65.5597C72.8391 63.5812 73.746 61.5611 74.551 59.5346C73.9496 59.6657 73.3037 59.6082 72.7277 59.3684C72.7086 59.5666 72.6895 59.7616 72.6672 59.9534C72.8868 60.4008 73.0045 60.8963 73.0045 61.3981C73.0045 62.2611 72.6545 63.0985 72.0404 63.7058C71.9099 64.2716 71.7667 64.8246 71.6139 65.3583ZM75.6266 62.6798L76.1771 61.3214C76.4953 60.5415 76.8072 59.7296 77.1095 58.9114L77.2654 58.4862L77.6123 58.7771C77.8414 58.9689 78.1087 59.215 78.5064 59.605L78.761 59.8543L78.4873 60.0812C77.9082 60.5639 77.3036 61.1008 76.6926 61.6762L75.6298 62.6798H75.6266ZM77.5422 59.5698C77.4531 59.8063 77.364 60.0429 77.2749 60.2762C77.4531 60.1196 77.6313 59.9661 77.8064 59.8159C77.7109 59.7232 77.625 59.6433 77.5422 59.5698ZM80.1102 58.4671C80.037 58.4671 79.5215 58.4607 78.9678 58.4543L77.8668 58.4447L78.8024 57.863C79.2542 57.5817 79.8429 57.4027 80.6607 57.1598C81.5135 56.9041 82.5732 56.5844 83.9574 56.0091L84.2502 56.5717C84.0561 56.6963 83.8365 56.8242 83.5851 56.9712C83.1333 57.2333 82.57 57.5625 81.8636 58.0484L81.8127 58.0835L81.1158 58.2497C80.5271 58.3904 80.2598 58.4543 80.1166 58.4639C80.1166 58.4639 80.1134 58.4639 80.107 58.4639L80.1102 58.4671Z" fill="#0F0F0F"/>
<path d="M67.1145 58.467C66.0421 58.467 65.167 57.5912 65.167 56.5108C65.167 55.4305 66.0389 54.5547 67.1145 54.5547C68.19 54.5547 69.0619 55.4305 69.0619 56.5108C69.0619 57.5912 68.19 58.467 67.1145 58.467ZM67.1145 55.194C66.3921 55.194 65.8034 55.7853 65.8034 56.5108C65.8034 57.2364 66.3921 57.8277 67.1145 57.8277C67.8368 57.8277 68.4255 57.2364 68.4255 56.5108C68.4255 55.7853 67.8368 55.194 67.1145 55.194Z" fill="#0F0F0F"/>
<path d="M62.6535 69.2101C61.4316 69.2101 60.4355 68.2096 60.4355 66.9822C60.4355 65.7548 61.4316 64.7544 62.6535 64.7544C63.8754 64.7544 64.8714 65.7548 64.8714 66.9822C64.8714 68.2096 63.8754 69.2101 62.6535 69.2101ZM62.6535 65.3905C61.7816 65.3905 61.072 66.1032 61.072 66.979C61.072 67.8548 61.7816 68.5676 62.6535 68.5676C63.5254 68.5676 64.235 67.8548 64.235 66.979C64.235 66.1032 63.5254 65.3905 62.6535 65.3905Z" fill="#0F0F0F"/>
<path d="M60.7529 58.675C59.566 58.675 58.5986 57.7033 58.5986 56.5111C58.5986 55.3189 59.566 54.3472 60.7529 54.3472C61.9399 54.3472 62.9072 55.3189 62.9072 56.5111C62.9072 57.7033 61.9399 58.675 60.7529 58.675ZM60.7529 54.9864C59.916 54.9864 59.2351 55.6704 59.2351 56.5111C59.2351 57.3517 59.916 58.0357 60.7529 58.0357C61.5898 58.0357 62.2708 57.3517 62.2708 56.5111C62.2708 55.6704 61.5898 54.9864 60.7529 54.9864Z" fill="#0F0F0F"/>
</g>
<defs>
<clipPath id="clip0_407_402">
<rect width="290" height="114" fill="white"/>
</clipPath>
</defs>
</svg>
