<svg width="1920" height="92" viewBox="0 0 1920 92" fill="none" xmlns="http://www.w3.org/2000/svg">
<path d="M1 0C1 0 661.663 66 916.804 66C1109.42 66 1290.87 14 1595 14C1803.69 14 1923 91 1923 91" stroke="#808080" stroke-miterlimit="10"/>
<g clip-path="url(#clip0_397_8)">
<path d="M283.861 21.2221C282.756 19.0666 281.182 18.8065 280.032 19.3752C278.694 20.0407 278.055 21.8127 278.354 24.1313C281.365 23.307 284.278 25.1715 285.45 27.4636C286.349 29.2135 286.233 31.1971 284.376 32.1227C281.808 33.401 279.781 30.9282 278.372 28.1821C278.001 27.4548 277.612 26.1589 277.455 25.5947L275.679 26.4807C276.211 29.3943 275.156 31.7481 273.406 32.6164C271.791 33.4186 269.532 33.0925 268.096 30.2891L269.134 29.7733C270.239 31.9288 271.818 32.1933 272.963 31.6202C274.301 30.9546 274.941 29.1827 274.641 26.8641C271.63 27.6884 268.718 25.8239 267.546 23.5362C266.646 21.7819 266.763 19.7983 268.619 18.8727C271.187 17.5944 273.214 20.0672 274.623 22.8133C274.995 23.5406 275.384 24.8321 275.54 25.4007L277.316 24.5147C276.784 21.6011 277.84 19.2473 279.589 18.379C281.204 17.5767 283.463 17.9029 284.899 20.7063L283.861 21.2221ZM268.982 19.7763C268.19 20.173 267.81 21.5747 268.517 22.9499C269.416 24.6999 271.809 26.7539 274.502 25.8547C274.319 25.101 274.028 24.1974 273.724 23.6023C271.912 20.076 270.4 19.0666 268.982 19.7763ZM278.497 25.1495C278.681 25.9032 278.972 26.8068 279.276 27.4019C281.088 30.9282 282.595 31.9376 284.018 31.2279C284.81 30.8312 285.19 29.4295 284.483 28.0543C283.584 26.3043 281.195 24.2503 278.497 25.1495Z" fill="black"/>
</g>
<defs>
<clipPath id="clip0_397_8">
<rect width="19" height="15" fill="white" transform="translate(267 18)"/>
</clipPath>
</defs>
</svg>
