<svg width="1921" height="163" viewBox="0 0 1921 163" fill="none" xmlns="http://www.w3.org/2000/svg">
<path d="M1 1C1 1 660.632 67 915.374 67C1107.69 67 1288.86 15 1592.51 15C1800.87 15 1920 92 1920 92" stroke="#808080" stroke-miterlimit="10"/>
<g clip-path="url(#clip0_528_3)">
<path d="M283.419 22.2221C282.316 20.0666 280.744 19.8065 279.596 20.3752C278.26 21.0407 277.621 22.8127 277.921 25.1313C280.927 24.307 283.835 26.1715 285.005 28.4636C285.903 30.2135 285.787 32.1971 283.933 33.1227C281.369 34.401 279.345 31.9282 277.938 29.1821C277.568 28.4548 277.179 27.1589 277.023 26.5947L275.249 27.4807C275.781 30.3943 274.727 32.7481 272.98 33.6164C271.368 34.4186 269.112 34.0925 267.678 31.2891L268.715 30.7733C269.818 32.9288 271.395 33.1933 272.538 32.6202C273.874 31.9546 274.512 30.1827 274.213 27.8641C271.207 28.6884 268.299 26.8239 267.129 24.5362C266.231 22.7819 266.347 20.7983 268.201 19.8727C270.765 18.5944 272.788 21.0672 274.195 23.8133C274.566 24.5406 274.955 25.8321 275.111 26.4007L276.884 25.5147C276.353 22.6011 277.407 20.2473 279.153 19.379C280.766 18.5767 283.022 18.9029 284.455 21.7063L283.419 22.2221ZM268.563 20.7763C267.772 21.173 267.392 22.5747 268.098 23.9499C268.996 25.6999 271.386 27.7539 274.075 26.8547C273.892 26.101 273.601 25.1974 273.297 24.6023C271.488 21.076 269.979 20.0666 268.563 20.7763ZM278.063 26.1495C278.247 26.9032 278.537 27.8068 278.841 28.4019C280.65 31.9282 282.155 32.9376 283.575 32.2279C284.366 31.8312 284.746 30.4295 284.04 29.0543C283.142 27.3043 280.757 25.2503 278.063 26.1495Z" fill="black"/>
</g>
<path d="M0 162L1920 162" stroke="#808080"/>
<path d="M0 93L1920 92.9998" stroke="#808080" stroke-miterlimit="10"/>
<g clip-path="url(#clip1_528_3)">
<path d="M24.4962 78C29.1692 78 31.0269 80.928 31.0269 83.904C31.0269 86.31 29.3192 88.5 27.2077 88.5C26.0538 88.5 24.9462 87.714 24.9462 86.304C24.9462 85.05 25.8 84.42 26.6538 84.162C27.8077 83.796 28.3096 83.22 28.3096 82.278C28.3096 80.658 26.9538 79.404 24.9404 79.404C21.675 79.404 19.3096 81.654 19.3096 84.528C19.3096 89.652 24.4846 91.32 28.1019 92.004C28.4019 90.75 29.0077 89.862 29.7115 89.862C30.3635 89.862 31.0154 90.75 31.2692 91.95C32.0712 91.896 32.2212 90.384 32.9769 89.334C33.8308 88.08 34.8865 87.768 36.0404 87.294C37.1942 86.826 38.1519 86.562 38.1519 85.776C38.1519 85.2 37.2981 85.098 36.7962 84.834C36.2423 84.57 35.6885 84.156 35.6885 83.058C35.6885 81.858 36.7442 80.808 38.25 80.808C40.1077 80.808 41.2673 82.116 41.2673 83.784C41.2673 86.292 38.8558 87.336 39.1038 89.478C39.8077 88.692 41.6192 87.072 43.3731 87.282C43.4712 88.536 42.5192 90.054 42.1673 90.522L43.3212 90.732C44.3769 90.942 44.9769 91.674 44.9769 92.982C44.9769 94.29 44.3712 95.022 43.3212 95.232L42.1673 95.442C42.5192 95.91 43.4712 97.428 43.3731 98.682C41.6135 98.892 39.8077 97.272 39.1038 96.486C38.85 98.628 41.2673 99.672 41.2673 102.18C41.2673 103.854 40.1135 105.156 38.25 105.156C36.7442 105.156 35.6885 104.112 35.6885 102.906C35.6885 101.808 36.2423 101.388 36.7962 101.13C37.2981 100.866 38.1519 100.764 38.1519 100.188C38.1519 99.402 37.2 99.144 36.0404 98.67C34.8865 98.202 33.8308 97.884 32.9769 96.63C32.2212 95.586 32.0712 94.068 31.2692 94.014C31.0154 95.214 30.3635 96.102 29.7115 96.102C29.0077 96.102 28.4077 95.214 28.1019 93.96C24.4846 94.638 19.3096 96.312 19.3096 101.436C19.3096 104.31 21.6692 106.56 24.9404 106.56C26.9481 106.56 28.3096 105.306 28.3096 103.686C28.3096 102.744 27.8077 102.168 26.6538 101.802C25.8 101.538 24.9462 100.914 24.9462 99.66C24.9462 98.25 26.0538 97.464 27.2077 97.464C29.3192 97.464 31.0269 99.66 31.0269 102.06C31.0269 105.036 29.1692 107.964 24.4962 107.964C20.3769 107.964 15 105.822 15 100.962C15 95.682 22.1885 93.906 26.2038 92.964C22.1885 92.058 15 90.282 15 85.002C15 80.142 20.3769 78 24.4962 78ZM36.4558 90.906C35.3481 90.906 34.4481 91.848 34.4481 92.994C34.4481 94.14 35.3538 95.082 36.4558 95.082C37.5577 95.082 38.4635 94.14 38.4635 92.994C38.4635 91.848 37.5577 90.906 36.4558 90.906Z" fill="#0F0F0F"/>
</g>
<g clip-path="url(#clip2_528_3)">
<path d="M1867.86 88.3525C1866.76 86.1099 1865.18 85.8393 1864.03 86.4309C1862.69 87.1234 1862.05 88.9671 1862.35 91.3795C1865.37 90.5219 1868.28 92.4619 1869.45 94.8467C1870.35 96.6675 1870.23 98.7313 1868.38 99.6944C1865.81 101.024 1863.78 98.4516 1862.37 95.5943C1862 94.8376 1861.61 93.4892 1861.46 92.9021L1859.68 93.824C1860.21 96.8555 1859.16 99.3046 1857.41 100.208C1855.79 101.043 1853.53 100.703 1852.1 97.7865L1853.13 97.2499C1854.24 99.4926 1855.82 99.7678 1856.96 99.1716C1858.3 98.4791 1858.94 96.6354 1858.64 94.223C1855.63 95.0806 1852.72 93.1406 1851.55 90.7604C1850.65 88.935 1850.76 86.8712 1852.62 85.9081C1855.19 84.578 1857.21 87.1509 1858.62 90.0082C1858.99 90.7649 1859.38 92.1087 1859.54 92.7004L1861.32 91.7785C1860.78 88.747 1861.84 86.2979 1863.59 85.3944C1865.2 84.5597 1867.46 84.8991 1868.9 87.816L1867.86 88.3525ZM1852.98 86.8482C1852.19 87.261 1851.81 88.7195 1852.52 90.1504C1853.42 91.9711 1855.81 94.1083 1858.5 93.1727C1858.32 92.3885 1858.03 91.4483 1857.72 90.8291C1855.91 87.1601 1854.4 86.1099 1852.98 86.8482ZM1862.5 92.4389C1862.68 93.2232 1862.97 94.1634 1863.28 94.7825C1865.09 98.4516 1866.6 99.5018 1868.02 98.7634C1868.81 98.3507 1869.19 96.8922 1868.48 95.4613C1867.58 93.6405 1865.2 91.5033 1862.5 92.4389Z" fill="black"/>
</g>
<path d="M297.203 1.01348C288.46 -0.287251 563.848 93 705.883 93C812.284 93 850.451 74.8323 908.284 48.3757C947.31 30.531 980.22 9.17853 1056.33 9C1102.52 8.89798 1126 25.8552 1119.38 38.633C1113.45 50.1015 1072.53 57.7188 1072.53 70.8706C1072.53 91.8214 1150.08 93.4126 1188.27 92.9267" stroke="#808080" stroke-miterlimit="10"/>
<g clip-path="url(#clip3_528_3)">
<path d="M1177.86 88.2221C1176.76 86.0666 1175.18 85.8065 1174.03 86.3752C1172.69 87.0407 1172.05 88.8127 1172.35 91.1313C1175.37 90.307 1178.28 92.1715 1179.45 94.4636C1180.35 96.2135 1180.23 98.1971 1178.38 99.1227C1175.81 100.401 1173.78 97.9282 1172.37 95.1821C1172 94.4548 1171.61 93.1589 1171.46 92.5947L1169.68 93.4806C1170.21 96.3943 1169.16 98.7481 1167.41 99.6164C1165.79 100.419 1163.53 100.092 1162.1 97.2891L1163.13 96.7733C1164.24 98.9288 1165.82 99.1933 1166.96 98.6202C1168.3 97.9546 1168.94 96.1827 1168.64 93.8641C1165.63 94.6884 1162.72 92.8239 1161.55 90.5362C1160.65 88.7819 1160.76 86.7983 1162.62 85.8727C1165.19 84.5944 1167.21 87.0672 1168.62 89.8133C1168.99 90.5406 1169.38 91.8321 1169.54 92.4007L1171.32 91.5147C1170.78 88.6011 1171.84 86.2473 1173.59 85.379C1175.2 84.5767 1177.46 84.9029 1178.9 87.7063L1177.86 88.2221ZM1162.98 86.7763C1162.19 87.173 1161.81 88.5747 1162.52 89.9499C1163.42 91.6999 1165.81 93.7539 1168.5 92.8547C1168.32 92.101 1168.03 91.1974 1167.72 90.6023C1165.91 87.076 1164.4 86.0666 1162.98 86.7763ZM1172.5 92.1495C1172.68 92.9032 1172.97 93.8068 1173.28 94.4019C1175.09 97.9282 1176.6 98.9376 1178.02 98.2279C1178.81 97.8312 1179.19 96.4295 1178.48 95.0543C1177.58 93.3043 1175.2 91.2503 1172.5 92.1495Z" fill="black"/>
</g>
<path d="M0 126H1920" stroke="#808080"/>
<g clip-path="url(#clip4_528_3)">
<path d="M833.626 121.222C832.544 119.067 831.003 118.807 829.878 119.375C828.569 120.041 827.943 121.813 828.236 124.131C831.183 123.307 834.033 125.172 835.18 127.464C836.06 129.214 835.946 131.197 834.129 132.123C831.616 133.401 829.633 130.928 828.254 128.182C827.89 127.455 827.509 126.159 827.356 125.595L825.618 126.481C826.139 129.394 825.106 131.748 823.394 132.616C821.814 133.419 819.603 133.092 818.198 130.289L819.213 129.773C820.295 131.929 821.84 132.193 822.961 131.62C824.27 130.955 824.896 129.183 824.603 126.864C821.656 127.688 818.806 125.824 817.659 123.536C816.779 121.782 816.893 119.798 818.71 118.873C821.223 117.594 823.206 120.067 824.585 122.813C824.948 123.541 825.329 124.832 825.482 125.401L827.221 124.515C826.7 121.601 827.733 119.247 829.445 118.379C831.025 117.577 833.236 117.903 834.641 120.706L833.626 121.222ZM819.064 119.776C818.289 120.173 817.917 121.575 818.609 122.95C819.489 124.7 821.831 126.754 824.467 125.855C824.287 125.101 824.003 124.197 823.705 123.602C821.932 120.076 820.452 119.067 819.064 119.776ZM828.376 125.149C828.556 125.903 828.84 126.807 829.138 127.402C830.911 130.928 832.387 131.938 833.779 131.228C834.554 130.831 834.926 129.43 834.234 128.054C833.354 126.304 831.016 124.25 828.376 125.149Z" fill="black"/>
</g>
<defs>
<clipPath id="clip0_528_3">
<rect width="18.9703" height="15" fill="white" transform="translate(266.584 19)"/>
</clipPath>
<clipPath id="clip1_528_3">
<rect width="30" height="30" fill="white" transform="translate(15 78)"/>
</clipPath>
<clipPath id="clip2_528_3">
<rect width="19" height="15.6071" fill="white" transform="translate(1851 85)"/>
</clipPath>
<clipPath id="clip3_528_3">
<rect width="19" height="15" fill="white" transform="translate(1161 85)"/>
</clipPath>
<clipPath id="clip4_528_3">
<rect width="18.5933" height="15" fill="white" transform="translate(817.125 118)"/>
</clipPath>
</defs>
</svg>
