<svg width="1920" height="30" viewBox="0 0 1920 30" fill="none" xmlns="http://www.w3.org/2000/svg">
<path d="M0 15H2006.92C2006.92 15 2143 15 2143 12.0319C2143 8.11036 2116.75 7 2083.65 7C2031.13 7 2015.96 10.3796 2015.96 10.3796" stroke="#808080" stroke-miterlimit="10"/>
<g clip-path="url(#clip0_401_24)">
<path d="M24.4962 0C29.1692 0 31.0269 2.928 31.0269 5.904C31.0269 8.31 29.3192 10.5 27.2077 10.5C26.0538 10.5 24.9462 9.714 24.9462 8.304C24.9462 7.05 25.8 6.42 26.6538 6.162C27.8077 5.796 28.3096 5.22 28.3096 4.278C28.3096 2.658 26.9538 1.404 24.9404 1.404C21.675 1.404 19.3096 3.654 19.3096 6.528C19.3096 11.652 24.4846 13.32 28.1019 14.004C28.4019 12.75 29.0077 11.862 29.7115 11.862C30.3635 11.862 31.0154 12.75 31.2692 13.95C32.0712 13.896 32.2212 12.384 32.9769 11.334C33.8308 10.08 34.8865 9.768 36.0404 9.294C37.1942 8.826 38.1519 8.562 38.1519 7.776C38.1519 7.2 37.2981 7.098 36.7962 6.834C36.2423 6.57 35.6885 6.156 35.6885 5.058C35.6885 3.858 36.7442 2.808 38.25 2.808C40.1077 2.808 41.2673 4.116 41.2673 5.784C41.2673 8.292 38.8558 9.336 39.1038 11.478C39.8077 10.692 41.6192 9.072 43.3731 9.282C43.4712 10.536 42.5192 12.054 42.1673 12.522L43.3212 12.732C44.3769 12.942 44.9769 13.674 44.9769 14.982C44.9769 16.29 44.3712 17.022 43.3212 17.232L42.1673 17.442C42.5192 17.91 43.4712 19.428 43.3731 20.682C41.6135 20.892 39.8077 19.272 39.1038 18.486C38.85 20.628 41.2673 21.672 41.2673 24.18C41.2673 25.854 40.1135 27.156 38.25 27.156C36.7442 27.156 35.6885 26.112 35.6885 24.906C35.6885 23.808 36.2423 23.388 36.7962 23.13C37.2981 22.866 38.1519 22.764 38.1519 22.188C38.1519 21.402 37.2 21.144 36.0404 20.67C34.8865 20.202 33.8308 19.884 32.9769 18.63C32.2212 17.586 32.0712 16.068 31.2692 16.014C31.0154 17.214 30.3635 18.102 29.7115 18.102C29.0077 18.102 28.4077 17.214 28.1019 15.96C24.4846 16.638 19.3096 18.312 19.3096 23.436C19.3096 26.31 21.6692 28.56 24.9404 28.56C26.9481 28.56 28.3096 27.306 28.3096 25.686C28.3096 24.744 27.8077 24.168 26.6538 23.802C25.8 23.538 24.9462 22.914 24.9462 21.66C24.9462 20.25 26.0538 19.464 27.2077 19.464C29.3192 19.464 31.0269 21.66 31.0269 24.06C31.0269 27.036 29.1692 29.964 24.4962 29.964C20.3769 29.964 15 27.822 15 22.962C15 17.682 22.1885 15.906 26.2038 14.964C22.1885 14.058 15 12.282 15 7.002C15 2.142 20.3769 0 24.4962 0ZM36.4558 12.906C35.3481 12.906 34.4481 13.848 34.4481 14.994C34.4481 16.14 35.3538 17.082 36.4558 17.082C37.5577 17.082 38.4635 16.14 38.4635 14.994C38.4635 13.848 37.5577 12.906 36.4558 12.906Z" fill="#0F0F0F"/>
</g>
<g clip-path="url(#clip1_401_24)">
<path d="M1867.86 10.3525C1866.76 8.10985 1865.18 7.83926 1864.03 8.43089C1862.69 9.12342 1862.05 10.9671 1862.35 13.3795C1865.37 12.5219 1868.28 14.4619 1869.45 16.8467C1870.35 18.6675 1870.23 20.7313 1868.38 21.6944C1865.81 23.0245 1863.78 20.4516 1862.37 17.5943C1862 16.8376 1861.61 15.4892 1861.46 14.9021L1859.68 15.824C1860.21 18.8555 1859.16 21.3046 1857.41 22.2081C1855.79 23.0428 1853.53 22.7034 1852.1 19.7865L1853.13 19.2499C1854.24 21.4926 1855.82 21.7678 1856.96 21.1716C1858.3 20.4791 1858.94 18.6354 1858.64 16.223C1855.63 17.0806 1852.72 15.1406 1851.55 12.7604C1850.65 10.935 1850.76 8.87118 1852.62 7.90806C1855.19 6.57803 1857.21 9.15094 1858.62 12.0082C1858.99 12.7649 1859.38 14.1087 1859.54 14.7004L1861.32 13.7785C1860.78 10.747 1861.84 8.29789 1863.59 7.39439C1865.2 6.55969 1867.46 6.89907 1868.9 9.81595L1867.86 10.3525ZM1852.98 8.84825C1852.19 9.26101 1851.81 10.7195 1852.52 12.1504C1853.42 13.9711 1855.81 16.1083 1858.5 15.1727C1858.32 14.3885 1858.03 13.4483 1857.72 12.8291C1855.91 9.16011 1854.4 8.10985 1852.98 8.84825ZM1862.5 14.4389C1862.68 15.2232 1862.97 16.1634 1863.28 16.7825C1865.09 20.4516 1866.6 21.5018 1868.02 20.7634C1868.81 20.3507 1869.19 18.8922 1868.48 17.4613C1867.58 15.6405 1865.2 13.5033 1862.5 14.4389Z" fill="black"/>
</g>
<defs>
<clipPath id="clip0_401_24">
<rect width="30" height="30" fill="white" transform="translate(15)"/>
</clipPath>
<clipPath id="clip1_401_24">
<rect width="19" height="15.6071" fill="white" transform="translate(1851 7)"/>
</clipPath>
</defs>
</svg>
