<svg width="1920" height="15" viewBox="0 0 1920 15" fill="none" xmlns="http://www.w3.org/2000/svg">
<path d="M-32 8H1930" stroke="#808080"/>
<g clip-path="url(#clip0_397_9)">
<path d="M819.861 3.22205C818.756 1.0666 817.182 0.806538 816.032 1.37515C814.694 2.04074 814.055 3.81271 814.354 6.13125C817.365 5.30698 820.278 7.17151 821.45 9.4636C822.349 11.2135 822.233 13.1971 820.376 14.1227C817.808 15.401 815.781 12.9282 814.372 10.1821C814.001 9.45479 813.612 8.15887 813.455 7.59467L811.679 8.48065C812.211 11.3943 811.156 13.7481 809.406 14.6164C807.791 15.4186 805.532 15.0925 804.096 12.2891L805.134 11.7733C806.239 13.9288 807.818 14.1933 808.963 13.6202C810.301 12.9546 810.941 11.1827 810.641 8.86413C807.63 9.68841 804.718 7.82388 803.546 5.53619C802.646 3.78185 802.763 1.79831 804.619 0.872656C807.187 -0.405628 809.214 2.06719 810.623 4.8133C810.995 5.5406 811.384 6.8321 811.54 7.40072L813.316 6.51474C812.784 3.60113 813.84 1.24733 815.589 0.378974C817.204 -0.42326 819.463 -0.0970769 820.899 2.70633L819.861 3.22205ZM804.982 1.77627C804.19 2.17298 803.81 3.57468 804.517 4.94994C805.416 6.69987 807.809 8.75394 810.502 7.85473C810.319 7.10098 810.028 6.19737 809.724 5.60231C807.912 2.07601 806.4 1.0666 804.982 1.77627ZM814.497 7.14947C814.681 7.90322 814.972 8.80683 815.276 9.40189C817.088 12.9282 818.595 13.9376 820.018 13.2279C820.81 12.8312 821.19 11.4295 820.483 10.0543C819.584 8.30433 817.195 6.25026 814.497 7.14947Z" fill="black"/>
</g>
<defs>
<clipPath id="clip0_397_9">
<rect width="19" height="15" fill="white" transform="translate(803)"/>
</clipPath>
</defs>
</svg>
