<svg width="893" height="99" viewBox="0 0 893 99" fill="none" xmlns="http://www.w3.org/2000/svg">
<path d="M1.20336 0.0134769C-7.54048 -1.28725 267.848 92 409.883 92C516.284 92 554.451 73.8323 612.284 47.3757C651.31 29.531 684.22 8.17853 760.33 8C806.521 7.89798 830.003 24.8552 823.385 37.633C817.451 49.1015 776.525 56.7188 776.525 69.8706C776.525 90.8214 854.084 92.4126 892.265 91.9267" stroke="#808080" stroke-miterlimit="10"/>
<g clip-path="url(#clip0_396_7)">
<path d="M881.861 87.2221C880.756 85.0666 879.182 84.8065 878.032 85.3752C876.694 86.0407 876.055 87.8127 876.354 90.1313C879.365 89.307 882.278 91.1715 883.45 93.4636C884.349 95.2135 884.233 97.1971 882.376 98.1227C879.808 99.401 877.781 96.9282 876.372 94.1821C876.001 93.4548 875.612 92.1589 875.455 91.5947L873.679 92.4806C874.211 95.3943 873.156 97.7481 871.406 98.6164C869.791 99.4186 867.532 99.0925 866.096 96.2891L867.134 95.7733C868.239 97.9288 869.818 98.1933 870.963 97.6202C872.301 96.9546 872.941 95.1827 872.641 92.8641C869.63 93.6884 866.718 91.8239 865.546 89.5362C864.646 87.7819 864.763 85.7983 866.619 84.8727C869.187 83.5944 871.214 86.0672 872.623 88.8133C872.995 89.5406 873.384 90.8321 873.54 91.4007L875.316 90.5147C874.784 87.6011 875.84 85.2473 877.589 84.379C879.204 83.5767 881.463 83.9029 882.899 86.7063L881.861 87.2221ZM866.982 85.7763C866.19 86.173 865.81 87.5747 866.517 88.9499C867.416 90.6999 869.809 92.7539 872.502 91.8547C872.319 91.101 872.028 90.1974 871.724 89.6023C869.912 86.076 868.4 85.0666 866.982 85.7763ZM876.497 91.1495C876.681 91.9032 876.972 92.8068 877.276 93.4019C879.088 96.9282 880.595 97.9376 882.018 97.2279C882.81 96.8312 883.19 95.4295 882.483 94.0543C881.584 92.3043 879.195 90.2503 876.497 91.1495Z" fill="black"/>
</g>
<defs>
<clipPath id="clip0_396_7">
<rect width="19" height="15" fill="white" transform="translate(865 84)"/>
</clipPath>
</defs>
</svg>
