<svg width="715" height="715" viewBox="0 0 715 715" fill="none" xmlns="http://www.w3.org/2000/svg">
<g clip-path="url(#clip0_457_151)">
<path d="M652.988 391.942C671.524 401.231 687.43 417.115 687.43 439.638C675.511 448.906 666.222 451.557 651.652 451.557C621.177 451.557 582.748 406.511 548.307 406.511C537.703 406.511 525.784 409.162 519.167 423.732C512.529 439.617 519.167 450.221 527.12 458.174C550.958 482.011 610.615 478.045 631.802 499.253C642.406 509.857 646.372 517.81 649.044 532.38C633.138 548.286 610.615 548.286 590.744 541.648C602.662 557.553 621.198 598.633 609.279 609.237C598.675 621.156 557.596 602.62 541.69 590.701C548.328 610.573 548.328 633.096 532.422 649.002C517.852 646.351 509.899 642.385 499.295 631.781C478.088 610.594 482.054 550.958 458.216 527.099C450.263 519.146 440.995 512.529 423.775 519.146C409.205 524.448 406.533 537.703 406.533 548.307C406.533 582.748 451.578 621.177 451.578 651.653C451.578 666.222 448.927 675.511 439.659 687.43C417.115 687.43 401.209 671.524 391.942 652.989C389.291 672.86 373.406 713.94 357.5 713.94C341.594 713.94 325.71 672.86 323.059 652.989C313.791 671.524 297.885 687.43 275.362 687.43C266.094 675.511 263.422 666.222 263.422 651.653C263.422 621.177 308.468 582.748 308.468 548.307C308.468 537.703 305.817 524.448 292.562 519.146C276.656 512.529 264.737 519.146 256.784 527.099C232.947 550.958 236.913 610.573 215.726 631.781C205.122 642.385 197.169 646.351 182.578 649.002C166.693 633.117 166.694 610.573 173.31 590.701C157.404 602.62 116.346 621.177 105.742 609.237C93.8023 598.633 112.359 557.553 124.278 541.648C104.406 548.286 81.8835 548.286 65.9776 532.38C68.6286 517.81 72.5945 509.857 83.1984 499.253C104.406 478.067 164.021 482.032 187.88 458.174C195.833 450.221 202.45 438.302 195.833 423.732C189.195 409.141 177.276 406.511 166.693 406.511C132.231 406.511 93.8023 451.557 63.3267 451.557C48.7569 451.557 39.4891 448.906 27.5491 439.638C27.5491 417.115 43.4549 401.21 61.9906 391.942C42.1189 389.291 1.06055 373.406 1.06055 357.5C1.06055 341.594 42.1189 325.71 61.9906 323.059C43.4549 313.791 27.5491 297.885 27.5491 275.362C39.4891 266.095 48.7569 263.444 63.3267 263.444C93.8023 263.444 132.231 308.489 166.693 308.489C177.276 308.489 189.216 305.838 195.833 291.268C202.45 276.698 195.833 264.758 187.88 256.827C164.043 232.968 104.406 236.955 83.1984 215.747C72.5945 205.143 68.6286 197.19 65.9776 182.621C81.8835 166.736 104.406 166.736 124.278 173.353C112.338 157.447 93.8023 116.367 105.742 105.764C116.346 93.8448 157.404 112.38 173.31 124.32C166.694 104.449 166.693 81.926 182.578 66.0201C197.148 68.6711 205.122 72.637 215.726 83.2409C236.913 104.449 232.947 164.064 256.784 187.923C264.737 195.876 276.656 202.492 291.247 195.876C307.132 189.259 308.468 177.319 308.468 166.736C308.468 132.273 263.422 93.866 263.422 63.3691C263.422 48.7994 266.073 39.5316 275.362 27.5916C297.885 27.5916 313.791 43.4974 323.059 62.0543C325.71 42.1825 341.594 1.10303 357.5 1.10303C373.406 1.10303 389.312 42.1825 391.942 62.0543C401.209 43.4974 417.115 27.5916 439.659 27.5916C448.927 39.5316 451.578 48.7994 451.578 63.3691C451.578 93.8448 406.533 132.273 406.533 166.736C406.533 177.34 409.184 190.574 423.775 195.876C441.016 202.492 450.284 195.876 458.216 187.923C482.054 164.085 478.088 104.449 499.295 83.2409C509.899 72.637 517.831 68.6711 532.422 66.0201C548.328 81.926 548.328 104.449 541.69 124.32C557.596 112.38 598.675 93.8448 609.279 105.764C621.198 116.367 602.641 157.447 590.744 173.353C610.615 166.736 633.138 166.736 649.044 182.621C646.393 197.19 642.406 205.143 631.802 215.747C610.615 236.955 550.979 232.968 527.12 256.827C519.167 264.78 512.55 274.047 519.167 291.268C523.133 303.187 537.703 308.489 548.307 308.489C582.748 308.489 621.177 263.444 651.652 263.444C666.222 263.444 675.511 266.095 687.43 275.362C687.43 297.885 671.524 313.791 652.988 323.059C672.86 325.71 713.94 341.616 713.94 357.5C713.94 373.385 672.86 389.291 652.988 391.942ZM357.5 215.705C279.328 215.705 215.726 279.307 215.726 357.479C215.726 435.651 279.328 499.253 357.5 499.253C435.672 499.253 499.295 435.651 499.295 357.479C499.295 279.307 435.693 215.705 357.5 215.705ZM357.5 455.544C303.166 455.544 259.456 411.813 259.456 357.479C259.456 303.145 303.187 259.414 357.5 259.414C411.813 259.414 455.565 303.145 455.565 357.479C455.565 411.813 411.835 455.544 357.5 455.544ZM357.5 292.562C321.723 292.562 292.562 321.723 292.562 357.5C292.562 393.278 321.701 422.439 357.5 422.439C393.299 422.439 422.438 393.299 422.438 357.5C422.438 321.701 393.299 292.562 357.5 292.562Z" stroke="black"/>
</g>
<defs>
<clipPath id="clip0_457_151">
<rect width="715" height="715" fill="white"/>
</clipPath>
</defs>
</svg>
