<svg width="261" height="135" viewBox="0 0 261 135" fill="none" xmlns="http://www.w3.org/2000/svg">
<g clip-path="url(#clip0_364_367)">
<path d="M112.839 118.33C105.847 118.33 99.1604 116.434 92.9622 112.7C91.9136 112.049 91.9566 111.125 92.3086 110.531C92.84 109.632 94.2118 109.128 95.4113 109.808C101.139 113.182 106.838 114.823 112.839 114.823C122.122 114.823 129.056 111.596 132.446 105.722C121.414 105.542 110.731 103.225 101.487 99.0054C95.3179 107.876 82.469 113.373 67.8497 113.373C59.7446 113.373 52.2895 111.348 46.849 107.668C41.7353 104.207 38.8014 99.5306 38.8014 94.8325C38.8014 90.1344 41.0494 86.3752 45.3013 83.5585C49.2515 80.9396 54.6668 79.4971 60.5454 79.4971C63.4327 79.4971 66.758 80.0079 69.7063 80.8965C73.757 77.0473 81.0972 74.3278 90.4628 73.191C85.0905 68.7232 77.3768 66.2734 68.629 66.2734C55.6975 66.2734 41.9293 72.6982 34.0648 78.1985C33.3573 78.6733 32.4739 78.7237 31.6983 78.3388C31.0411 78.015 30.6102 77.4502 30.5707 76.8639C30.5383 76.3531 30.8005 75.8818 31.314 75.5401C35.6628 72.5435 51.2122 62.766 68.629 62.766C80.1743 62.766 91.0768 66.4676 97.8353 72.6694C98.8408 72.5795 99.8319 72.5795 100.97 72.5795C109.079 72.5795 117.82 74.504 125.002 77.8711L126.866 75.7379C110.731 67.4893 95.4867 60.7012 73.1932 60.7012C71.7999 60.7012 71.0745 59.8198 71.0745 58.9457C71.0745 58.0715 71.8035 57.1902 73.1932 57.1902C94.6931 57.1902 111.194 63.4639 129.304 72.9032L131.311 70.4751C115.464 62.3127 98.0435 54.8123 78.0161 54.8123C63.1705 54.8123 34.6537 66.2374 22.3076 73.7954C21.0507 74.5076 19.5748 74.004 19.0289 73.1155C18.598 72.414 18.8134 71.6334 19.5748 71.1226C31.411 63.3272 61.8382 51.305 78.0161 51.305C100.478 51.305 118.552 59.7623 133.739 67.7411L135.868 65.2122C119.407 56.9707 100.173 48.6178 81.9303 48.6178C79.6751 48.6178 76.6802 48.6861 73.5164 49.2329C72.6653 49.3912 71.8897 49.1466 71.4049 48.5602C71.0027 48.0782 70.8842 47.4414 71.096 46.8983C71.2253 46.5637 71.5988 45.9809 72.6258 45.8335C75.8363 45.3262 78.623 45.1068 81.9339 45.1068C97.5408 45.1068 116.509 50.9488 138.31 62.471L142.688 57.3197C143.187 56.7261 143.938 56.4671 144.742 56.611C145.539 56.7549 146.204 57.2585 146.433 57.8988C146.62 58.4169 146.505 58.9636 146.103 59.4385L141.97 64.2553C148.452 67.4857 155.58 70.752 163.811 72.9788C161.642 52.2834 132.417 39.9375 105.147 39.9375C79.3124 39.9375 58.2974 45.5277 36.9987 58.0679C35.6987 58.8234 34.309 58.2874 33.7631 57.3592C33.3286 56.6182 33.5405 55.8232 34.2874 55.3807C45.3839 48.8156 55.5682 44.3478 66.3379 41.3224C78.0556 38.0309 90.75 36.4301 105.147 36.4301C121.615 36.4301 139.495 40.4519 152.969 47.186C167.991 54.6936 176.358 64.8237 176.57 75.7379C181.479 76.5581 187.458 77.0258 193.035 77.0258C214.596 77.0258 222.277 70.1153 222.277 63.6473C222.277 57.629 215.684 53.2655 206.598 53.2655C200.874 53.2655 197.179 55.1109 197.179 57.9672C197.179 58.809 197.578 59.4313 198.037 60.1544L198.167 60.3558C198.271 60.5429 198.375 60.7083 198.475 60.8738C198.928 61.6113 199.398 62.3739 199.398 63.6473C199.398 65.8273 197.484 68.0361 193.821 68.0361C189.534 68.0361 186.42 65.1906 186.42 61.2731C186.42 56.9959 190.672 49.7581 206.598 49.7581C218.14 49.7581 226.518 55.6002 226.518 63.6509C226.518 66.9641 225.182 71.6909 218.826 75.4034C212.987 78.81 204.311 80.5403 193.038 80.5403C187.501 80.5403 181.701 80.0943 176.236 79.2453C175.916 80.7202 175.571 82.0296 175.018 83.4254C182.107 84.8247 189.627 85.5046 197.994 85.5046C222.327 85.5046 242.883 74.9321 242.883 62.4171C242.883 56.298 238.114 50.5172 229.452 46.1464C220.999 41.88 209.532 39.4302 197.991 39.4302C184.775 39.4302 172.846 42.2361 164.403 47.3335C163.671 47.7904 162.787 47.8156 162.04 47.4055C161.412 47.0601 161.017 46.4738 161.01 45.873C161.01 45.5457 161.121 44.9197 161.95 44.4413C170.792 39.0309 183.932 35.9229 197.991 35.9229C211.256 35.9229 223.642 38.682 232.864 43.6859C242.057 48.6753 247.12 55.3268 247.12 62.4135C247.12 77.0797 225.082 89.012 197.991 89.012C189.192 89.012 180.926 88.2278 173.41 86.6846C172.785 87.8753 171.977 89.0804 170.842 90.5121C180.067 92.9367 188.887 93.9727 200.206 93.9727C207.557 93.9727 219.997 95.9836 219.997 103.527C219.99 105.063 218.309 106.326 216.251 106.365H216.118C214.298 106.365 212.542 105.581 211.041 104.092C208.114 101.139 204.483 97.4801 196.949 97.4801C187.928 97.4801 177.647 96.0628 167.973 93.4907C161.2 99.9119 150.599 104.358 139.539 105.416C135.175 113.398 124.969 118.348 112.842 118.348L112.839 118.33ZM94.2298 110.207C93.6409 110.207 93.1381 110.535 92.9262 110.898C92.6677 111.337 92.8113 111.761 93.3392 112.089C99.4189 115.754 105.983 117.614 112.839 117.614C124.786 117.614 134.805 112.74 138.993 104.894L139.082 104.725L139.276 104.707C150.33 103.689 160.927 99.2464 167.617 92.8216L167.764 92.6813L167.958 92.7352C177.629 95.3253 187.925 96.7534 196.946 96.7534C204.781 96.7534 208.685 100.689 211.533 103.563C212.904 104.923 214.484 105.635 216.111 105.635H216.23C217.874 105.603 219.268 104.639 219.271 103.531C219.271 96.5412 207.284 94.6814 200.199 94.6814C188.596 94.6814 179.597 93.595 170.117 91.0553L169.582 90.9114L169.93 90.4797C171.298 88.7962 172.21 87.4436 172.885 86.1018L173.011 85.8572L173.28 85.9147C180.818 87.4868 189.131 88.2818 197.983 88.2818C210.972 88.2818 223.186 85.537 232.368 80.5511C241.414 75.6408 246.395 69.198 246.395 62.4027C246.395 55.6074 241.468 49.1646 232.515 44.3082C223.394 39.3583 211.13 36.6315 197.983 36.6315C184.054 36.6315 171.05 39.7 162.31 45.0492C162.033 45.2111 161.717 45.4737 161.721 45.855C161.724 46.1896 161.983 46.5493 162.378 46.7652C162.895 47.0493 163.509 47.0278 164.023 46.7112C172.58 41.5455 184.639 38.7036 197.983 38.7036C209.633 38.7036 221.218 41.1785 229.768 45.4953C238.681 49.9955 243.594 56.0031 243.594 62.4099C243.594 68.8167 238.771 74.6731 230.019 79.2165C221.325 83.7312 209.949 86.2169 197.987 86.2169C189.404 86.2169 181.705 85.5046 174.444 84.0405L174.013 83.9542L174.182 83.5477C174.857 81.9469 175.234 80.4756 175.597 78.7597L175.668 78.4251L176.006 78.4791C181.533 79.3532 187.418 79.8173 193.031 79.8173C213.547 79.8173 225.793 73.7738 225.793 63.6509C225.793 56.0174 217.716 50.4776 206.591 50.4776C191.229 50.4776 187.131 57.2657 187.131 61.2731C187.131 64.7769 189.943 67.3166 193.814 67.3166C197.15 67.3166 198.673 65.4136 198.673 63.6473C198.673 62.5789 198.296 61.9638 197.858 61.2515C197.754 61.0789 197.646 60.9062 197.545 60.7263L197.427 60.5429C196.928 59.7623 196.454 59.0212 196.454 57.9672C196.454 54.6721 200.433 52.546 206.591 52.546C216.093 52.546 222.988 57.2154 222.988 63.6473C222.988 66.4425 221.753 70.4283 215.871 73.5472C210.613 76.3351 202.928 77.7452 193.031 77.7452C187.304 77.7452 181.148 77.2524 176.15 76.3962L175.852 76.3459V76.0437C175.726 53.1216 138.486 37.1495 105.143 37.1495C77.7072 37.1495 57.2847 42.6103 34.6501 56.0031C34.1007 56.3304 34.2443 56.7657 34.3808 56.9959C34.6896 57.5247 35.6197 58.0355 36.6324 57.4456C58.0424 44.8406 79.1724 39.218 105.143 39.218C119.615 39.218 134.188 42.6139 145.119 48.5314C156.858 54.8879 163.768 63.7301 164.572 73.4284L164.615 73.9357L164.123 73.8062C155.443 71.5147 147.992 68.0685 141.234 64.6906L140.821 64.4855L145.554 58.9708C145.783 58.6938 145.855 58.4169 145.755 58.1435C145.615 57.755 145.144 57.4132 144.613 57.3197C144.067 57.2225 143.564 57.3916 143.234 57.7873L138.483 63.3776L138.228 63.2409C116.426 51.6863 97.4833 45.8263 81.9339 45.8263C78.6625 45.8263 75.9081 46.0421 72.73 46.5457C72.2308 46.6177 71.8897 46.8335 71.764 47.1573C71.6491 47.4558 71.7245 47.8156 71.9579 48.0998C72.2739 48.4811 72.7946 48.6358 73.3907 48.5242C76.6155 47.9703 79.65 47.8983 81.9339 47.8983C100.478 47.8983 119.974 56.4275 136.601 64.7733L137.007 64.9784L133.918 68.6476L133.663 68.5145C118.502 60.5393 100.446 52.028 78.0196 52.028C61.9639 52.028 31.7414 63.9783 19.977 71.7269C19.6681 71.932 19.3593 72.2773 19.6466 72.7414C19.977 73.281 21.0148 73.709 21.9485 73.1766C32.5206 66.7051 61.91 54.0965 78.0196 54.0965C98.3667 54.0965 116.006 61.7624 132.04 70.0434L132.435 70.2484L129.487 73.8134L129.229 73.6803C111.111 64.2193 94.65 57.9168 73.1932 57.9168C72.2308 57.9168 71.7927 58.4528 71.7927 58.9529C71.7927 59.4529 72.2308 59.9889 73.1932 59.9889C95.835 59.9889 111.23 66.9317 127.602 75.317L128.011 75.5257L125.181 78.7633L124.937 78.6482C117.802 75.2559 109.065 73.3133 100.967 73.3133C99.7852 73.3133 98.7689 73.3133 97.7419 73.4141L97.5803 73.4284L97.4618 73.3169C90.8434 67.1691 80.0666 63.4963 68.629 63.4963C51.4169 63.4963 36.0255 73.1802 31.7162 76.148C31.4146 76.3531 31.2709 76.5797 31.2853 76.8315C31.3068 77.1589 31.5941 77.5006 32.0143 77.7093C32.5601 77.979 33.1742 77.9431 33.659 77.6193C41.6025 72.0615 55.5323 65.5683 68.629 65.5683C77.894 65.5683 86.035 68.2771 91.558 73.1982L92.1613 73.7378L91.3569 73.8277C81.6359 74.8997 74.073 77.6517 70.0546 81.5764L69.9002 81.7275L69.6955 81.6627C66.7652 80.7526 63.4291 80.231 60.5418 80.231C50.0918 80.231 39.516 85.2528 39.516 94.8505C39.516 103.423 50.3468 112.672 67.8461 112.672C82.3649 112.672 95.0953 107.189 101.06 98.3686L101.232 98.1168L101.509 98.2463C110.889 102.581 121.795 104.927 133.049 105.031L133.638 105.038L133.362 105.56C129.957 112.01 122.664 115.564 112.832 115.564C106.698 115.564 100.88 113.891 95.045 110.452C94.7649 110.294 94.4848 110.229 94.2226 110.229L94.2298 110.207ZM67.8497 110.585C60.7609 110.585 54.2251 108.876 49.449 105.775C44.9206 102.836 42.3243 98.8507 42.3243 94.8325C42.3243 86.5946 51.4923 82.285 60.549 82.285C62.8617 82.285 65.5155 82.7059 67.8282 83.4398L68.2591 83.5765L68.0293 83.965C67.1243 85.501 66.6431 87.0839 66.6431 88.5336C66.6431 91.9654 69.2754 94.2677 73.1968 94.2677C76.5689 94.2677 78.8348 91.8359 78.8348 89.566C78.8348 87.0191 76.7304 84.6413 72.9131 82.8678L72.4032 82.6304L72.8341 82.267C77.0429 78.7093 84.5267 76.3675 93.903 75.6768L94.0862 75.6624L94.2047 75.8027C97.1601 79.3137 98.7223 83.5369 98.7223 88.0191C98.7223 89.8538 98.4386 91.764 97.9214 93.3971L97.7886 93.8216L97.4043 93.6022C93.5475 91.4186 90.3191 89.0012 87.8054 86.4112C87.4067 86.0083 86.8034 85.8644 86.1894 86.0262C85.6794 86.1629 85.2772 86.4831 85.1803 86.832C85.1156 87.0731 85.2054 87.3177 85.446 87.5587C88.5846 90.6668 92.4343 93.5051 96.5784 95.7606L96.8836 95.9261L96.7256 96.239C92.1901 105.225 81.3917 110.589 67.8497 110.589V110.585ZM60.5454 83.0045C51.8478 83.0045 43.0389 87.0659 43.0389 94.8325C43.0389 102.063 52.5229 109.866 67.8461 109.866C80.9572 109.866 91.4216 104.772 95.9248 96.221C91.8417 93.9619 88.0496 91.1452 84.9361 88.0659C84.5123 87.6378 84.3507 87.1306 84.4836 86.6414C84.6452 86.0442 85.2413 85.5298 86.0026 85.3284C86.8681 85.1017 87.7299 85.314 88.3117 85.9039C90.6962 88.3573 93.7378 90.6596 97.3612 92.7496C97.7742 91.2855 98.0004 89.6236 98.0004 88.0191C98.0004 83.7707 96.5389 79.7597 93.7701 76.407C84.9468 77.0833 77.8688 79.2237 73.7283 82.4649C77.4882 84.3391 79.5495 86.8464 79.5495 89.566C79.5495 92.2856 76.9962 94.9871 73.1932 94.9871C68.8444 94.9871 65.9213 92.3935 65.9213 88.5336C65.9213 87.0803 66.3558 85.519 67.1818 83.9938C65.0415 83.3606 62.6462 83.0045 60.5418 83.0045H60.5454ZM134.482 102.941H134.22C123.127 102.941 111.912 100.581 102.644 96.2966L102.313 96.1455L102.468 95.8181C103.656 93.3072 104.26 90.6848 104.26 88.0191C104.26 83.7455 102.672 79.3496 99.9073 75.9538L99.4297 75.3674H100.187C108.799 75.3674 116.66 77.2416 122.923 80.785L123.303 81.0008L118.452 86.6018C118.222 86.8752 118.154 87.1558 118.251 87.4292C118.391 87.8177 118.861 88.1595 119.396 88.253C119.942 88.3501 120.445 88.181 120.775 87.7889L125.551 82.2778L125.813 82.4541C132.058 86.6162 135.362 91.8647 135.362 97.6276C135.362 99.3075 135.093 101.013 134.565 102.693L134.486 102.944L134.482 102.941ZM103.272 95.793C112.311 99.9047 123.181 102.182 133.954 102.221C134.41 100.692 134.644 99.1492 134.644 97.624C134.644 92.192 131.545 87.217 125.677 83.2239L121.321 88.253C120.822 88.8465 120.071 89.1019 119.27 88.958C118.473 88.8142 117.809 88.3105 117.579 87.6702C117.392 87.1522 117.511 86.6054 117.909 86.1306L122.186 81.1915C116.275 77.9467 108.953 76.1876 100.931 76.0869C103.513 79.5187 104.982 83.8247 104.982 88.0156C104.982 90.6704 104.407 93.2856 103.276 95.793H103.272ZM140.106 102.516L140.268 101.966C140.666 100.599 140.903 98.9766 140.903 97.624C140.903 91.1884 136.17 84.8247 127.918 80.1698L127.544 79.9576L130.22 76.7164L130.478 76.8531C140.512 82.1124 149.637 86.7457 159.767 90.156L160.216 90.307L159.95 90.6992C155.792 96.847 148.947 101.009 140.673 102.419L140.106 102.516ZM128.643 79.7561C136.899 84.5226 141.621 91.0193 141.621 97.624C141.621 98.8579 141.431 100.311 141.104 101.61C148.757 100.178 155.106 96.3182 159.081 90.6812C149.17 87.2997 140.21 82.7635 130.399 77.6229L128.64 79.7525L128.643 79.7561ZM72.9347 92.1992C70.8806 92.1992 69.4477 90.692 69.4477 88.5336C69.4477 87.2277 69.8607 85.9111 70.6759 84.6233L70.8375 84.3679L71.1176 84.483C74.2885 85.796 76.0338 87.6019 76.0338 89.566C76.0338 90.584 75.1935 92.1992 72.9347 92.1992ZM71.1248 85.2672C70.4891 86.3572 70.1659 87.4544 70.1659 88.5336C70.1659 90.2963 71.2792 91.4798 72.9347 91.4798C74.5902 91.4798 75.3156 90.307 75.3156 89.566C75.3156 87.458 72.809 86.0047 71.1248 85.2672ZM161.401 88.3537L161.103 88.253C150.736 84.778 140.838 79.6986 132.105 75.2163L131.688 75.0041L134.795 71.5578L135.042 71.6873C142.12 75.3962 151.709 80.0799 163.143 83.4362L163.48 83.5369L163.387 83.8786C163.074 85.0334 162.525 86.1162 161.994 87.163C161.839 87.4652 161.685 87.7709 161.537 88.0731L161.401 88.3573V88.3537ZM132.848 74.7918C141.374 79.1662 150.99 84.0729 161.035 87.4724C161.139 87.2601 161.247 87.0479 161.354 86.8356C161.818 85.9255 162.292 84.9902 162.597 84.0261C151.385 80.6986 141.966 76.1192 134.956 72.4536L132.848 74.7918ZM163.951 81.5476L163.592 81.4433C153.249 78.3963 144.44 73.968 136.669 70.0578L136.263 69.8527L139.345 66.1907L139.596 66.313C148.157 70.511 155.659 73.7846 164.436 76.1013L164.726 76.1768L164.701 76.479C164.572 78.0186 164.439 79.6086 164.04 81.1843L163.951 81.5476ZM137.402 69.6153C144.954 73.4141 153.49 77.6733 163.434 80.6411C163.728 79.3388 163.854 78.0078 163.961 76.7164C155.339 74.4105 147.934 71.1909 139.531 67.0792L137.398 69.6153H137.402Z" fill="#0F0F0F"/>
<path d="M238.168 122.942C237.284 122.942 236.336 121.931 236.336 119.711C236.336 109.009 236.045 102.782 235.334 98.2244C234.361 91.6414 231.065 87.0476 227.323 87.0476C222.74 87.0476 219.778 92.1918 219.778 100.153C219.778 107.541 222.155 113.117 225.308 113.117C227.922 113.117 228.202 110.297 228.202 109.085C228.202 106.739 227.355 105.383 226.49 104.196C226.407 104.081 226.321 103.966 226.231 103.847C225.337 102.649 224.328 101.293 224.328 98.595C224.328 95.0552 225.951 92.2817 228.019 92.2817C231.248 92.2817 233.417 98.5518 233.417 104.405C233.417 112.211 230.21 117.661 225.62 117.661C220.051 117.661 215.343 109.642 215.343 100.153C215.343 90.6629 220.334 82.5006 226.705 82.5006C230.63 82.5006 234.203 85.4324 236.311 90.2636C236.34 88.7455 236.34 87.1591 236.34 85.5115C234.383 84.6698 233.086 82.8351 233.086 80.8746C233.086 79.0328 234.584 76.5902 236.34 76.1765C236.336 74.5937 236.293 72.5828 236.142 70.7446C234.652 74.662 231.614 77.2665 229.416 77.2665C226.644 77.2665 224.694 75.5074 222.888 71.3813C222.126 69.4495 222.608 67.5574 223.512 67.0573C223.714 66.9458 224.428 66.658 225.136 67.6221C225.782 68.4063 226.393 68.7517 227.172 68.7517C229.046 68.7517 229.607 66.2911 229.761 65.2335C230.127 61.5534 231.571 59.2547 233.524 59.2547C234.038 59.2547 234.523 59.4598 234.943 59.8375C234.286 55.7366 232.275 53.8804 230.425 53.8804C228.892 53.8804 227.983 54.8984 227.107 55.8841C226.931 56.0819 226.755 56.2762 226.579 56.4632C225.531 57.6432 224.27 58.6144 222.22 57.6755L222.058 57.6036L222.019 57.4309C221.627 55.7582 221.652 54.143 222.105 52.427C221.171 52.8156 220.108 52.5098 219.027 51.5205L218.887 51.3946L218.912 51.2076C219.541 46.4663 222.148 41.6819 226.554 41.6819C230.361 41.6819 234.221 45.6245 236.203 47.8944C234.918 41.6999 230.81 37.0162 226.475 37.0162C223.868 37.0162 222.661 33.7714 222.399 30.7352L222.389 30.6345L222.435 30.5446C223.265 28.9042 224.651 26.9473 226.554 26.9473C229.915 26.9473 234.243 35.2103 236.002 38.894C235.873 37.5342 235.65 36.6456 235.356 35.7859C234.947 34.4441 234.638 33.2678 234.638 31.2748C234.638 28.2927 235.869 25.3824 237.931 23.4974L238.171 23.2744L238.412 23.4974C240.473 25.3824 241.705 28.2927 241.705 31.2748C241.705 33.2678 241.396 34.4441 240.994 35.7715C240.696 36.642 240.473 37.5306 240.344 38.894C242.104 35.2103 246.431 26.9473 249.792 26.9473C251.275 26.9473 252.737 28.2243 253.907 30.5446L253.954 30.6345L253.943 30.7352C253.681 33.7714 252.475 37.0162 249.867 37.0162C245.529 37.0162 241.421 41.7071 240.139 47.9052C243.831 43.718 246.995 41.6819 249.792 41.6819C254.198 41.6819 256.802 46.4663 257.434 51.2076L257.459 51.3946L257.319 51.5205C256.234 52.5098 255.171 52.812 254.238 52.427C254.694 54.143 254.719 55.7582 254.324 57.4309L254.284 57.6036L254.123 57.6755C252.069 58.6144 250.808 57.6432 249.753 56.4524C249.587 56.2762 249.411 56.0819 249.235 55.8841C248.356 54.8984 247.447 53.8804 245.914 53.8804C244.064 53.8804 242.053 55.7366 241.396 59.8375C241.816 59.4598 242.301 59.2547 242.815 59.2547C244.772 59.2547 246.212 61.5498 246.582 65.2479C246.736 66.2911 247.296 68.7517 249.171 68.7517C249.946 68.7517 250.561 68.4099 251.218 67.6077C251.911 66.658 252.625 66.9458 252.827 67.0573C253.731 67.5574 254.213 69.4495 253.455 71.3705C251.645 75.5074 249.695 77.2665 246.923 77.2665C244.725 77.2665 241.687 74.662 240.2 70.7446C240.049 72.5864 240.006 74.5937 239.999 76.1765C241.755 76.5938 243.253 79.0328 243.253 80.8746C243.253 82.8316 241.956 84.6662 239.999 85.5115C239.999 87.1627 239.999 88.7455 240.028 90.2636C242.136 85.4288 245.709 82.5006 249.634 82.5006C256.005 82.5006 260.996 90.2528 260.996 100.153C260.996 110.052 256.288 117.661 250.719 117.661C246.126 117.661 242.922 112.211 242.922 104.405C242.922 98.5482 245.091 92.2817 248.32 92.2817C250.388 92.2817 252.011 95.0552 252.011 98.595C252.011 101.293 250.999 102.649 250.104 103.847C250.018 103.962 249.932 104.077 249.85 104.192C248.984 105.383 248.137 106.739 248.137 109.081C248.137 110.293 248.42 113.114 251.031 113.114C254.184 113.114 256.561 107.541 256.561 100.149C256.561 92.1882 253.599 87.044 249.016 87.044C245.271 87.044 241.978 91.6378 241.005 98.2173C240.294 102.782 240.003 109.009 240.003 119.708C240.003 121.927 239.055 122.938 238.171 122.938L238.168 122.942ZM236.042 98.1129C236.76 102.71 237.054 108.97 237.054 119.711C237.054 121.341 237.629 122.222 238.168 122.222C238.706 122.222 239.281 121.341 239.281 119.711C239.281 108.973 239.575 102.714 240.294 98.1129C241.321 91.1737 244.908 86.3281 249.016 86.3281C254.037 86.3281 257.279 91.7529 257.279 100.153C257.279 108.081 254.651 113.837 251.031 113.837C248.769 113.837 247.418 112.06 247.418 109.085C247.418 106.527 248.374 104.998 249.268 103.772C249.354 103.653 249.44 103.538 249.53 103.419C250.395 102.257 251.293 101.056 251.293 98.5986C251.293 95.2531 249.756 93.0048 248.32 93.0048C245.641 93.0048 243.641 99.0266 243.641 104.408C243.641 111.675 246.618 116.945 250.719 116.945C255.811 116.945 260.278 109.099 260.278 100.156C260.278 91.2133 255.505 83.2237 249.634 83.2237C245.587 83.2237 241.917 86.6591 240.057 92.1918L239.356 92.091C239.277 89.9578 239.277 87.6843 239.277 85.2741V85.0259L239.507 84.936C241.317 84.2453 242.531 82.6157 242.531 80.8782C242.531 79.1407 240.972 76.9607 239.604 76.842L239.277 76.8132V76.4823C239.277 74.3383 239.346 71.2878 239.669 68.9207L240.373 68.8848C241.421 73.2699 244.693 76.547 246.919 76.547C249.361 76.547 251.117 74.9175 252.791 71.0935C253.419 69.5035 253.02 67.989 252.478 67.6869C252.223 67.543 251.961 67.8056 251.782 68.0466C250.97 69.0359 250.169 69.4711 249.167 69.4711C247.454 69.4711 246.251 67.9638 245.867 65.3378C245.544 62.075 244.344 59.9778 242.815 59.9778C242.193 59.9778 241.604 60.4706 241.202 61.3304L240.52 61.1505C240.951 55.6359 243.54 53.1645 245.914 53.1645C247.767 53.1645 248.83 54.3588 249.771 55.4092C249.939 55.5999 250.112 55.7905 250.28 55.9668C251.315 57.1323 252.205 57.6899 253.663 57.0928C254.051 55.2977 253.918 53.5674 253.247 51.6572L253.843 51.2867C254.144 51.5961 255.046 52.5206 256.691 51.114C256.062 46.7469 253.703 42.4013 249.788 42.4013C247.045 42.4013 243.694 44.7432 239.838 49.3585L239.033 50.319L239.206 49.0779C240.222 41.7898 244.804 36.2967 249.867 36.2967C251.965 36.2967 252.977 33.3469 253.222 30.7748C252.6 29.5697 251.369 27.6631 249.792 27.6631C246.962 27.6631 242.409 35.7895 240.204 40.912L239.514 40.761C239.59 38.1385 239.873 36.8219 240.308 35.552C240.703 34.2498 240.987 33.1706 240.987 31.2748C240.987 28.6092 239.938 26.012 238.168 24.2601C236.397 26.0156 235.349 28.6092 235.349 31.2748C235.349 33.1706 235.632 34.2498 236.031 35.5628C236.462 36.8219 236.746 38.1385 236.821 40.761L236.132 40.9156C233.927 35.7931 229.37 27.6667 226.543 27.6667C224.967 27.6667 223.735 29.5733 223.114 30.7784C223.354 33.3505 224.371 36.3003 226.468 36.3003C231.531 36.3003 236.114 41.797 237.13 49.0815L237.302 50.3226L236.498 49.3621C235.058 47.6426 230.677 42.4049 226.543 42.4049C222.629 42.4049 220.27 46.7505 219.641 51.1176C221.29 52.5278 222.187 51.6033 222.489 51.2903L223.085 51.6608C222.414 53.5674 222.281 55.3013 222.669 57.0964C224.119 57.6935 225.014 57.1359 226.041 55.9812C226.22 55.7941 226.389 55.6035 226.561 55.4128C227.499 54.3624 228.565 53.1681 230.418 53.1681C232.792 53.1681 235.381 55.6359 235.812 61.1541L235.13 61.334C234.727 60.4742 234.139 59.9814 233.517 59.9814C231.987 59.9814 230.788 62.0786 230.465 65.327C230.081 67.971 228.878 69.4783 227.165 69.4783C226.163 69.4783 225.362 69.043 224.561 68.0718C224.371 67.8128 224.109 67.5538 223.854 67.694C223.311 67.9926 222.913 69.5071 223.545 71.1115C225.211 74.9211 226.967 76.5542 229.409 76.5542C231.636 76.5542 234.907 73.2771 235.956 68.892L236.659 68.9279C236.983 71.2878 237.051 74.3419 237.051 76.4895V76.8204L236.724 76.8492C235.356 76.9679 233.797 79.1191 233.797 80.8854C233.797 82.6517 235.011 84.2525 236.821 84.9432L237.051 85.0331V85.2813C237.051 87.6915 237.051 89.965 236.975 92.0982L236.275 92.199C234.415 86.6663 230.745 83.2308 226.698 83.2308C220.83 83.2308 216.054 90.8248 216.054 100.163C216.054 109.502 220.521 116.952 225.613 116.952C229.714 116.952 232.691 111.678 232.691 104.415C232.691 99.0339 230.691 93.0119 228.012 93.0119C226.576 93.0119 225.039 95.2603 225.039 98.6058C225.039 101.063 225.933 102.264 226.802 103.426C226.892 103.545 226.978 103.664 227.064 103.779C227.958 105.009 228.913 106.531 228.913 109.092C228.913 112.067 227.563 113.844 225.301 113.844C221.681 113.844 219.052 108.088 219.052 100.16C219.052 91.7637 222.295 86.3353 227.315 86.3353C231.424 86.3353 235.011 91.1809 236.038 98.1201L236.042 98.1129Z" fill="#0F0F0F"/>
<path d="M233.399 20.3356C232.192 20.3356 231.212 19.3536 231.212 18.1449C231.212 16.9362 232.192 15.9541 233.399 15.9541C234.605 15.9541 235.586 16.9362 235.586 18.1449C235.586 19.3536 234.605 20.3356 233.399 20.3356ZM233.399 16.6736C232.587 16.6736 231.93 17.3319 231.93 18.1449C231.93 18.9579 232.587 19.6162 233.399 19.6162C234.21 19.6162 234.868 18.9579 234.868 18.1449C234.868 17.3319 234.21 16.6736 233.399 16.6736Z" fill="#0F0F0F"/>
<path d="M244.563 20.5012C243.356 20.5012 242.376 19.5191 242.376 18.3104C242.376 17.1017 243.356 16.1196 244.563 16.1196C245.77 16.1196 246.75 17.1017 246.75 18.3104C246.75 19.5191 245.77 20.5012 244.563 20.5012ZM244.563 16.8391C243.751 16.8391 243.094 17.4974 243.094 18.3104C243.094 19.1234 243.751 19.7817 244.563 19.7817C245.375 19.7817 246.032 19.1234 246.032 18.3104C246.032 17.4974 245.375 16.8391 244.563 16.8391Z" fill="#0F0F0F"/>
<path d="M231.571 26.0375C230.317 26.0375 229.294 25.0158 229.294 23.7568C229.294 22.4977 230.314 21.4761 231.571 21.4761C232.828 21.4761 233.847 22.4977 233.847 23.7568C233.847 25.0158 232.828 26.0375 231.571 26.0375ZM231.571 22.1991C230.712 22.1991 230.012 22.9006 230.012 23.7604C230.012 24.6201 230.712 25.3216 231.571 25.3216C232.429 25.3216 233.129 24.6201 233.129 23.7604C233.129 22.9006 232.429 22.1991 231.571 22.1991Z" fill="#0F0F0F"/>
<path d="M238.639 18.3246C237.342 18.3246 236.29 17.267 236.29 15.9684C236.29 14.6697 237.346 13.6157 238.639 13.6157C239.931 13.6157 240.987 14.6733 240.987 15.9684C240.987 17.2634 239.931 18.3246 238.639 18.3246ZM238.639 14.3352C237.737 14.3352 237.008 15.069 237.008 15.9684C237.008 16.8677 237.741 17.6051 238.639 17.6051C239.536 17.6051 240.269 16.8713 240.269 15.9684C240.269 15.0654 239.536 14.3352 238.639 14.3352Z" fill="#0F0F0F"/>
<path d="M244.581 25.7564C243.604 25.7564 242.811 24.9614 242.811 23.9829C242.811 23.0045 243.604 22.2095 244.581 22.2095C245.558 22.2095 246.355 23.0045 246.355 23.9829C246.355 24.9614 245.561 25.7564 244.581 25.7564ZM244.581 22.9253C243.999 22.9253 243.529 23.4002 243.529 23.9794C243.529 24.5585 244.003 25.0334 244.581 25.0334C245.159 25.0334 245.637 24.5585 245.637 23.9794C245.637 23.4002 245.163 22.9253 244.581 22.9253Z" fill="#0F0F0F"/>
<path d="M238.699 22.893C237.758 22.893 236.993 22.1268 236.993 21.1843C236.993 20.2418 237.758 19.4756 238.699 19.4756C239.64 19.4756 240.405 20.2418 240.405 21.1843C240.405 22.1268 239.64 22.893 238.699 22.893ZM238.699 20.1915C238.153 20.1915 237.711 20.6375 237.711 21.1807C237.711 21.7239 238.157 22.17 238.699 22.17C239.241 22.17 239.686 21.7239 239.686 21.1807C239.686 20.6375 239.245 20.1915 238.699 20.1915Z" fill="#0F0F0F"/>
<path d="M63.2067 124.543H63.1959C62.273 124.543 59.1128 123.715 58.47 123.366C53.6616 121.284 50.365 117.301 48.3863 111.197C47.5711 108.679 47.2263 105.999 47.3592 103.232C47.449 101.387 47.7471 99.5594 48.2498 97.7752C48.081 97.9874 47.9051 98.1925 47.7219 98.3975C46.9857 99.2213 46.1203 100.034 45.1435 100.811C39.0028 105.481 31.3071 108.761 22.2683 110.564C20.8534 110.848 19.4637 111.053 18.1422 111.179C17.8441 111.193 17.1367 111.24 16.3143 111.297C14.4397 111.427 12.1127 111.585 11.4627 111.556C11.0139 111.535 10.5506 111.521 10.0838 111.506C5.75651 111.362 0.3627 111.193 0 105.571C0 104.157 0.639213 102.887 1.79913 101.973C3.2643 100.818 5.40099 100.362 7.24681 100.808C7.27195 100.815 7.29708 100.822 7.31863 100.833C8.16253 101.243 9.41223 102.441 9.41223 103.718C9.41223 103.743 9.41223 103.768 9.40505 103.79C9.07826 105.373 7.75315 106.434 6.42086 107.006C8.96335 107.747 11.4089 107.83 14.2171 107.704C19.5104 107.47 25.2274 106.283 27.1522 105.553C34.0076 102.948 37.789 100.142 42.7662 95.552C43.5132 94.9045 44.2673 94.2138 45.0214 93.4908C45.7289 92.8145 46.4543 92.0878 47.1797 91.3324C53.5072 85.4112 56.7427 79.3893 58.7358 69.842C58.7573 69.7377 58.7968 69.565 58.8471 69.342C59.1595 67.957 59.9962 64.2734 60.0393 61.7696C60.0681 60.0933 59.8346 58.3378 59.6084 56.6435C59.5114 55.9096 59.4109 55.1506 59.3319 54.4167C59.1811 52.8879 58.8722 51.7295 58.5131 50.3877C58.3731 49.8589 58.2258 49.305 58.075 48.6934C57.8057 47.5746 57.2132 45.8335 56.7858 44.8982C54.8897 40.7362 52.9972 38.4806 49.284 35.9661C39.545 29.9298 25.4249 32.8508 19.3919 37.1784C17.8764 38.2648 15.3267 40.3728 13.8436 41.8837C10.0012 45.8048 8.62578 49.6071 9.8683 52.8843C10.2669 53.9383 11.9368 56.237 13.7 56.8701C15.2334 57.4241 17.4239 56.996 19.2769 55.7837C21.1694 54.5462 22.3258 52.8015 22.4479 50.9957C22.5305 49.7762 22.3401 49.4848 22.2539 49.4129C22.1103 49.2978 21.7189 49.4129 21.3418 49.5172C20.796 49.6719 20.1208 49.8661 19.4529 49.6431C19.0112 49.4956 17.9123 48.7797 17.3306 47.5135C16.8565 46.4811 16.8565 45.3191 17.3306 44.1572C18.0201 42.4629 20.7026 41.8801 22.8824 42.1967C25.5362 42.578 27.2527 44.0853 27.4718 46.2292C27.9027 50.4705 27.1378 53.9023 25.1915 56.4168C23.0943 59.1328 20.2753 60.6365 15.7756 61.4351C13.4558 61.8524 10.9025 60.5322 10.1771 60.1185C6.44241 57.9889 4.61095 53.3124 4.73305 49.7942C4.90901 44.7831 6.82665 41.0743 7.9327 39.6749C10.5111 36.4122 14.4505 33.4732 19.0256 31.3975C19.7546 31.0018 20.5338 30.6133 21.3239 30.2536C32.151 25.4943 47.844 24.8648 58.5059 34.1854C59.6946 35.1495 60.675 36.0525 61.4937 36.941C64.5031 40.2038 68.9596 48.2869 68.9704 55.2621C68.9775 60.8559 68.6256 64.8382 68.4856 65.8994C67.6919 72.022 61.3106 84.7097 54.2649 91.8864C52.8428 93.6095 52.6309 94.3145 51.7511 97.7752C51.1694 100.067 51.1658 103.729 51.2304 104.804C51.6721 112.11 53.7873 115.154 58.6316 119.222C59.1847 116.859 60.8114 115.618 63.3611 115.618C65.0309 115.618 65.9467 116.305 66.5536 116.758C68.1157 117.927 67.8033 120.312 66.9917 122.151C66.5536 123.14 65.092 124.532 63.2067 124.532V124.543ZM49.478 94.9441C49.5282 94.9441 49.5821 94.9549 49.6324 94.98C49.8047 95.0628 49.8838 95.2642 49.8119 95.4405C48.7921 97.955 48.2067 100.588 48.081 103.265C47.9517 105.948 48.2857 108.542 49.0722 110.974C50.9826 116.88 54.1571 120.719 58.7717 122.715C58.786 122.723 58.7968 122.726 58.8112 122.733C59.2493 122.989 62.3448 123.823 63.1995 123.827H63.2067C64.7508 123.827 65.9862 122.665 66.3345 121.877C66.5751 121.33 67.7063 118.539 66.1226 117.352C65.5624 116.931 64.7903 116.355 63.3611 116.355C60.9371 116.355 59.5833 117.535 59.2277 119.96C59.2098 120.089 59.1236 120.197 59.0015 120.244C58.883 120.291 58.743 120.269 58.6424 120.186C53.2989 115.78 50.9898 112.675 50.5158 104.869C50.4476 103.765 50.4511 99.9911 51.058 97.6169C51.9163 94.2534 52.1461 93.3469 53.737 91.4223C60.7073 84.3176 66.9989 71.8349 67.7781 65.8238C67.9146 64.777 68.2629 60.8379 68.2557 55.2837C68.245 48.4956 63.9033 40.6282 60.9694 37.4482C60.1758 36.5849 59.217 35.7035 58.0463 34.7538C47.6106 25.6346 32.2336 26.2642 21.6183 30.9299C20.8498 31.2824 20.0813 31.6637 19.3452 32.063C14.8491 34.1027 11.0031 36.9698 8.4965 40.1426C7.51614 41.3837 5.62005 45.0026 5.45127 49.841C5.33635 53.1433 7.04571 57.5284 10.5326 59.5141C11.2042 59.8955 13.5599 61.1185 15.6499 60.748C19.9592 59.9818 22.6454 58.5608 24.6241 55.996C26.4519 53.6289 27.1701 50.3734 26.7572 46.3192C26.4878 43.6608 23.6437 43.0492 22.7818 42.9269C20.6128 42.614 18.4618 43.2974 17.9949 44.445C17.5927 45.4306 17.5927 46.3659 17.9841 47.2293C18.4725 48.2941 19.399 48.8805 19.6827 48.9776C20.1352 49.1287 20.6487 48.9812 21.1443 48.8409C21.7009 48.6826 22.2719 48.5171 22.7064 48.8697C23.1086 49.197 23.2451 49.8517 23.1625 51.0604C23.0224 53.0929 21.7476 55.0391 19.6684 56.4025C17.6035 57.755 15.2226 58.2011 13.4558 57.5644C11.3622 56.8126 9.62051 54.28 9.19318 53.1577C7.84652 49.5999 9.27577 45.535 13.3265 41.3981C14.8348 39.8584 17.4275 37.7144 18.9681 36.61C25.1591 32.1673 39.6528 29.1708 49.6683 35.3762C53.5179 37.9842 55.4751 40.3153 57.4358 44.6141C57.8847 45.6033 58.4844 47.3624 58.7681 48.5387C58.9153 49.1467 59.0626 49.6935 59.2026 50.2151C59.5689 51.5892 59.8849 52.7728 60.0429 54.3556C60.1183 55.0786 60.2189 55.8305 60.3159 56.5607C60.5457 58.2838 60.7827 60.0645 60.754 61.7948C60.7073 64.3705 59.8634 68.1081 59.5438 69.5147C59.4935 69.7305 59.4576 69.8996 59.436 70.0003C57.4107 79.7095 54.1176 85.8393 47.6824 91.8576C46.9642 92.6058 46.2316 93.3361 45.517 94.0232C44.7557 94.7534 43.9908 95.4513 43.2438 96.1024C38.2091 100.747 34.3739 103.596 27.4072 106.24C25.4392 106.988 19.6181 108.2 14.2494 108.438C10.9815 108.581 8.18408 108.456 5.15321 107.366C5.00238 107.312 4.90901 107.168 4.91619 107.006C4.92338 106.848 5.0347 106.714 5.18912 106.675C6.69019 106.312 8.34927 105.25 8.69401 103.696C8.66888 102.808 7.72083 101.855 7.04212 101.513C5.41176 101.131 3.53363 101.538 2.24802 102.552C1.55135 103.099 0.721808 104.067 0.721808 105.56C1.04141 110.506 5.65237 110.65 10.1161 110.794C10.5865 110.808 11.0534 110.823 11.5058 110.844C12.1055 110.873 14.6157 110.7 16.2748 110.585C17.1331 110.528 17.8118 110.481 18.1027 110.466C19.3811 110.344 20.7421 110.139 22.1354 109.862C31.0701 108.081 38.6652 104.844 44.7126 100.247C45.6499 99.4983 46.4866 98.7177 47.1976 97.9226C47.9769 97.0485 48.6412 96.1132 49.1727 95.1383C49.2374 95.0196 49.3595 94.9513 49.4887 94.9513L49.478 94.9441Z" fill="#0F0F0F"/>
<path d="M79.183 41.9915C77.1827 41.9915 75.5596 40.2576 75.5596 38.1244C75.5596 35.9912 77.1863 34.2573 79.183 34.2573C81.1796 34.2573 82.8064 35.9912 82.8064 38.1244C82.8064 40.2576 81.1796 41.9915 79.183 41.9915ZM79.183 34.9804C77.5813 34.9804 76.2778 36.3905 76.2778 38.128C76.2778 39.8655 77.5813 41.2757 79.183 41.2757C80.7846 41.2757 82.0882 39.8655 82.0882 38.128C82.0882 36.3905 80.7846 34.9804 79.183 34.9804Z" fill="#0F0F0F"/>
<path d="M79.183 69.5794C77.1827 69.5794 75.5596 67.8455 75.5596 65.7123C75.5596 63.5791 77.1863 61.8452 79.183 61.8452C81.1796 61.8452 82.8064 63.5791 82.8064 65.7123C82.8064 67.8455 81.1796 69.5794 79.183 69.5794ZM79.183 62.5683C77.5813 62.5683 76.2778 63.9784 76.2778 65.7159C76.2778 67.4534 77.5813 68.8636 79.183 68.8636C80.7846 68.8636 82.0882 67.4534 82.0882 65.7159C82.0882 63.9784 80.7846 62.5683 79.183 62.5683Z" fill="#0F0F0F"/>
<path d="M178.078 18.2023C178.01 18.044 177.931 17.8893 177.849 17.7382L178.463 17.3677L178.47 17.3785C178.578 17.5439 178.671 17.731 178.743 17.9325L178.078 18.2023Z" fill="#0F0F0F"/>
<path d="M221.696 135C220.862 135 220.044 134.896 219.329 134.716L219.178 134.676L219.103 134.539C219.024 134.399 211.393 120.607 207.202 112.927C203.823 118.683 196.457 125.294 187.171 127.55C179.759 129.352 171.596 128.611 164.181 125.467C156.988 122.42 151.066 117.402 147.504 111.34C145.766 108.38 145.626 106.628 145.622 104.473C145.618 102.419 146.326 100.635 147.565 99.5808C148.502 98.7858 149.684 98.4584 150.901 98.6635C153.777 99.0736 155.648 101.315 155.548 104.239C155.433 107.534 152.014 108.865 150.765 109.243C151.425 110.524 152.747 112.963 153.368 113.546C166.932 126.233 179.048 124.532 186.981 122.147C195.897 119.467 201.952 114.1 204.035 107.034C204.063 106.941 204.085 106.869 204.103 106.811C201.927 102.815 198.461 96.3108 193.516 86.9506L176.674 105.649C176.369 105.988 175.931 106.185 175.475 106.185C175.076 106.185 174.692 106.038 174.394 105.768C174.074 105.477 173.884 105.081 173.862 104.649C173.841 104.218 173.988 103.804 174.275 103.48L191.911 83.9037C191.039 82.2489 190.155 80.5726 189.268 78.8926L171.043 99.1239C170.738 99.4621 170.3 99.6599 169.844 99.6599C169.445 99.6599 169.061 99.5124 168.763 99.2426C168.443 98.9513 168.253 98.5555 168.232 98.1239C168.21 97.6922 168.357 97.2785 168.645 96.9547L187.663 75.8421C185.171 71.1116 182.711 66.4315 180.474 62.1759C176.232 54.1071 172.871 47.7219 171.532 45.2146L171.399 45.1103C169.366 43.5167 166.285 41.2935 164.034 39.6639L163.254 39.1027C158.209 35.4515 154.607 30.2462 152.549 23.6307C151.511 20.2924 151.454 16.2166 152.377 11.5185C152.977 8.91409 154.402 6.42475 156.395 4.49299C159.627 1.38851 164.102 -0.23748 168.67 0.0287217C171.945 0.212185 174.649 1.68708 176.337 2.88859C178.398 4.39586 180.061 6.05422 181.414 7.9608L181.436 7.99318C183.978 12.5546 184.862 17.2023 183.853 20.7421C183.131 23.2854 181.479 25.2891 178.951 26.6956C176.624 28.0338 173.794 28.318 171.377 27.4546C169.277 26.7028 167.675 25.1308 166.874 23.0264C165.574 19.6161 166.174 14.9576 169.115 13.7309C172.412 12.3567 175.967 13.9719 177.852 16.4325C177.629 15.4432 177.356 14.3892 177.087 13.7777C176.739 12.9755 174.717 9.59398 172.555 8.37449C171.04 7.52193 169.729 7.00391 168.425 6.74491C165.653 6.19452 163.111 6.74491 161.078 8.34571C158.676 10.2343 157.264 13.3891 157.099 17.2311C156.952 20.6665 157.641 24.9006 158.78 27.5338C161.782 34.491 168.698 39.6531 173.751 43.4231C176.294 45.3369 178.998 47.2507 181.608 49.0997C187.656 53.3805 193.904 57.8052 199.262 62.9457L208.003 53.2402C208.599 52.5783 209.622 52.5243 210.287 53.1215C210.606 53.4093 210.797 53.8086 210.818 54.2402C210.84 54.6719 210.693 55.0856 210.405 55.4094L201.55 65.2408C202.785 66.5467 203.927 67.8597 204.947 69.1547C204.983 69.2015 205.019 69.2482 205.055 69.295L213.641 59.7657C214.237 59.1038 215.26 59.0499 215.925 59.647C216.244 59.9348 216.435 60.3341 216.456 60.7658C216.478 61.1975 216.331 61.6111 216.043 61.9349L206.994 71.9822C211.026 78.0832 213.328 85.2059 213.483 92.0696C213.601 96.7497 212.937 100.98 211.515 104.646C210.98 106.081 210.348 107.498 209.637 108.855C213.418 116.226 217.279 124.046 221.114 132.104C222.324 132.338 224.224 132.32 224.655 131.323C224.687 131.248 224.716 131.172 224.741 131.097C224.321 131.374 223.732 131.593 223.254 131.557C222.439 131.496 221.717 130.471 221.642 129.269C221.595 128.496 221.951 127.769 222.622 127.28C223.322 126.769 224.22 126.629 224.967 126.92L224.992 126.931C226.795 127.795 227.463 130.158 227.068 131.946C226.439 134.187 224.008 135 221.696 135ZM219.656 134.054C222.076 134.615 225.671 134.284 226.375 131.773C226.698 130.316 226.152 128.295 224.698 127.589C224.181 127.392 223.549 127.5 223.049 127.866C222.827 128.028 222.654 128.223 222.54 128.442C222.802 128.169 223.2 127.978 223.696 127.906C224.274 127.813 224.795 128.01 225.15 128.467C225.718 129.197 225.789 130.525 225.315 131.618C224.64 133.187 222.058 133.065 220.791 132.78L220.618 132.741L220.543 132.583C216.654 124.409 212.743 116.485 208.915 109.024L208.829 108.855L208.919 108.689C209.651 107.311 210.301 105.865 210.851 104.398C212.24 100.818 212.887 96.6778 212.772 92.0948C212.617 85.2779 210.301 78.1948 206.247 72.1549L206.089 71.921L215.515 61.4601C215.677 61.2802 215.756 61.05 215.745 60.8125C215.731 60.5715 215.627 60.3521 215.451 60.1902C215.084 59.8593 214.513 59.888 214.183 60.255L205.015 70.4318L204.624 69.9137C204.548 69.813 204.473 69.7123 204.394 69.6116C203.324 68.2554 202.121 66.874 200.81 65.507L200.58 65.266L209.885 54.9381C210.046 54.7583 210.125 54.528 210.114 54.2906C210.1 54.0496 209.996 53.8302 209.82 53.6683C209.454 53.3373 208.883 53.3661 208.552 53.733L199.312 63.989L199.047 63.73C193.671 58.5175 187.336 54.0316 181.21 49.6968C178.592 47.8442 175.884 45.9268 173.334 44.0095C168.217 40.1927 161.211 34.9622 158.133 27.8288C156.959 25.1056 156.245 20.7385 156.395 17.2095C156.568 13.1589 158.08 9.81342 160.651 7.79173C162.82 6.083 165.635 5.46426 168.58 6.05063C169.959 6.32402 171.338 6.86722 172.922 7.75935C175.27 9.08316 177.374 12.6157 177.759 13.5007C178.057 14.1734 178.944 17.4541 179.016 18.6268C179.023 18.6484 179.03 18.67 179.034 18.6916H179.016C179.023 18.8607 179.008 18.9722 178.972 19.0225L178.937 19.0693C178.922 19.9255 178.592 20.8032 177.996 21.4723C177.191 22.3716 175.331 23.2746 173.564 23.2746C173.521 23.2746 173.475 23.2746 173.428 23.2746C172.21 23.2422 171.209 22.7781 170.526 21.9292C169.707 20.9111 169.348 19.483 169.593 18.2095C169.754 17.3642 170.257 16.1807 171.74 15.3425C172.954 14.7345 174.229 14.7489 175.36 15.1015C173.65 14.0007 171.471 13.551 169.409 14.4108C166.921 15.4504 166.382 19.688 167.56 22.7853C168.49 25.2279 170.289 26.3107 171.632 26.7891C173.852 27.5841 176.462 27.3179 178.61 26.0805C180.969 24.7675 182.503 22.9112 183.174 20.555C184.126 17.1987 183.275 12.7596 180.829 8.37089C179.522 6.53267 177.917 4.93546 175.927 3.47855C173.65 1.85975 171.061 0.88848 168.637 0.751782C164.274 0.496373 159.99 2.05401 156.898 5.0182C155.006 6.85283 153.652 9.21626 153.084 11.6768C152.201 16.1807 152.255 20.2492 153.242 23.4257C155.253 29.89 158.765 34.9694 163.682 38.5272L164.457 39.0884C166.72 40.7215 169.819 42.9627 171.862 44.5635L172.099 44.7469L172.135 44.8117C173.453 47.2722 176.836 53.7006 181.116 61.8414C183.39 66.1617 185.889 70.921 188.421 75.727L188.539 75.95L188.37 76.1371L169.183 97.4368C169.022 97.6166 168.943 97.8469 168.953 98.0843C168.968 98.3253 169.072 98.5448 169.248 98.7066C169.603 99.0268 170.196 98.9944 170.515 98.6419L189.43 77.6444L189.67 78.1012C190.676 80.0078 191.678 81.9108 192.669 83.7886L192.787 84.0116L174.818 103.962C174.656 104.142 174.577 104.372 174.588 104.61C174.602 104.851 174.706 105.07 174.882 105.232C175.238 105.552 175.83 105.52 176.15 105.167L193.682 85.706L193.922 86.1592C199.054 95.8756 202.62 102.567 204.825 106.61L204.918 106.779L204.828 106.952C204.81 106.991 204.785 107.092 204.739 107.239C202.587 114.546 196.361 120.085 187.203 122.837C179.102 125.273 166.73 127.014 152.894 114.074C151.964 113.207 150.021 109.34 149.939 109.175L149.734 108.761L150.183 108.66C150.229 108.65 154.729 107.606 154.848 104.218C154.937 101.642 153.35 99.7391 150.808 99.3757C149.781 99.2031 148.825 99.4657 148.042 100.131C146.965 101.048 146.347 102.631 146.351 104.473C146.355 106.513 146.488 108.175 148.132 110.977C155.551 123.607 172.268 130.431 187.009 126.852C196.389 124.575 203.758 117.762 206.9 112.017L207.216 111.441L207.532 112.017C211.432 119.165 218.83 132.547 219.667 134.054H219.656ZM223.972 128.6C223.918 128.6 223.861 128.604 223.804 128.615C223.664 128.636 222.988 128.759 222.917 129.212C222.845 129.64 222.913 129.974 223.103 130.162C223.351 130.406 223.796 130.385 224.123 130.323C224.299 130.291 224.554 130.133 224.673 130.039L224.895 129.867C224.867 129.482 224.759 129.14 224.579 128.906C224.421 128.701 224.22 128.6 223.972 128.6ZM173.769 15.5655C173.198 15.5655 172.62 15.6842 172.067 15.9648C171.097 16.5152 170.476 17.3354 170.286 18.3319C170.085 19.3895 170.393 20.6197 171.076 21.4651C171.629 22.1522 172.422 22.5155 173.435 22.5407C175.029 22.5839 176.75 21.7637 177.45 20.9795C178.136 20.2133 178.391 19.0585 178.068 18.1772L178.2 18.1232C178.172 17.9721 178.139 17.8031 178.103 17.616L177.863 17.7599C177.152 16.6699 175.5 15.5619 173.769 15.5619V15.5655ZM205.909 103.344L205.493 102.718C204.049 100.559 200.584 94.3863 195.186 84.3749L195.068 84.1519L202.631 75.7558L202.871 76.2054C203.018 76.4788 203.151 76.7307 203.281 76.9861C207.022 84.1951 208.301 95.6993 206.135 102.624L205.913 103.34L205.909 103.344ZM195.937 84.2562C200.781 93.2423 204.049 99.0844 205.665 101.66C207.475 94.8323 206.175 84.1303 202.641 77.317C202.587 77.2091 202.53 77.1048 202.476 76.9968L195.937 84.2562ZM194.159 82.472L193.919 82.0223C192.92 80.1625 191.904 78.2631 190.891 76.3637L190.773 76.1407L197.757 68.3885L198.02 68.7302C199.323 70.4318 200.512 72.1657 201.553 73.8852L201.69 74.1154L194.159 82.472ZM191.642 76.2486C192.532 77.9214 193.427 79.5905 194.306 81.2309L200.796 74.0291C199.876 72.5218 198.838 71.0073 197.707 69.5144L191.642 76.2486ZM189.871 74.4536L189.631 74.0003C182.883 61.3126 176.531 49.1285 176.466 49.0062L175.644 47.4305L177.048 48.5889C183.795 54.1647 190.769 59.9312 196.414 66.7229L196.612 66.9639L189.871 74.45V74.4536ZM177.927 50.2544C179.834 53.9021 184.79 63.363 190.026 73.2125L195.664 66.9532C190.468 60.7586 184.147 55.4058 177.927 50.2544Z" fill="#0F0F0F"/>
</g>
<defs>
<clipPath id="clip0_364_367">
<rect width="261" height="135" fill="white"/>
</clipPath>
</defs>
</svg>
