<svg width="15" height="18" viewBox="0 0 15 18" fill="none" xmlns="http://www.w3.org/2000/svg">
<g clip-path="url(#clip0_407_457)">
<path d="M11.894 14.1199C9.39721 15.0183 8.0101 17.0455 6.17989 17.0455C4.90453 17.0455 3.73705 16.315 3.73705 15.1315C3.73705 14.3738 4.18015 13.7254 5.01241 13.7254C5.51331 13.7254 6.06815 14.1746 6.06815 14.7644C6.06815 15.2409 5.8177 15.4128 5.8177 15.776C5.8177 16.0573 6.06815 16.2252 6.45731 16.2252C7.17784 16.2252 7.87139 15.3542 7.87139 14.5652C7.87139 13.7762 7.2626 13.0458 6.70776 12.1748C6.26466 11.499 5.84853 10.7413 5.84853 9.87027C5.84853 8.57741 6.73473 7.50719 8.09487 7.50719C9.12364 7.50719 9.84416 8.09698 10.2603 8.74536C10.5917 8.37821 10.7882 7.4525 10.7304 6.63617C10.6186 6.66351 10.5069 6.66351 10.399 6.66351C8.87319 6.66351 7.54003 5.76514 6.8773 4.46838C6.73859 4.60899 6.57291 4.7496 6.46117 4.83553C5.9333 5.25737 5.21277 5.65187 3.93741 5.65187C1.68336 5.65187 0.37717 4.2184 0.0188343 2.92554C-0.119876 2.44901 0.546705 2.22247 0.739358 2.67165C0.989808 3.26145 1.48685 3.85124 2.65433 3.85124C3.4866 3.85124 4.06841 3.48408 4.56931 3.14817C5.15112 2.72634 5.76376 2.21856 6.81565 2.21856C9.22767 2.21856 10.95 3.99185 11.3661 5.76124C12.5028 5.39408 12.9767 4.40979 12.9767 3.59736C12.9767 2.86695 12.5606 2.49979 12.0327 2.33184C11.5048 2.16388 11.0348 1.79672 11.0348 1.09366C11.0348 0.390592 11.5896 -0.00390625 12.2562 -0.00390625C13.5315 -0.00390625 14.4216 1.28895 14.4216 2.58182C14.4216 4.40979 13.1462 6.01122 11.4817 6.51899C11.5357 7.41735 11.37 8.20635 11.1773 8.71412C11.5665 8.43289 12.0635 8.23759 12.6762 8.23759C13.9515 8.23759 15.0073 9.33516 15.0073 10.714C15.0073 12.5419 13.7859 13.4403 11.9017 14.116L11.894 14.1199ZM8.26055 3.57392C7.92919 3.57392 7.67874 3.68719 7.42829 3.94108C7.92919 5.09333 9.06584 5.90966 10.3952 5.90966H10.6456C10.3412 4.64414 9.2585 3.57392 8.26055 3.57392Z" fill="#0F0F0F"/>
</g>
<defs>
<clipPath id="clip0_407_457">
<rect width="15" height="17.0455" fill="white"/>
</clipPath>
</defs>
</svg>
